<svg width="230" height="238" viewBox="0 0 230 238" fill="none" xmlns="http://www.w3.org/2000/svg">
<path d="M67.6883 174.92C67.6883 174.632 67.8723 174.352 68.2403 174.08C68.6083 173.792 69.1043 173.56 69.7283 173.384C70.3523 173.208 71.0323 173.12 71.7683 173.12C72.7923 173.12 73.6723 173.296 74.4083 173.648C75.1443 173.984 75.7123 174.464 76.1123 175.088C76.5123 175.712 76.7123 176.448 76.7123 177.296C76.7123 178.176 76.4643 179.04 75.9683 179.888C75.4883 180.736 74.6563 181.704 73.4723 182.792L69.5603 186.416H76.6883C76.7523 186.48 76.8083 186.584 76.8563 186.728C76.9043 186.856 76.9283 187.008 76.9283 187.184C76.9283 187.44 76.8563 187.64 76.7123 187.784C76.5843 187.928 76.4083 188 76.1843 188H67.7123C67.5523 187.888 67.4323 187.752 67.3523 187.592C67.2723 187.416 67.2323 187.232 67.2323 187.04C67.2323 186.784 67.2803 186.56 67.3763 186.368C67.4723 186.16 67.6163 185.968 67.8083 185.792L72.1283 181.64C73.1203 180.712 73.8003 179.936 74.1683 179.312C74.5363 178.672 74.7203 178.008 74.7203 177.32C74.7203 176.568 74.4643 175.952 73.9523 175.472C73.4403 174.992 72.6643 174.752 71.6243 174.752C70.9203 174.752 70.2883 174.872 69.7283 175.112C69.1843 175.352 68.7283 175.608 68.3603 175.88C68.1843 175.8 68.0243 175.68 67.8803 175.52C67.7523 175.36 67.6883 175.16 67.6883 174.92ZM85.2574 188.312C84.1374 188.312 83.1454 188.04 82.2814 187.496C81.4334 186.936 80.7694 186.096 80.2894 184.976C79.8094 183.84 79.5694 182.416 79.5694 180.704C79.5694 178.864 79.8414 177.392 80.3854 176.288C80.9294 175.184 81.6334 174.384 82.4974 173.888C83.3614 173.376 84.2814 173.12 85.2574 173.12C86.2494 173.12 87.1774 173.376 88.0414 173.888C88.9214 174.4 89.6254 175.216 90.1534 176.336C90.6974 177.44 90.9694 178.896 90.9694 180.704C90.9694 182.4 90.7294 183.816 90.2494 184.952C89.7694 186.072 89.0974 186.912 88.2334 187.472C87.3854 188.032 86.3934 188.312 85.2574 188.312ZM85.2574 186.68C86.4414 186.68 87.3614 186.168 88.0174 185.144C88.6734 184.104 89.0014 182.624 89.0014 180.704C89.0014 179.28 88.8254 178.136 88.4734 177.272C88.1374 176.392 87.6894 175.752 87.1294 175.352C86.5694 174.952 85.9454 174.752 85.2574 174.752C84.5854 174.752 83.9614 174.96 83.3854 175.376C82.8254 175.776 82.3774 176.416 82.0414 177.296C81.7054 178.176 81.5374 179.312 81.5374 180.704C81.5374 182.624 81.8654 184.104 82.5214 185.144C83.1774 186.168 84.0894 186.68 85.2574 186.68ZM99.2496 188.312C98.1296 188.312 97.1376 188.04 96.2736 187.496C95.4256 186.936 94.7616 186.096 94.2816 184.976C93.8016 183.84 93.5616 182.416 93.5616 180.704C93.5616 178.864 93.8336 177.392 94.3776 176.288C94.9216 175.184 95.6256 174.384 96.4896 173.888C97.3536 173.376 98.2736 173.12 99.2496 173.12C100.242 173.12 101.17 173.376 102.034 173.888C102.914 174.4 103.618 175.216 104.146 176.336C104.69 177.44 104.962 178.896 104.962 180.704C104.962 182.4 104.722 183.816 104.242 184.952C103.762 186.072 103.09 186.912 102.226 187.472C101.378 188.032 100.386 188.312 99.2496 188.312ZM99.2496 186.68C100.434 186.68 101.354 186.168 102.01 185.144C102.666 184.104 102.994 182.624 102.994 180.704C102.994 179.28 102.818 178.136 102.466 177.272C102.13 176.392 101.682 175.752 101.122 175.352C100.562 174.952 99.9376 174.752 99.2496 174.752C98.5776 174.752 97.9536 174.96 97.3776 175.376C96.8176 175.776 96.3696 176.416 96.0336 177.296C95.6976 178.176 95.5296 179.312 95.5296 180.704C95.5296 182.624 95.8576 184.104 96.5136 185.144C97.1696 186.168 98.0816 186.68 99.2496 186.68ZM124.743 181.112V186.32C124.743 186.608 124.655 186.856 124.479 187.064C124.319 187.256 124.071 187.432 123.734 187.592C123.335 187.8 122.783 187.968 122.079 188.096C121.375 188.24 120.663 188.312 119.943 188.312C118.455 188.312 117.135 188.04 115.983 187.496C114.847 186.952 113.959 186.12 113.319 185C112.679 183.88 112.359 182.456 112.359 180.728C112.359 179.016 112.687 177.6 113.343 176.48C114.015 175.344 114.903 174.496 116.007 173.936C117.111 173.376 118.319 173.096 119.631 173.096C120.543 173.096 121.343 173.192 122.031 173.384C122.719 173.576 123.255 173.816 123.639 174.104C124.023 174.392 124.215 174.688 124.215 174.992C124.215 175.2 124.151 175.392 124.023 175.568C123.895 175.728 123.743 175.848 123.567 175.928C123.135 175.64 122.623 175.376 122.031 175.136C121.439 174.88 120.679 174.752 119.751 174.752C118.743 174.752 117.831 174.976 117.015 175.424C116.199 175.872 115.551 176.544 115.071 177.44C114.607 178.32 114.375 179.416 114.375 180.728C114.375 182.104 114.615 183.232 115.095 184.112C115.591 184.976 116.263 185.616 117.111 186.032C117.959 186.448 118.911 186.656 119.967 186.656C120.543 186.656 121.087 186.608 121.599 186.512C122.111 186.416 122.511 186.296 122.799 186.152V181.736H119.175C119.127 181.656 119.079 181.552 119.031 181.424C118.983 181.28 118.959 181.128 118.959 180.968C118.959 180.696 119.023 180.488 119.151 180.344C119.279 180.184 119.463 180.104 119.703 180.104H123.711C123.999 180.104 124.239 180.2 124.431 180.392C124.639 180.568 124.743 180.808 124.743 181.112ZM136.831 184.208C136.719 184.288 136.567 184.36 136.375 184.424C136.199 184.488 135.999 184.52 135.775 184.52C135.519 184.52 135.287 184.48 135.079 184.4C134.887 184.32 134.751 184.192 134.671 184.016C133.823 182.224 133.079 180.584 132.439 179.096C131.815 177.608 131.311 176.376 130.927 175.4H130.831C130.783 176.6 130.727 177.72 130.663 178.76C130.615 179.8 130.559 180.808 130.495 181.784C130.431 182.744 130.367 183.736 130.303 184.76C130.255 185.768 130.191 186.848 130.111 188C130.015 188.032 129.887 188.064 129.727 188.096C129.583 188.128 129.423 188.144 129.247 188.144C128.895 188.144 128.647 188.072 128.503 187.928C128.359 187.768 128.287 187.56 128.287 187.304C128.287 187.112 128.303 186.672 128.335 185.984C128.383 185.28 128.431 184.424 128.479 183.416C128.543 182.408 128.615 181.336 128.695 180.2C128.775 179.048 128.855 177.92 128.935 176.816C129.031 175.696 129.119 174.688 129.199 173.792C129.327 173.68 129.511 173.576 129.751 173.48C129.991 173.384 130.263 173.336 130.567 173.336C130.935 173.336 131.247 173.408 131.503 173.552C131.759 173.696 131.959 173.92 132.103 174.224C132.519 175.04 132.935 175.928 133.351 176.888C133.767 177.848 134.175 178.808 134.575 179.768C134.975 180.728 135.359 181.632 135.727 182.48H135.823C136.527 180.784 137.223 179.152 137.911 177.584C138.615 176.016 139.207 174.68 139.687 173.576C139.831 173.496 140.015 173.44 140.239 173.408C140.463 173.36 140.671 173.336 140.863 173.336C141.231 173.336 141.519 173.4 141.727 173.528C141.951 173.64 142.095 173.832 142.159 174.104C142.223 174.376 142.295 174.84 142.375 175.496C142.455 176.152 142.535 176.928 142.615 177.824C142.695 178.704 142.767 179.632 142.831 180.608C142.911 181.584 142.983 182.544 143.047 183.488C143.111 184.432 143.167 185.288 143.215 186.056C143.279 186.808 143.319 187.408 143.335 187.856C143.191 187.952 143.039 188.024 142.879 188.072C142.719 188.12 142.535 188.144 142.327 188.144C142.087 188.144 141.871 188.088 141.679 187.976C141.503 187.848 141.399 187.624 141.367 187.304C141.271 185.752 141.175 184.224 141.079 182.72C140.999 181.2 140.927 179.808 140.863 178.544C140.799 177.28 140.743 176.248 140.695 175.448H140.599C140.247 176.328 139.767 177.464 139.159 178.856C138.551 180.232 137.775 182.016 136.831 184.208ZM151.285 186.68C152.357 186.68 153.165 186.44 153.709 185.96C154.269 185.464 154.549 184.832 154.549 184.064C154.549 183.408 154.333 182.864 153.901 182.432C153.485 182 152.821 181.656 151.909 181.4L149.821 180.776C149.149 180.568 148.565 180.304 148.069 179.984C147.573 179.648 147.189 179.24 146.917 178.76C146.661 178.264 146.533 177.688 146.533 177.032C146.533 175.8 146.981 174.84 147.877 174.152C148.773 173.448 149.965 173.096 151.453 173.096C152.317 173.096 153.085 173.192 153.757 173.384C154.445 173.56 154.981 173.792 155.365 174.08C155.765 174.368 155.965 174.672 155.965 174.992C155.965 175.2 155.909 175.392 155.797 175.568C155.685 175.728 155.541 175.856 155.365 175.952C154.965 175.632 154.421 175.352 153.733 175.112C153.061 174.872 152.325 174.752 151.525 174.752C150.597 174.752 149.861 174.96 149.317 175.376C148.773 175.776 148.501 176.328 148.501 177.032C148.501 177.592 148.693 178.048 149.077 178.4C149.477 178.752 150.117 179.056 150.997 179.312L152.461 179.744C153.725 180.096 154.717 180.608 155.437 181.28C156.173 181.952 156.541 182.88 156.541 184.064C156.541 185.328 156.077 186.352 155.149 187.136C154.237 187.92 152.949 188.312 151.285 188.312C150.309 188.312 149.453 188.208 148.717 188C147.997 187.776 147.429 187.504 147.013 187.184C146.613 186.848 146.413 186.52 146.413 186.2C146.413 185.928 146.493 185.704 146.653 185.528C146.829 185.336 147.029 185.2 147.253 185.12C147.621 185.472 148.141 185.824 148.813 186.176C149.485 186.512 150.309 186.68 151.285 186.68Z" fill="#333333"/>
<path d="M29.317 212.531C28.9578 213.089 27.521 212.42 26.6829 212.308C25.8448 212.197 25.1264 212.42 25.0067 213.312L25.3659 214.315L26.3237 213.98L26.4434 214.761H27.4013L27.521 215.318H28.3591C28.3591 215.318 28.4789 215.987 30.9932 216.21C33.5076 216.321 35.4233 216.544 35.4233 216.544C35.4233 216.544 36.6206 217.547 38.6561 217.547C43.8045 217.547 45.7202 217.993 48.3543 217.993C50.9884 217.993 53.0238 217.882 59.2499 217.436C65.4759 216.99 76.9702 214.984 80.9213 215.206C84.8724 215.429 89.063 213.312 90.859 213.423C92.655 213.535 96.9653 212.531 99.9586 213.089C102.952 213.646 107.621 214.315 112.291 213.2C116.96 212.085 122.588 213.646 127.018 213.757C131.448 213.869 142.823 213.869 145.696 213.423C148.57 212.977 149.767 213.646 151.922 213.312C154.077 212.977 160.184 213.2 164.254 213.423C168.325 213.646 170.48 213.646 174.432 212.977C178.383 212.308 184.369 212.085 188.32 211.528C192.272 210.971 192.391 211.082 193.349 210.302C194.307 209.522 195.983 210.302 198.019 209.633C200.054 208.964 201.85 208.296 203.886 208.407C205.921 208.519 207.956 208.407 207.956 208.407C207.956 208.407 207.837 207.515 206.041 205.509C204.245 203.503 202.688 203.28 201.491 203.837C200.294 204.394 201.251 202.611 199.575 201.719C197.899 200.827 194.666 201.942 193.828 200.493C192.99 199.044 195.145 197.706 194.068 193.694C192.751 188.343 191.074 188.455 190.595 187.229C190.236 186.003 191.793 184.554 191.314 179.872C190.835 175.19 191.194 173.853 190.476 171.735C189.757 169.617 190.476 168.837 189.518 165.716C188.56 162.595 187.961 162.372 188.201 161.257C188.44 160.143 189.159 159.14 188.799 154.681C188.44 150.222 187.363 147.547 187.363 145.541C187.363 143.534 188.44 142.866 187.842 137.627C187.243 132.388 188.081 130.939 187.842 126.146C187.602 121.353 188.081 118.678 187.363 113.773C186.644 108.869 187.602 108.534 186.644 102.292C185.686 96.0502 185.686 92.0375 184.729 86.2413C183.771 80.4451 183.411 77.4355 182.813 74.6489C182.214 71.8623 178.143 67.7381 178.263 66.9578C178.383 66.1776 184.729 59.4896 187.842 54.9196C190.955 50.3495 191.673 49.1234 193.708 47.2285C195.744 45.3336 198.378 39.5374 200.533 37.0851C202.688 34.6329 205.203 27.4991 206.999 24.601C208.795 21.703 210.95 15.4609 211.309 13.7889C211.069 10.7794 209.992 9.77618 209.992 9.77618C209.393 9.66471 208.316 9.99911 208.316 9.99911L206.639 8.99592L205.083 9.10739L203.526 8.1042L201.97 8.21567L200.413 7.21248L198.857 7.32394L197.3 6.32076L195.624 6.54369L193.948 5.65197L192.272 5.98636L190.595 5.20611L188.919 5.65197L187.243 4.98318L185.567 5.5405L184.13 4.98318L182.693 5.5405L181.256 5.09464L179.82 5.76343L178.383 5.31757L176.946 6.09783L175.509 5.76343L174.072 6.54369L172.636 6.20929L171.199 6.98955L169.762 6.65515L168.325 7.32394L166.889 6.87808L165.452 7.43541L164.015 6.65515L161.62 6.76662L159.226 5.8749L156.831 6.09783L154.436 5.20611L152.042 5.5405L149.647 4.76025L147.253 5.09464L144.858 4.31438L142.463 4.64878L140.069 3.97999L137.674 4.42585L135.279 3.75706L132.885 4.20292L130.37 3.53413L127.856 4.09145L125.581 3.53413L123.306 4.09145L121.031 3.53413L118.756 4.09145L116.482 3.64559L114.207 4.31438L111.932 3.86852L109.657 4.42585L107.382 3.86852L105.107 4.42585L102.832 3.86852L100.557 4.42585L97.2048 4.09145L94.9299 4.53731L92.655 3.86852L90.3801 4.31438L88.1052 3.75706L85.8303 4.42585L83.5554 4.09145L81.2805 4.87171L79.0056 4.64878L76.7307 5.5405L74.4558 5.31757L72.1809 6.20929L69.906 5.98636L67.6311 6.76662L65.3562 6.32076L63.3208 6.76662L61.0459 6.09783L58.771 6.43222L56.3763 5.5405L54.1014 5.65197L51.8265 4.53731H49.5516L47.2767 3.42266H45.0018L42.7269 2.30801L40.3323 2.41948L37.9377 1.52776L35.543 1.86215L33.1484 1.19336L30.7538 1.75069L28.3591 1.19336L25.9645 1.86215L23.5699 1.52776C23.5699 1.52776 23.5699 3.86852 23.091 5.98636C21.7739 11.7826 22.0134 11.1138 23.6896 16.3526C25.3659 21.5915 26.4434 24.3781 29.6762 35.3017C32.909 46.1138 32.6695 45.5565 34.9444 48.5661C37.2193 51.5756 36.7404 52.5788 37.8179 56.4801C38.7758 60.4928 39.135 62.0533 41.0507 65.8432C42.9664 69.633 44.2834 70.6362 41.1704 76.5438C38.0574 82.4515 36.6206 88.6935 36.3812 90.0311C36.1417 91.3687 37.0996 96.8305 37.2193 102.85C37.339 108.98 38.5363 109.538 38.1771 110.987C37.339 115.222 38.5363 116.337 38.0574 119.792C37.4587 124.139 38.4166 127.595 38.0574 132.499C37.6982 137.404 38.0574 141.528 38.4166 142.977C38.7758 144.538 38.0574 145.318 37.9377 149.219C37.8179 153.12 37.6982 157.802 37.8179 161.703C37.9377 165.716 38.5363 167.611 39.0153 169.729C39.4942 171.847 38.8955 172.069 39.4942 173.853C40.0928 175.636 39.2547 180.429 38.7758 183.55C38.1771 186.671 36.3812 185.557 34.9444 192.245C32.5498 202.611 34.226 201.162 33.6273 202.611C33.0287 204.06 32.5498 209.745 31.8314 210.636C31.2327 211.64 30.3946 210.636 29.317 212.531Z" stroke="black" stroke-miterlimit="10"/>
<path d="M183.532 58.5977C183.532 58.5977 183.412 58.932 183.172 59.3779C182.933 59.9352 182.574 60.604 182.095 61.3843C181.616 62.1645 181.017 63.1677 180.299 64.1709C179.94 64.6168 179.58 65.1741 179.221 65.7314C179.102 65.9544 178.862 66.2888 178.742 66.5117C178.742 66.7346 178.623 67.069 178.623 67.4034C178.623 68.6295 179.102 69.8556 179.58 70.9703C180.059 72.0849 180.419 73.0881 180.658 73.9798C180.898 74.8716 181.137 75.6518 181.257 76.2091C181.376 76.7665 181.376 77.1009 181.376 77.1009C181.376 77.1009 181.017 75.8748 180.419 74.0913C180.059 73.1996 179.7 72.1964 179.221 71.0818C178.742 69.9671 178.263 68.741 178.263 67.5149C178.263 67.1805 178.263 66.9575 178.383 66.5117C178.503 66.1773 178.742 65.9544 178.862 65.62C179.221 65.0626 179.58 64.6168 179.94 64.0595C180.658 63.0563 181.257 62.1645 181.736 61.2728C182.215 60.4926 182.574 59.7123 182.933 59.2664C183.292 58.8206 183.532 58.5977 183.532 58.5977Z" fill="black"/>
<path d="M26.5635 213.424C26.5635 213.424 26.5635 213.312 26.5635 213.089C26.6832 212.978 26.8029 212.978 26.9227 213.089C27.0424 213.201 27.1621 213.201 27.2819 213.312C27.8805 213.758 28.4792 214.427 29.1976 214.984C29.916 215.542 30.8738 215.765 31.4725 215.988C32.1909 216.099 32.6698 216.21 32.6698 216.21V216.433C32.6698 216.433 32.1909 216.433 31.4725 216.322C30.7541 216.21 29.7962 215.876 29.0778 215.319C28.2397 214.761 27.6411 214.093 27.1621 213.647C26.9227 213.424 26.6832 213.201 26.5635 213.312C26.5635 213.312 26.5635 213.424 26.5635 213.424Z" fill="black"/>
<path d="M206.64 16.6875C206.64 16.6875 207.238 16.9104 207.837 17.0219C208.436 17.2448 209.034 17.4678 209.034 17.4678C209.154 17.4678 209.154 17.5792 209.154 17.6907C209.154 17.8022 209.034 17.8022 208.915 17.8022C208.915 17.8022 208.316 17.5792 207.717 17.2448C207.238 16.9104 206.64 16.6875 206.64 16.6875Z" fill="black"/>
<path d="M175.869 15.3511C175.869 15.3511 176.348 15.3511 177.186 15.2396C178.024 15.1281 179.102 15.0167 180.539 15.0167C183.292 14.7937 187.004 14.6823 190.716 14.7937C194.428 14.9052 198.139 15.1281 200.893 15.4625C202.21 15.6855 203.407 15.9084 204.246 16.1313C204.964 16.3542 205.443 16.4657 205.443 16.4657C205.443 16.4657 204.964 16.3542 204.246 16.2428C203.886 16.1313 203.407 16.1313 202.809 16.0198C202.21 15.9084 201.611 15.9084 200.893 15.7969C198.139 15.4625 194.428 15.2396 190.716 15.1281C187.004 15.0167 183.292 15.1281 180.539 15.2396C177.665 15.2396 175.869 15.3511 175.869 15.3511Z" fill="black"/>
<path d="M126.779 14.9062C126.779 14.9062 129.652 15.0177 133.843 15.1292C138.034 15.3521 143.781 15.575 149.408 15.798C155.035 16.0209 160.783 16.1324 164.973 16.0209C167.128 16.0209 168.805 15.9094 170.122 15.798C171.319 15.6865 172.037 15.6865 172.037 15.6865C172.037 15.6865 171.319 15.798 170.122 15.9094C168.924 16.0209 167.128 16.2438 164.973 16.3553C160.663 16.4668 155.035 16.3553 149.408 16.1324C143.781 15.9094 138.034 15.6865 133.843 15.3521C129.652 15.1292 126.779 14.9062 126.779 14.9062Z" fill="black"/>
<path d="M60.8062 15.3503C60.8062 15.3503 61.764 15.2389 63.3205 15.1274C64.9968 15.0159 67.2717 14.9045 70.1452 14.6815C75.7726 14.3471 83.196 14.0128 90.739 13.7898C98.2821 13.6784 105.705 13.7898 111.333 14.0128C112.77 14.0128 113.967 14.1242 115.164 14.2357C116.362 14.3471 117.319 14.3471 118.158 14.3471C119.834 14.4586 120.672 14.5701 120.672 14.5701C120.672 14.5701 119.714 14.5701 118.158 14.5701C116.481 14.5701 114.206 14.4586 111.333 14.3471C105.705 14.1242 98.2821 14.0128 90.739 14.1242C83.3157 14.2357 75.7726 14.6815 70.1452 14.9045C64.6376 15.1274 60.8062 15.3503 60.8062 15.3503Z" fill="black"/>
<path d="M30.3948 11.8945C30.3948 11.8945 32.1907 12.006 34.7051 12.2289C37.3392 12.4519 40.6917 13.1206 44.1639 13.678C47.6361 14.2353 50.9886 14.7926 53.6227 15.0156C54.9397 15.127 56.0173 15.2385 56.7357 15.35C57.4541 15.4614 57.933 15.4614 57.933 15.4614C57.933 15.4614 57.4541 15.4614 56.7357 15.4614C56.0173 15.4614 54.9397 15.4614 53.6227 15.35C50.9886 15.127 47.6361 14.5697 44.1639 14.0124C40.6917 13.455 37.3392 12.8977 34.7051 12.4519C33.3881 12.2289 32.3105 12.1175 31.5921 12.006C30.8737 11.8945 30.3948 11.8945 30.3948 11.8945Z" fill="black"/>
<path d="M23.4508 11.4531C23.4508 11.4531 24.7678 11.4531 26.0849 11.5646C27.4019 11.5646 28.719 11.6761 28.719 11.6761C28.719 11.6761 27.4019 11.6761 26.0849 11.6761C24.7678 11.6761 23.4508 11.7875 23.4508 11.7875C23.3311 11.7875 23.3311 11.6761 23.3311 11.6761C23.3311 11.5646 23.4508 11.4531 23.4508 11.4531Z" fill="black"/>
<path d="M207.357 16.1309C207.357 16.1309 207.836 16.2423 208.315 16.4653C208.794 16.5767 209.273 16.7997 209.273 16.7997C209.393 16.7997 209.393 16.9111 209.393 17.0226C209.393 17.134 209.273 17.134 209.153 17.134C209.153 17.134 208.674 16.9111 208.196 16.6882C207.717 16.3538 207.357 16.1309 207.357 16.1309Z" fill="black"/>
<path d="M174.671 14.566C174.671 14.566 175.15 14.4546 175.988 14.4546C176.826 14.3431 178.023 14.2316 179.46 14.1202C182.334 13.8972 186.285 13.7858 190.116 13.8972C192.032 13.8972 194.067 14.0087 195.863 14.1202C197.659 14.2316 199.336 14.4546 200.772 14.6775C202.209 14.9004 203.406 15.1234 204.245 15.3463C205.083 15.5692 205.562 15.6807 205.562 15.6807C205.562 15.6807 205.083 15.5692 204.245 15.4578C203.885 15.3463 203.287 15.3463 202.688 15.2348C202.089 15.1234 201.491 15.0119 200.772 14.9004C199.336 14.6775 197.659 14.4546 195.863 14.3431C194.067 14.2316 192.152 14.1202 190.116 14.1202C186.285 14.0087 182.334 14.2316 179.46 14.3431C176.587 14.3431 174.671 14.566 174.671 14.566Z" fill="black"/>
<path d="M128.216 13.7871C128.216 13.7871 130.85 13.8986 134.801 14.01C138.752 14.1215 143.901 14.4559 149.169 14.6788C154.437 14.9018 159.586 15.1247 163.537 15.1247C165.453 15.1247 167.129 15.1247 168.326 15.1247C169.523 15.1247 170.122 15.0132 170.122 15.0132C170.122 15.0132 170.002 15.0132 169.643 15.1247C169.284 15.1247 168.925 15.2362 168.326 15.2362C167.129 15.3476 165.572 15.4591 163.537 15.4591C159.586 15.4591 154.318 15.2362 149.169 15.0132C143.901 14.7903 138.752 14.5674 134.801 14.233C130.73 14.01 128.216 13.7871 128.216 13.7871Z" fill="black"/>
<path d="M59.2498 14.3478C59.2498 14.3478 63.3206 14.1248 69.3072 13.7904C75.2938 13.456 83.3158 13.0102 91.3378 12.7872C93.3732 12.7872 95.4087 12.6758 97.3244 12.6758C99.3598 12.6758 101.276 12.7872 103.191 12.7872C105.107 12.7872 106.903 12.8987 108.579 12.8987C110.255 12.8987 111.932 12.8987 113.488 13.0102C116.481 13.1216 118.996 13.2331 120.792 13.3446C122.588 13.456 123.546 13.5675 123.546 13.5675C123.546 13.5675 122.588 13.5675 120.792 13.5675C118.996 13.5675 116.481 13.456 113.488 13.3446C111.932 13.2331 110.375 13.2331 108.579 13.2331C106.903 13.2331 104.987 13.1216 103.191 13.1216C101.276 13.1216 99.3598 13.0102 97.4441 13.0102C95.4087 13.0102 93.493 13.0102 91.4575 13.1216C83.3158 13.3446 75.2938 13.7904 69.3072 14.0134C66.3139 14.1248 63.7996 14.2363 62.0036 14.2363C60.2076 14.3478 59.2498 14.3478 59.2498 14.3478Z" fill="black"/>
<path d="M28.6001 10.666C28.6001 10.666 30.2763 10.666 32.9104 11.0004C35.5445 11.2233 38.897 11.7807 42.3692 12.338C45.7217 12.8953 49.1939 13.5641 51.7083 13.8985C54.2226 14.2329 56.0186 14.4558 56.0186 14.4558C56.0186 14.4558 55.5397 14.4558 54.8213 14.4558C54.1029 14.4558 53.0253 14.3444 51.7083 14.2329C49.0742 13.8985 45.7217 13.3412 42.2495 12.7839C38.897 12.2265 35.4248 11.6692 32.9104 11.3348C30.2763 10.8889 28.6001 10.666 28.6001 10.666Z" fill="black"/>
<path d="M23.69 10.4434C23.69 10.4434 24.5282 10.4434 25.2466 10.5548C26.0847 10.5548 26.8031 10.6663 26.8031 10.6663C26.8031 10.6663 25.9649 10.6663 25.2466 10.7778C24.4084 10.7778 23.69 10.8892 23.69 10.8892C23.5703 10.8892 23.5703 10.8892 23.5703 10.7778C23.5703 10.5548 23.5703 10.4434 23.69 10.4434Z" fill="black"/>
<path d="M205.682 14.793C205.682 14.793 206.64 15.0159 207.478 15.3503C208.436 15.6847 209.274 15.9076 209.274 15.9076C209.394 15.9076 209.394 16.0191 209.394 16.1305C209.394 16.242 209.274 16.242 209.154 16.242C209.154 16.242 208.316 15.9076 207.358 15.4618C206.52 15.1274 205.682 14.793 205.682 14.793Z" fill="black"/>
<path d="M175.869 13.4547C175.869 13.4547 177.665 13.2318 180.299 13.0088C182.933 12.7859 186.525 12.6745 190.117 12.7859C193.709 12.8974 197.181 13.1203 199.815 13.5662C201.132 13.7891 202.21 14.012 202.928 14.1235C203.647 14.3464 204.126 14.4579 204.126 14.4579C204.126 14.4579 203.647 14.3464 202.928 14.235C202.21 14.1235 201.013 13.9006 199.815 13.7891C197.181 13.4547 193.709 13.1203 190.117 13.1203C186.525 13.0088 183.053 13.1203 180.419 13.2318C177.665 13.4547 175.869 13.4547 175.869 13.4547Z" fill="black"/>
<path d="M127.737 12.6758C127.737 12.6758 130.49 12.7872 134.801 12.8987C138.991 13.0102 144.619 13.3446 150.246 13.679C155.873 14.0134 161.501 14.3478 165.691 14.2363C167.847 14.2363 169.523 14.1248 170.72 14.0134C171.918 13.9019 172.636 13.9019 172.636 13.9019C172.636 13.9019 171.918 14.0134 170.72 14.1248C169.523 14.2363 167.727 14.4592 165.691 14.4592C161.501 14.4592 155.873 14.1248 150.246 13.7904C144.619 13.456 138.991 13.2331 134.801 13.0102C130.49 12.8987 127.737 12.6758 127.737 12.6758Z" fill="black"/>
<path d="M63.0818 13.2309C63.0818 13.2309 66.7935 13.0079 72.4208 12.785C78.0482 12.4506 85.4716 12.0048 92.8949 11.8933C96.6066 11.7818 100.318 11.8933 103.91 11.8933C107.382 12.0048 110.615 12.0048 113.489 12.0048C116.243 12.1162 118.637 12.2277 120.194 12.2277C121.87 12.3391 122.708 12.3392 122.708 12.3392C122.708 12.3392 121.75 12.3392 120.194 12.3392C118.517 12.3392 116.243 12.2277 113.489 12.2277C110.735 12.1162 107.382 12.1162 103.91 12.1162C100.438 12.0048 96.7263 12.0048 93.0147 12.1162C85.5913 12.2277 78.168 12.785 72.5406 13.0079C69.7867 13.1194 67.3921 13.2309 65.8356 13.2309C64.0396 13.2309 63.0818 13.2309 63.0818 13.2309Z" fill="black"/>
<path d="M29.5571 9.66406C29.5571 9.66406 31.5926 9.77553 34.4661 10.1099C37.4594 10.4443 41.2908 11.1131 45.242 11.7819C49.0734 12.4507 53.0245 13.1195 56.0178 13.2309C57.4546 13.3424 58.7716 13.3424 59.6097 13.3424C60.4479 13.3424 60.9268 13.3424 60.9268 13.3424C60.9268 13.3424 60.4479 13.3424 59.6097 13.4539C58.7716 13.4539 57.4546 13.5653 56.0178 13.4539C53.0245 13.2309 49.1931 12.6736 45.242 12.0048C41.4106 11.336 37.4594 10.6672 34.5859 10.2214C33.1491 9.99846 31.9518 9.88699 30.9939 9.77553C30.0361 9.77553 29.5571 9.66406 29.5571 9.66406Z" fill="black"/>
<path d="M23.8094 9.44141C23.8094 9.44141 24.887 9.44141 25.9646 9.44141C27.0422 9.44141 28.1198 9.55287 28.1198 9.55287C28.1198 9.55287 27.0422 9.55287 25.9646 9.66434C24.887 9.66434 23.8094 9.66434 23.8094 9.66434C23.6897 9.66434 23.6897 9.66434 23.6897 9.55287C23.6897 9.44141 23.6897 9.44141 23.8094 9.44141Z" fill="black"/>
<path d="M207.597 14.6777L209.393 15.2351C209.513 15.2351 209.513 15.3465 209.513 15.458C209.513 15.5695 209.393 15.5695 209.273 15.5695L207.597 14.6777Z" fill="black"/>
<path d="M173.594 12.8965C173.594 12.8965 174.073 12.7851 174.911 12.6736C175.749 12.5622 176.946 12.4507 178.503 12.2278C181.496 11.8934 185.447 11.7819 189.399 11.8934C193.35 12.0048 197.301 12.3392 200.294 12.7851C201.731 13.008 202.928 13.3424 203.766 13.5653C204.604 13.7883 205.083 13.8997 205.083 13.8997C205.083 13.8997 204.604 13.7883 203.766 13.6768C203.287 13.5653 202.808 13.5653 202.21 13.4539C201.611 13.3424 200.893 13.2309 200.174 13.1195C197.301 12.6736 193.35 12.2278 189.399 12.2278C185.447 12.1163 181.496 12.3392 178.503 12.4507C177.066 12.5622 175.749 12.6736 174.911 12.7851C174.073 12.7851 173.594 12.8965 173.594 12.8965Z" fill="black"/>
<path d="M129.293 11.5625C129.293 11.5625 131.927 11.5625 135.878 11.7854C137.794 11.8969 140.189 12.0084 142.583 12.1198C145.098 12.2313 147.612 12.3428 150.246 12.5657C155.514 12.9001 160.663 13.3459 164.614 13.3459C166.53 13.3459 168.206 13.3459 169.403 13.3459C170.601 13.2345 171.199 13.2345 171.199 13.2345C171.199 13.2345 170.601 13.3459 169.403 13.4574C168.206 13.5689 166.649 13.6803 164.614 13.6803C160.663 13.5689 155.395 13.2345 150.246 12.9001C147.612 12.6772 144.978 12.5657 142.583 12.4542C140.069 12.3428 137.794 12.2313 135.878 12.1198C131.927 11.7854 129.293 11.5625 129.293 11.5625Z" fill="black"/>
<path d="M59.2498 12.4508C59.2498 12.4508 60.3273 12.4508 62.1233 12.3393C63.9193 12.3393 66.4336 12.2278 69.5467 12.0049C75.653 11.6705 83.9145 11.1132 92.1759 10.8902C96.2468 10.7788 100.437 10.7788 104.269 10.8902C108.1 10.8902 111.692 10.8902 114.805 11.0017C117.918 11.1132 120.433 11.2246 122.229 11.2246C124.025 11.3361 125.102 11.3361 125.102 11.3361C125.102 11.3361 124.025 11.3361 122.229 11.3361C120.433 11.3361 117.918 11.2246 114.805 11.2246C111.692 11.1132 108.1 11.1132 104.269 11.1132C100.437 11.1132 96.2468 11.0017 92.1759 11.1132C83.9145 11.3361 75.7727 12.0049 69.5467 12.2278C66.4336 12.3393 63.9193 12.4508 62.1233 12.4508C60.2076 12.4508 59.2498 12.4508 59.2498 12.4508Z" fill="black"/>
<path d="M28.8386 8.65625C28.8386 8.65625 30.5149 8.65625 33.149 8.99064C35.783 9.21357 39.1355 9.7709 42.6077 10.3282C45.9602 10.8856 49.4324 11.5543 51.9468 11.8887C54.4612 12.2231 56.2571 12.4461 56.2571 12.4461C56.2571 12.4461 55.7782 12.4461 55.0598 12.4461C54.3414 12.4461 53.2639 12.3346 51.9468 12.1117C49.4324 11.7773 45.9602 11.2199 42.6077 10.5512C39.2553 9.88237 35.7831 9.43651 33.2687 9.10211C31.9516 8.87918 30.8741 8.87918 30.1557 8.76772C29.1978 8.65625 28.8386 8.65625 28.8386 8.65625Z" fill="black"/>
<path d="M24.0499 8.4375C24.0499 8.4375 24.8881 8.4375 25.7262 8.54897C26.5643 8.54897 27.4024 8.54897 27.4024 8.54897C27.4024 8.54897 26.5643 8.54897 25.7262 8.54897C24.8881 8.54897 24.0499 8.66043 24.0499 8.66043C23.9302 8.66043 23.9302 8.66043 23.9302 8.54897C23.8105 8.4375 23.9302 8.4375 24.0499 8.4375Z" fill="black"/>
<path d="M205.203 13.2324C205.203 13.2324 205.442 13.3439 205.921 13.4554C206.28 13.5668 206.879 13.6783 207.358 13.9012C208.435 14.2356 209.393 14.57 209.393 14.57C209.513 14.57 209.513 14.6815 209.513 14.7929C209.513 14.9044 209.393 14.9044 209.274 14.9044C209.274 14.9044 208.196 14.4585 207.238 14.1241C206.759 13.9012 206.16 13.6783 205.801 13.5668C205.442 13.3439 205.203 13.2324 205.203 13.2324Z" fill="black"/>
<path d="M178.024 11.4468C178.024 11.4468 178.383 11.4468 179.102 11.3353C179.82 11.2239 180.778 11.2239 181.975 11.1124C184.37 10.8895 187.483 10.8895 190.715 11.001C193.948 11.1124 197.061 11.4468 199.456 11.8927C200.653 12.1156 201.611 12.3385 202.329 12.45C203.048 12.6729 203.407 12.7844 203.407 12.7844C203.407 12.7844 201.85 12.5615 199.456 12.2271C198.259 12.0041 196.942 11.8927 195.385 11.7812C193.948 11.6697 192.272 11.5583 190.715 11.4468C187.602 11.3353 184.37 11.3353 181.975 11.4468C179.58 11.4468 178.024 11.4468 178.024 11.4468Z" fill="black"/>
<path d="M129.413 10.3301C129.413 10.3301 132.286 10.4415 136.477 10.553C138.632 10.6645 141.027 10.7759 143.661 10.8874C146.295 10.9989 149.169 11.2218 151.922 11.4447C157.55 11.8906 163.177 12.4479 167.368 12.3365C169.523 12.3365 171.199 12.1135 172.516 12.0021C173.714 11.8906 174.432 11.8906 174.432 11.8906C174.432 11.8906 173.714 12.0021 172.516 12.1135C171.319 12.225 169.523 12.5594 167.368 12.5594C163.177 12.6708 157.55 12.1135 151.922 11.6677C149.169 11.4447 146.295 11.2218 143.661 11.1103C141.027 10.9989 138.512 10.8874 136.477 10.7759C132.167 10.553 129.413 10.3301 129.413 10.3301Z" fill="black"/>
<path d="M61.2854 11.3365C61.2854 11.3365 62.2432 11.3365 63.9195 11.225C65.5957 11.1135 68.1101 11.0021 70.9837 10.8906C76.8505 10.5562 84.6331 10.1104 92.4156 9.88743C96.3667 9.77597 100.198 9.88743 103.91 9.88743C107.622 9.88743 110.974 9.88743 113.967 9.99889C116.841 10.1104 119.355 10.1104 121.031 10.2218C122.708 10.3333 123.666 10.3333 123.666 10.3333C123.666 10.3333 122.708 10.3333 121.031 10.3333C119.355 10.3333 116.841 10.3333 113.967 10.3333C111.094 10.2218 107.622 10.3333 104.03 10.2218C100.318 10.2218 96.4865 10.1104 92.5353 10.2218C84.7528 10.3333 76.9702 10.8906 71.1034 11.1135C68.2298 11.225 65.7155 11.3365 64.0392 11.3365C62.2432 11.3365 61.2854 11.3365 61.2854 11.3365Z" fill="black"/>
<path d="M28.2393 7.55078C28.2393 7.55078 28.7182 7.55078 29.5563 7.55078C30.3944 7.55078 31.5917 7.66225 33.0285 7.77371C35.9021 7.99664 39.7335 8.66543 43.5649 9.44569C47.3963 10.1145 51.108 10.7833 53.9815 11.1177C55.4183 11.2291 56.6156 11.3406 57.4537 11.3406C58.2919 11.3406 58.7708 11.3406 58.7708 11.3406C58.7708 11.3406 58.2919 11.3406 57.4537 11.4521C56.6156 11.4521 55.4183 11.4521 53.9815 11.3406C51.108 11.0062 47.2766 10.3374 43.4452 9.66862C39.6138 8.99983 35.9021 8.33104 33.0285 7.99664C31.5917 7.77371 30.3944 7.66225 29.5563 7.66225C28.7182 7.55078 28.2393 7.55078 28.2393 7.55078Z" fill="black"/>
<path d="M24.1698 7.32617C24.1698 7.32617 24.6487 7.32617 25.2474 7.32617C25.7263 7.32617 26.3249 7.43764 26.3249 7.43764C26.3249 7.43764 25.846 7.43764 25.2474 7.5491C24.7684 7.5491 24.1698 7.66057 24.1698 7.66057C24.05 7.66057 24.05 7.66057 24.05 7.5491C24.05 7.43764 24.05 7.32617 24.1698 7.32617Z" fill="black"/>
<path d="M205.322 12.4492C205.322 12.4492 206.4 12.7836 207.358 13.0065C208.435 13.3409 209.393 13.6753 209.393 13.6753C209.513 13.6753 209.513 13.7868 209.513 13.8983C209.513 14.0097 209.393 14.0097 209.273 14.0097C209.273 14.0097 208.316 13.5639 207.238 13.2295C206.4 12.7836 205.322 12.4492 205.322 12.4492Z" fill="black"/>
<path d="M174.432 11.004C174.432 11.004 174.911 10.8925 175.629 10.781C176.467 10.6696 177.545 10.5581 178.862 10.3352C181.496 10.0008 185.207 9.88932 188.799 10.0008C192.391 10.1122 195.983 10.4466 198.737 10.8925C200.054 11.1154 201.132 11.3384 201.97 11.5613C202.688 11.7842 203.167 11.8957 203.167 11.8957C203.167 11.8957 202.688 11.7842 201.97 11.6728C201.252 11.5613 200.054 11.3384 198.737 11.1154C196.103 10.6696 192.511 10.3352 188.919 10.2237C185.327 10.1122 181.735 10.2237 178.981 10.4466C177.664 10.5581 176.467 10.6696 175.749 10.781C174.791 11.004 174.432 11.004 174.432 11.004Z" fill="black"/>
<path d="M130.011 9.2207C130.011 9.2207 132.645 9.2207 136.476 9.44363C138.392 9.5551 140.667 9.5551 143.061 9.66656C144.259 9.66656 145.576 9.77803 146.773 9.88949C148.09 10.001 149.288 10.1124 150.605 10.2239C155.753 10.6697 160.901 11.3385 164.733 11.45C166.649 11.5615 168.325 11.5615 169.402 11.45C170.48 11.45 171.198 11.3385 171.198 11.3385C171.198 11.3385 170.6 11.45 169.402 11.5615C168.325 11.6729 166.649 11.7844 164.733 11.6729C160.782 11.5615 155.753 11.0041 150.605 10.4468C149.288 10.3354 147.97 10.2239 146.773 10.1124C145.456 10.001 144.259 9.88949 143.061 9.88949C140.667 9.77803 138.392 9.66656 136.476 9.5551C132.525 9.44363 130.011 9.2207 130.011 9.2207Z" fill="black"/>
<path d="M61.1653 10.5575C61.1653 10.5575 62.2429 10.5575 64.0388 10.446C65.8348 10.3345 68.3492 10.2231 71.4622 10.1116C77.5685 9.66573 85.83 9.10841 93.9717 8.88548C98.0426 8.77401 102.233 8.88548 106.065 8.88548C109.896 8.88548 113.488 8.88548 116.601 8.99694C119.714 9.10841 122.228 9.10841 124.024 9.10841C125.82 9.21987 126.898 9.21987 126.898 9.21987C126.898 9.21987 125.82 9.21987 124.024 9.21987C122.228 9.21987 119.714 9.21987 116.601 9.21987C113.488 9.21987 109.896 9.10841 106.065 9.10841C102.233 9.10841 98.1623 9.10841 93.9717 9.10841C85.7103 9.21987 77.5685 10.0001 71.4622 10.2231C68.3492 10.3345 65.8348 10.446 64.0388 10.446C62.2429 10.5575 61.1653 10.5575 61.1653 10.5575Z" fill="black"/>
<path d="M29.916 6.54492C29.916 6.54492 31.712 6.54492 34.2264 6.87932C36.8604 7.10225 40.2129 7.65957 43.6851 8.32837C47.0376 8.99716 50.5098 9.55448 53.0242 10.0003C54.3413 10.2233 55.4188 10.3347 56.1372 10.4462C56.8556 10.5577 57.3345 10.5577 57.3345 10.5577C57.3345 10.5577 56.8556 10.5577 56.1372 10.5577C55.4188 10.5577 54.3413 10.4462 53.0242 10.3347C50.3901 10.0003 47.0376 9.33155 43.5654 8.77423C40.2129 8.10544 36.7407 7.54811 34.1066 7.21371C32.7896 6.99078 31.712 6.87932 30.9936 6.87932C30.3949 6.65639 29.916 6.54492 29.916 6.54492Z" fill="black"/>
<path d="M24.2887 6.31836C24.2887 6.31836 24.5281 6.31836 25.0071 6.31836C25.3663 6.31836 25.9649 6.31836 26.5636 6.42982C27.6412 6.42982 28.7187 6.54129 28.7187 6.54129C28.7187 6.54129 27.6412 6.54129 26.5636 6.54129C25.9649 6.54129 25.486 6.54129 25.0071 6.54129C24.6479 6.54129 24.2887 6.54129 24.2887 6.54129C24.1689 6.54129 24.1689 6.54129 24.1689 6.42982C24.1689 6.31836 24.2887 6.31836 24.2887 6.31836Z" fill="black"/>
<path d="M203.048 11.002C203.048 11.002 204.724 11.4478 206.4 11.8937C208.076 12.451 209.633 12.8969 209.633 12.8969C209.753 12.8969 209.753 13.0083 209.753 13.1198C209.753 13.2313 209.633 13.2313 209.513 13.2313C209.513 13.2313 207.957 12.6739 206.28 12.1166C204.724 11.5593 203.048 11.002 203.048 11.002Z" fill="black"/>
<path d="M178.743 9.55258C178.743 9.55258 179.102 9.55258 179.701 9.44111C180.299 9.32965 181.137 9.32965 182.215 9.21818C184.37 9.10672 187.124 8.99525 189.997 9.10672C192.871 9.21818 195.625 9.55258 197.66 9.88697C198.738 10.1099 199.576 10.2214 200.175 10.3328C200.773 10.4443 201.132 10.5558 201.132 10.5558C201.132 10.5558 200.773 10.5558 200.175 10.4443C199.576 10.3328 198.738 10.2214 197.66 10.1099C195.625 9.77551 192.751 9.55258 189.997 9.32965C187.244 9.21818 184.37 9.21818 182.335 9.32965C180.06 9.55258 178.743 9.55258 178.743 9.55258Z" fill="black"/>
<path d="M129.053 7.99219C129.053 7.99219 131.927 7.99219 136.118 8.21512C138.273 8.32658 140.787 8.43805 143.421 8.54951C146.055 8.66098 148.929 8.99537 151.683 9.21831C154.556 9.5527 157.31 9.8871 159.944 10.11C162.578 10.333 165.093 10.5559 167.248 10.5559C169.403 10.5559 171.079 10.4444 172.396 10.333C173.594 10.2215 174.312 10.2215 174.312 10.2215C174.312 10.2215 173.594 10.333 172.396 10.4444C171.199 10.5559 169.403 10.7788 167.248 10.7788C165.093 10.7788 162.578 10.6674 159.944 10.333C157.31 10.11 154.437 9.77563 151.683 9.44123C148.809 9.10684 146.055 8.77244 143.421 8.66098C140.787 8.54951 138.273 8.43805 136.118 8.32658C131.927 8.21512 129.053 7.99219 129.053 7.99219Z" fill="black"/>
<path d="M68.5889 9.33076C68.5889 9.33076 72.0611 9.10783 77.3293 8.66196C82.5975 8.2161 89.5419 7.77024 96.6061 7.77024C103.55 7.77024 110.615 7.65878 115.883 7.77024C118.517 7.77024 120.672 7.88171 122.229 7.88171C123.785 7.88171 124.623 7.99317 124.623 7.99317C124.623 7.99317 123.785 7.99317 122.229 7.99317C120.672 7.99317 118.517 7.99317 115.883 7.99317C110.615 7.99317 103.67 7.99317 96.6061 7.99317C89.6616 7.99317 82.5975 8.5505 77.449 8.88489C74.8149 8.99636 72.6597 9.21929 71.1032 9.21929C69.427 9.33076 68.5889 9.33076 68.5889 9.33076Z" fill="black"/>
<path d="M28.001 5.42969C28.001 5.42969 28.5996 5.42969 29.5575 5.42969C30.5153 5.42969 31.9521 5.54115 33.6284 5.76408C36.9808 6.09848 41.5306 6.87873 45.9607 7.65899C50.3908 8.43925 54.8208 9.33097 58.2931 9.33097C59.9693 9.44243 61.4061 9.44243 62.3639 9.44243C63.3218 9.44243 63.9204 9.5539 63.9204 9.5539C63.9204 9.5539 63.3218 9.66536 62.3639 9.66536C61.4061 9.66536 59.9693 9.77683 58.2931 9.66536C54.8208 9.66536 50.3908 8.77364 45.9607 7.99339C41.5306 7.10167 37.1006 6.43287 33.7481 5.98701C32.0718 5.76408 30.6351 5.65262 29.6772 5.54115C28.5996 5.54115 28.001 5.42969 28.001 5.42969Z" fill="black"/>
<path d="M24.5284 5.31641C24.5284 5.31641 25.0073 5.31641 25.606 5.31641C26.0849 5.31641 26.6836 5.42787 26.6836 5.42787C26.6836 5.42787 26.2047 5.42787 25.606 5.53934C25.1271 5.53934 24.5284 5.6508 24.5284 5.6508C24.4087 5.6508 24.4087 5.6508 24.4087 5.53934C24.4087 5.42787 24.4087 5.31641 24.5284 5.31641Z" fill="black"/>
<path d="M205.203 10.8926L209.633 12.2302C209.753 12.2302 209.753 12.3416 209.753 12.4531C209.753 12.5646 209.633 12.5646 209.513 12.5646L205.203 10.8926Z" fill="black"/>
<path d="M177.426 8.77507C177.426 8.77507 177.785 8.77507 178.384 8.66361C178.982 8.55214 179.94 8.44068 181.018 8.32921C183.173 8.10628 186.166 8.10628 189.04 8.21775C192.033 8.32921 194.907 8.66361 197.062 8.998C198.139 9.22093 199.097 9.3324 199.696 9.55533C200.294 9.77826 200.654 9.77826 200.654 9.77826C200.654 9.77826 200.294 9.77826 199.696 9.6668C199.097 9.55533 198.139 9.44387 197.062 9.3324C194.907 8.998 192.033 8.66361 189.04 8.55214C186.166 8.44068 183.173 8.44068 181.018 8.55214C179.94 8.55214 178.982 8.66361 178.384 8.77507C177.785 8.77507 177.426 8.77507 177.426 8.77507Z" fill="black"/>
<path d="M130.012 6.87891C130.012 6.87891 132.646 6.87891 136.477 7.10184C138.393 7.2133 140.668 7.2133 143.182 7.32477C144.38 7.32477 145.697 7.43623 146.894 7.5477C148.211 7.65916 149.408 7.77063 150.725 7.99356C155.874 8.66235 161.022 9.4426 164.973 9.55407C166.889 9.66554 168.565 9.66554 169.643 9.66554C170.72 9.66554 171.439 9.66554 171.439 9.66554C171.439 9.66554 170.84 9.777 169.643 9.88847C168.565 9.99993 166.889 9.99993 164.973 9.88847C161.022 9.66554 155.874 8.88528 150.725 8.32795C149.408 8.21649 148.091 7.99356 146.894 7.88209C145.577 7.77063 144.38 7.65916 143.182 7.65916C140.788 7.5477 138.513 7.43623 136.477 7.32477C132.526 6.99037 130.012 6.87891 130.012 6.87891Z" fill="black"/>
<path d="M63.2017 8.66444C63.2017 8.66444 64.1595 8.55297 65.9555 8.55297C67.7515 8.44151 70.1461 8.33004 73.1394 8.10711C79.1259 7.66125 87.148 6.99246 95.0502 6.881C103.072 6.76953 111.094 6.76953 117.081 6.76953C120.074 6.76953 122.588 6.881 124.384 6.881C126.18 6.881 127.138 6.99246 127.138 6.99246C127.138 6.99246 126.18 6.99246 124.384 7.10393C122.588 7.10393 120.194 7.10393 117.081 7.21539C111.094 7.21539 103.072 7.21539 95.0502 7.32686C87.0282 7.43832 79.1259 8.10711 73.1394 8.44151C70.1461 8.66444 67.6317 8.77591 65.9555 8.77591C64.2792 8.66444 63.2017 8.66444 63.2017 8.66444Z" fill="black"/>
<path d="M30.3948 4.53906C30.3948 4.53906 30.8737 4.53906 31.7118 4.65053C32.5499 4.65053 33.7473 4.76199 35.184 4.98492C38.0576 5.31932 41.7693 5.98811 45.4809 6.6569C49.1926 7.32569 52.9043 8.10595 55.7779 8.44034C57.2146 8.66327 58.412 8.66327 59.2501 8.77474C60.0882 8.88621 60.5671 8.8862 60.5671 8.8862C60.5671 8.8862 60.0882 8.8862 59.2501 8.8862C58.412 8.8862 57.2146 8.88621 55.7779 8.77474C52.9043 8.44034 49.1926 7.77155 45.4809 6.9913C41.7693 6.21104 37.9379 5.65371 35.184 5.20785C33.7473 4.98492 32.5499 4.87346 31.7118 4.76199C30.8737 4.53906 30.3948 4.53906 30.3948 4.53906Z" fill="black"/>
<path d="M24.6483 4.3125C24.6483 4.3125 24.8878 4.3125 25.247 4.3125C25.6062 4.3125 26.0851 4.3125 26.564 4.42397C27.5219 4.53543 28.4797 4.53543 28.4797 4.53543C28.4797 4.53543 27.5219 4.53543 26.564 4.53543C26.0851 4.53543 25.6062 4.53543 25.247 4.53543C24.8878 4.53543 24.6483 4.53543 24.6483 4.53543C24.5286 4.53543 24.5286 4.53543 24.5286 4.42397C24.5286 4.3125 24.6483 4.3125 24.6483 4.3125Z" fill="black"/>
<path d="M201.97 9.2207C201.97 9.2207 203.886 9.77803 205.921 10.3354C206.879 10.5583 207.837 10.8927 208.555 11.1156C209.274 11.3385 209.753 11.45 209.753 11.45C209.872 11.45 209.872 11.5615 209.872 11.6729C209.872 11.7844 209.753 11.7844 209.633 11.7844C209.633 11.7844 209.154 11.5615 208.436 11.3385C207.717 11.1156 206.759 10.7812 205.802 10.4468C203.886 9.77803 201.97 9.2207 201.97 9.2207Z" fill="black"/>
<path d="M176.947 7.88426C176.947 7.88426 178.264 7.66133 180.3 7.54986C182.335 7.32693 185.089 7.21547 187.843 7.32693C190.597 7.4384 193.231 7.66133 195.266 7.99572C197.302 8.33012 198.619 8.66451 198.619 8.66451C198.619 8.66451 197.302 8.55305 195.266 8.21865C193.231 7.88426 190.597 7.66133 187.843 7.54986C185.089 7.4384 182.455 7.54986 180.419 7.66133C178.264 7.88426 176.947 7.88426 176.947 7.88426Z" fill="black"/>
<path d="M129.413 5.65039C129.413 5.65039 132.286 5.65039 136.477 5.76186C138.632 5.76186 141.147 5.87332 143.781 6.09625C146.415 6.31918 149.288 6.65358 152.042 7.09944C154.796 7.5453 157.669 7.99116 160.304 8.21409C162.938 8.54849 165.452 8.77142 167.487 8.77142C169.643 8.77142 171.439 8.65995 172.636 8.65995C173.833 8.65995 174.552 8.54849 174.552 8.54849C174.552 8.54849 173.833 8.65995 172.636 8.77142C171.439 8.88288 169.643 9.10581 167.487 9.10581C165.332 9.10581 162.818 8.88288 160.184 8.54849C157.55 8.21409 154.796 7.76823 151.922 7.32237C149.169 6.87651 146.295 6.54211 143.661 6.31918C141.027 6.09625 138.512 5.98479 136.357 5.87332C132.167 5.76186 129.413 5.65039 129.413 5.65039Z" fill="black"/>
<path d="M69.1875 7.3246C69.1875 7.3246 72.6597 6.9902 77.9279 6.54434C83.1961 6.09848 90.2602 5.65262 97.2047 5.65262C104.269 5.54115 111.333 5.54115 116.601 5.42969C119.235 5.42969 121.39 5.42969 122.947 5.42969C124.503 5.42969 125.342 5.42969 125.342 5.42969C125.342 5.42969 124.503 5.42969 122.947 5.54115C121.39 5.54115 119.235 5.65262 116.601 5.65262C111.333 5.65262 104.269 5.76408 97.2047 5.76408C93.7325 5.76408 90.1405 5.87555 86.9078 6.09848C83.675 6.32141 80.562 6.43287 77.9279 6.6558C75.2938 6.87874 73.1386 6.9902 71.5821 7.10167C70.1454 7.3246 69.1875 7.3246 69.1875 7.3246Z" fill="black"/>
<path d="M29.3181 3.42383C29.3181 3.42383 29.9168 3.42383 30.8746 3.42383C31.8325 3.42383 33.2693 3.53529 35.0652 3.75822C38.5374 4.09262 43.0872 4.98434 47.5173 5.87606C49.7922 6.32192 52.0671 6.76778 54.1025 7.10218C55.1801 7.21364 56.2577 7.43657 57.2156 7.43657C58.1734 7.43657 59.1313 7.54804 59.9694 7.54804C63.4416 7.54804 65.7165 7.6595 65.7165 7.6595C65.7165 7.6595 63.4416 7.77097 59.9694 7.77097C59.1313 7.77097 58.1734 7.6595 57.2156 7.6595C56.2577 7.6595 55.1801 7.43657 54.1025 7.32511C51.9474 6.99071 49.6725 6.54485 47.3976 6.09899C45.1227 5.65313 42.8478 5.20727 40.8123 4.87288C38.6572 4.53848 36.7415 4.20408 34.9455 3.98115C33.2693 3.75822 31.8325 3.64676 30.7549 3.53529C29.9168 3.42383 29.3181 3.42383 29.3181 3.42383Z" fill="black"/>
<path d="M24.8878 3.30859C24.8878 3.30859 25.7259 3.30859 26.564 3.30859C27.4022 3.30859 28.2403 3.42006 28.2403 3.42006C28.2403 3.42006 27.4022 3.42006 26.564 3.42006C25.7259 3.42006 24.8878 3.53152 24.8878 3.53152C24.7681 3.53152 24.7681 3.53152 24.7681 3.42006C24.7681 3.30859 24.7681 3.30859 24.8878 3.30859Z" fill="black"/>
<path d="M26.6829 15.016C26.6829 15.016 26.5632 14.9045 26.4434 14.6816C26.3237 14.4587 26.204 14.0128 26.4434 13.567C26.5632 13.4555 26.5632 13.344 26.8026 13.2326C26.9224 13.2326 26.9224 13.1211 27.0421 13.1211H27.1618C27.1618 13.1211 27.2815 13.1211 27.4013 13.2326C27.521 13.4555 27.6407 13.6784 27.7605 14.0128C27.9999 14.5701 28.1197 15.2389 28.1197 15.7963C28.2394 17.0224 28.1197 18.2485 28.3591 19.1402C28.4789 19.5861 28.5986 19.9205 28.5986 20.1434C28.7183 20.3663 28.7183 20.5893 28.7183 20.5893C28.7183 20.5893 28.5986 20.4778 28.4789 20.2549C28.3591 20.0319 28.1197 19.6975 27.9999 19.2517C27.7605 18.36 27.7605 17.1338 27.7605 15.9077C27.7605 15.3504 27.6407 14.6816 27.4013 14.2357C27.2815 14.0128 27.1618 13.6784 27.0421 13.567C27.0421 13.567 27.0421 13.567 26.9224 13.567H26.8026C26.6829 13.567 26.6829 13.6784 26.5632 13.7899C26.3237 14.1243 26.4434 14.5701 26.4434 14.7931C26.5632 14.7931 26.6829 15.016 26.6829 15.016Z" fill="black"/>
<path d="M138.871 25.2703C138.871 25.2703 139.35 24.4901 140.068 23.3754C140.907 22.2608 141.984 20.9232 143.301 19.5856C143.9 18.9168 144.618 18.3595 145.337 17.8022C145.696 17.5792 146.055 17.3563 146.414 17.1334C146.773 16.9104 147.133 16.799 147.492 16.6875C147.611 16.6875 147.971 16.6875 148.09 16.9104C148.09 17.1334 148.09 17.2448 148.09 17.3563C148.09 17.5792 148.09 17.8022 147.971 18.0251C147.971 18.3595 147.851 18.5824 147.851 18.5824C147.851 18.5824 147.851 18.3595 147.851 18.0251C147.851 17.8022 147.851 17.5792 147.851 17.3563C147.851 17.2448 147.851 17.0219 147.851 17.0219C147.851 16.9104 147.731 16.9104 147.611 16.9104C147.252 16.9104 147.013 17.1334 146.654 17.3563C146.294 17.5792 145.935 17.8022 145.696 18.0251C144.977 18.5824 144.379 19.1397 143.66 19.8085C142.343 21.0346 141.146 22.4837 140.308 23.4869C139.47 24.6015 138.871 25.2703 138.871 25.2703Z" fill="black"/>
<path d="M160.184 29.3918C160.184 29.3918 160.424 29.1688 160.783 28.723C161.142 28.2771 161.741 27.7198 162.459 26.9395C163.776 25.4905 165.692 23.5956 167.607 21.8121C168.565 20.9204 169.523 19.9172 170.481 19.137C170.96 18.6911 171.439 18.3567 171.798 17.9108C172.038 17.6879 172.157 17.5764 172.516 17.3535C172.636 17.3535 172.636 17.3535 172.756 17.3535C172.876 17.3535 172.995 17.465 172.995 17.465C173.115 17.5764 173.115 17.7994 173.115 17.9108C172.995 18.4682 172.876 18.8026 172.756 19.2484C172.636 19.5828 172.516 19.9172 172.397 20.1401C172.157 20.6975 172.038 20.9204 172.038 20.9204C172.038 20.9204 172.157 20.586 172.277 20.0287C172.397 19.8057 172.516 19.4714 172.636 19.0255C172.756 18.6911 172.876 18.2452 172.995 17.7994C172.995 17.6879 172.995 17.5764 172.995 17.5764C172.995 17.5764 172.995 17.5764 172.876 17.5764H172.756C172.636 17.6879 172.397 17.9108 172.157 18.0223C171.678 18.3567 171.319 18.8026 170.84 19.2484C169.882 20.1401 168.924 21.0319 167.967 21.9236C166.051 23.8185 164.135 25.6019 162.698 27.051C161.262 28.5 160.184 29.3918 160.184 29.3918Z" fill="black"/>
<path d="M56.3768 28.1709C56.3768 28.1709 55.4189 27.2792 53.9822 25.8301C52.5454 24.4926 50.6297 22.5977 48.714 20.8142C47.7561 19.9225 46.7983 19.0308 45.8404 18.139C45.3615 17.6932 45.0023 17.2473 44.5234 16.9129L44.1642 16.69L44.0444 16.5785C44.0444 16.5785 44.0444 16.5785 43.9247 16.5785C43.805 16.5785 43.6853 16.5785 43.6853 16.5785C43.6853 16.4671 43.6853 16.69 43.805 16.8015C44.4036 18.6964 44.5234 19.9225 44.5234 19.9225C44.5234 19.9225 44.0444 18.6964 43.4458 16.9129V16.69C43.4458 16.69 43.3261 16.4671 43.4458 16.3556C43.6853 16.2441 43.805 16.2441 43.9247 16.2441C44.0444 16.2441 44.1642 16.2441 44.1642 16.3556L44.2839 16.4671L44.6431 16.8015C45.0023 17.2473 45.4812 17.5817 45.9602 18.0276C46.918 18.9193 47.8759 19.811 48.8337 20.7027C50.7494 22.4862 52.6651 24.3811 54.1019 25.8301C55.5387 27.1677 56.3768 28.1709 56.3768 28.1709Z" fill="black"/>
<path d="M38.8952 168.502C38.8952 168.502 38.8952 168.613 39.0149 168.948C39.0149 169.059 39.0149 169.282 39.1346 169.394C39.2544 169.617 39.2544 169.728 39.3741 169.951C39.6136 170.397 39.7333 170.843 40.0925 171.4C40.4517 171.957 40.8109 172.403 41.2898 172.849C42.1279 173.852 43.0858 174.744 43.5647 175.636C43.8042 176.082 43.9239 176.416 44.0436 176.75C44.0436 176.973 44.0436 177.196 44.0436 177.196C44.0436 177.196 44.0436 177.085 43.9239 176.75C43.8042 176.527 43.6844 176.082 43.3253 175.747C42.7266 174.967 41.7687 174.075 40.9306 173.072C40.4517 172.626 40.0925 172.069 39.7333 171.512C39.3741 170.954 39.1346 170.508 38.8952 170.062C38.7755 169.84 38.7755 169.617 38.6557 169.394C38.536 169.171 38.536 169.059 38.536 168.948C38.536 168.725 38.4163 168.502 38.4163 168.502H38.8952Z" fill="black"/>
<path d="M189.039 159.25C189.039 159.25 189.039 159.361 188.919 159.696C188.919 159.919 188.8 160.365 188.56 160.811C188.201 161.702 187.363 162.817 186.525 163.932C186.166 164.489 185.687 164.935 185.327 165.492C184.968 165.938 184.729 166.495 184.489 166.941C184.37 167.164 184.37 167.387 184.37 167.61C184.37 167.833 184.25 167.944 184.25 168.056C184.25 168.39 184.25 168.502 184.25 168.502C184.25 168.502 184.25 168.39 184.13 168.056C184.13 167.944 184.13 167.721 184.13 167.498C184.13 167.276 184.25 167.053 184.25 166.83C184.489 165.826 185.327 164.712 186.166 163.709C187.004 162.705 187.722 161.591 188.081 160.699C188.201 160.476 188.201 160.253 188.321 160.142C188.44 159.919 188.44 159.807 188.44 159.696C188.56 159.473 188.56 159.25 188.56 159.25H189.039Z" fill="black"/>
<path d="M191.553 184.439C191.553 184.439 191.553 184.551 191.433 184.774C191.314 184.997 191.194 185.443 191.074 185.777C190.715 186.557 189.997 187.56 189.278 188.452C188.919 188.898 188.56 189.455 188.32 189.901C187.961 190.347 187.722 190.793 187.602 191.239C187.482 191.685 187.363 192.019 187.363 192.242C187.363 192.465 187.363 192.688 187.363 192.688C187.363 192.688 187.363 192.576 187.363 192.242C187.363 192.019 187.363 191.573 187.482 191.239C187.722 190.347 188.44 189.344 189.159 188.452C189.877 187.449 190.595 186.557 190.954 185.777C191.194 185.443 191.314 185.108 191.314 184.885C191.433 184.662 191.433 184.551 191.433 184.551L191.553 184.439Z" fill="black"/>
<path d="M189.039 27.0518C189.039 27.0518 189.039 26.9404 189.159 26.8289C189.278 26.7174 189.398 26.383 189.637 26.1601C189.877 25.9372 190.116 25.6028 190.476 25.3798C190.835 25.0454 191.314 24.8225 191.793 24.4881C193.708 23.262 196.582 21.813 199.336 20.4754C200.054 20.141 200.773 19.8066 201.371 19.4722C202.09 19.1378 202.808 18.8034 203.526 18.6919C203.766 18.6919 203.886 18.5805 204.125 18.8034C204.364 19.0263 204.364 19.2493 204.245 19.3607C204.125 19.6951 204.005 20.0295 203.886 20.3639C203.646 20.9212 203.287 21.4786 203.047 21.9244C201.97 23.8193 201.012 25.0454 201.012 25.0454C201.012 25.0454 201.611 23.7079 202.808 21.813C203.047 21.3671 203.407 20.8098 203.646 20.2524C203.886 19.8066 204.364 18.8034 203.526 19.0263C202.808 19.1378 202.209 19.4722 201.491 19.8066C200.773 20.141 200.054 20.4754 199.455 20.8098C196.702 22.1473 193.948 23.5964 191.912 24.711C190.955 25.2684 190.116 25.8257 189.637 26.383C189.398 26.606 189.278 26.8289 189.159 26.9404L189.039 27.0518Z" fill="black"/>
<path d="M37.8174 107.752C37.8174 107.752 37.9372 108.086 38.1766 108.644C38.4161 109.201 38.895 109.87 39.2542 110.539C39.4937 110.873 39.6134 111.207 39.7331 111.653C39.8529 111.988 39.9726 112.322 39.9726 112.656C39.9726 112.991 39.9726 113.214 39.8529 113.437C39.7332 113.548 39.7331 113.66 39.7331 113.66C39.7331 113.66 39.7331 113.548 39.7331 113.437C39.7331 113.214 39.7331 112.991 39.7331 112.768C39.6134 112.211 39.2542 111.43 38.895 110.762C38.5358 110.093 38.0569 109.424 37.8174 108.867C37.6977 108.644 37.578 108.309 37.578 108.198C37.578 107.975 37.4583 107.975 37.4583 107.975L37.8174 107.752Z" fill="black"/>
<path d="M38.1765 145.875C38.1765 145.875 38.1765 145.764 38.2962 145.541C38.2962 145.318 38.416 145.095 38.5357 144.761C38.7752 144.092 39.1344 143.312 39.4936 142.531C39.8528 141.751 40.3317 140.971 40.5711 140.413C40.6909 140.079 40.6909 139.856 40.6909 139.633C40.6909 139.41 40.5711 139.299 40.5711 139.299C40.5711 139.299 40.5711 139.41 40.6909 139.633C40.6909 139.856 40.8106 140.079 40.6909 140.413C40.5711 141.082 40.0922 141.863 39.733 142.643C39.3738 143.423 39.0146 144.203 38.7752 144.872C38.6554 145.206 38.6554 145.429 38.5357 145.652C38.5357 145.875 38.416 145.987 38.416 145.987L38.1765 145.875Z" fill="black"/>
<path d="M42.6077 68.6289C42.6077 68.6289 42.8472 69.0748 43.2064 69.855C43.5656 70.5238 44.0445 71.527 44.284 72.5302C44.6432 73.5334 44.7629 74.648 44.6432 75.4283C44.6432 75.8741 44.5234 76.0971 44.4037 76.32C44.284 76.5429 44.284 76.6544 44.284 76.6544C44.284 76.6544 44.4037 76.0971 44.4037 75.3168C44.4037 74.5366 44.284 73.5334 43.9248 72.5302C43.5656 71.527 43.2064 70.6353 42.8472 69.855C42.488 69.1862 42.2485 68.6289 42.2485 68.6289H42.6077Z" fill="black"/>
<path d="M38.7757 198.484C38.7757 198.484 38.8955 198.819 39.0152 199.488C39.0152 199.822 39.1349 200.156 39.3744 200.602C39.4941 201.048 39.7336 201.382 40.0928 201.828C40.452 202.274 40.8112 202.72 41.4098 202.943L41.769 203.166L42.248 203.389C42.6071 203.5 42.8466 203.723 43.2058 203.835C44.5228 204.281 46.0794 204.615 47.5161 205.061C49.0726 205.395 50.5094 205.953 51.8265 206.398C52.5449 206.733 53.1435 206.956 53.7422 207.29C54.3408 207.625 54.9395 207.847 55.4184 208.182C55.8973 208.516 56.3763 208.739 56.7355 209.074C57.0947 209.408 57.4539 209.631 57.6933 209.854C58.1722 210.3 58.4117 210.523 58.4117 210.523C58.4117 210.523 58.0525 210.3 57.5736 209.965C57.3341 209.742 56.9749 209.519 56.6157 209.297C56.2565 209.074 55.7776 208.739 55.2987 208.516C54.8198 208.182 54.2211 207.959 53.6224 207.625C53.0238 207.29 52.4251 207.067 51.7067 206.844C50.3897 206.287 48.9529 205.841 47.3964 205.507C45.9596 205.061 44.4031 204.726 42.9663 204.281C42.6071 204.169 42.248 204.058 42.0085 203.835L41.5296 203.612L41.0506 203.389C40.452 203.054 40.0928 202.609 39.6139 202.163C39.3744 201.717 39.0152 201.271 38.8955 200.825C38.7757 200.379 38.656 200.045 38.656 199.71C38.7757 198.93 38.7757 198.484 38.7757 198.484Z" fill="black"/>
<path d="M92.0566 211.641C92.0566 211.641 92.1764 211.641 92.5356 211.53C92.775 211.53 93.254 211.419 93.7329 211.53C94.6907 211.53 96.0078 211.753 97.2051 212.087C98.4024 212.422 99.5997 212.756 100.558 212.868C101.515 213.091 102.114 213.091 102.114 213.091V213.313C102.114 213.313 101.515 213.313 100.558 213.091C99.5997 212.868 98.4024 212.533 97.2051 212.31C96.0078 211.976 94.8105 211.753 93.8526 211.641C92.775 211.53 92.0566 211.641 92.0566 211.641Z" fill="black"/>
<path d="M120.793 211.53C120.793 211.53 120.194 211.53 119.476 211.53C118.638 211.53 117.56 211.753 116.602 212.087C115.644 212.421 114.567 212.867 113.848 212.979C113.01 213.202 112.531 213.202 112.531 213.202V212.979C112.531 212.979 113.01 212.867 113.848 212.644C114.567 212.421 115.644 212.087 116.602 211.753C117.68 211.418 118.757 211.307 119.595 211.307C119.955 211.307 120.314 211.418 120.553 211.418C120.673 211.53 120.793 211.53 120.793 211.53Z" fill="black"/>
<path d="M142.823 212.203C142.823 212.203 142.942 212.203 143.182 212.203C143.421 212.203 143.781 212.203 144.14 212.203C144.978 212.203 145.936 212.426 146.894 212.649C147.851 212.872 148.929 213.095 149.647 213.206C150.007 213.206 150.366 213.206 150.486 213.206C150.725 213.206 150.845 213.095 150.845 213.095L150.965 213.318C150.965 213.318 150.845 213.318 150.605 213.429C150.366 213.429 150.007 213.429 149.647 213.429C148.809 213.318 147.851 213.095 146.894 212.872C145.936 212.649 144.858 212.426 144.14 212.315C143.302 212.315 142.823 212.203 142.823 212.203Z" fill="black"/>
<path d="M74.5764 213.645C74.5764 213.645 74.6961 213.645 74.9356 213.645C75.1751 213.645 75.4145 213.645 75.7737 213.645C76.1329 213.645 76.4921 213.645 76.971 213.756C77.45 213.867 77.8092 213.979 78.2881 214.09C79.1262 214.425 80.0841 214.759 80.6827 214.871C81.4011 214.982 81.7603 214.982 81.7603 214.982V215.205C81.7603 215.205 81.2814 215.205 80.563 215.094C79.8446 214.982 79.0065 214.536 78.1684 214.313C77.6894 214.202 77.3302 213.979 76.8513 213.979C76.4921 213.867 76.0132 213.867 75.654 213.756C75.0553 213.645 74.5764 213.645 74.5764 213.645Z" fill="black"/>
<path d="M35.5437 216.321C35.5437 216.321 36.9805 216.321 38.537 216.098C39.2554 215.987 39.9738 215.875 40.5724 215.764C41.1711 215.652 41.5303 215.652 41.5303 215.652C41.5303 215.652 41.1711 215.764 40.6922 215.987C40.2132 216.098 39.3751 216.321 38.6567 216.433C37.9383 216.544 37.2199 216.656 36.6213 216.656C36.0226 216.656 35.6634 216.656 35.6634 216.656L35.5437 216.321Z" fill="black"/>
<path d="M124.503 21.8143C124.503 21.8143 124.623 21.5914 124.742 21.1455C124.862 20.6997 125.102 20.0309 125.461 19.2506C125.7 18.9162 125.82 18.4704 126.299 18.0245C126.538 17.8016 126.898 17.8016 127.137 17.9131C127.376 18.0245 127.616 18.2475 127.855 18.4704C128.574 19.3621 128.933 20.4768 129.053 21.5914C129.172 22.7061 129.172 23.8207 129.053 24.9354C128.933 25.9386 128.813 26.9417 128.694 27.722C128.454 29.394 128.095 30.3972 128.095 30.3972C128.095 30.3972 128.095 30.0628 128.095 29.6169C128.095 29.171 128.215 28.3908 128.334 27.6105C128.574 25.9386 128.933 23.7093 128.694 21.5914C128.574 20.4768 128.215 19.4736 127.616 18.5819C127.257 18.2475 126.778 17.8016 126.419 18.136C126.059 18.3589 125.82 18.8048 125.7 19.1392C125.341 19.9194 125.102 20.5882 124.862 21.0341C124.742 21.5914 124.503 21.8143 124.503 21.8143Z" fill="black"/>
<path d="M84.274 22.0408C84.274 22.0408 84.274 21.8178 84.1542 21.4834C84.0345 21.1491 83.9148 20.7032 83.795 20.1459C83.795 19.8115 83.6753 19.5885 83.6753 19.2541C83.6753 18.9198 83.6753 18.5854 83.795 18.1395C83.9148 17.6936 84.5134 17.4707 84.8726 17.4707C85.3515 17.4707 85.8305 17.5822 86.0699 17.9166C86.7883 18.4739 87.1475 19.1427 87.6264 19.8115C87.9856 20.4803 88.2251 21.1491 88.4646 21.5949C88.9435 22.7096 89.0632 23.4898 89.0632 23.4898C89.0632 23.4898 88.704 22.821 88.2251 21.7064C87.9856 21.1491 87.7462 20.5917 87.387 19.9229C87.0278 19.2541 86.5489 18.5854 85.9502 18.1395C85.591 17.9166 85.3515 17.8051 84.8726 17.8051C84.5134 17.8051 84.1542 17.9166 84.0345 18.251C83.9148 18.5854 83.9148 18.9198 83.9148 19.2541C83.9148 19.5885 83.9148 19.9229 84.0345 20.1459C84.1542 20.7032 84.1542 21.1491 84.274 21.4834C84.274 21.8178 84.274 22.0408 84.274 22.0408Z" fill="black"/>
<path d="M181.017 22.036C181.017 22.036 181.137 21.8131 181.376 21.3673C181.616 20.9214 181.975 20.3641 182.454 19.8067C182.693 19.4723 183.053 19.138 183.292 18.8036C183.651 18.4692 184.01 18.1348 184.729 18.1348C185.447 18.2462 185.687 18.8036 185.926 19.2494C186.166 19.6953 186.285 20.2526 186.166 20.8099C186.166 21.3673 185.926 21.9246 185.806 22.3704C185.567 22.8163 185.327 23.2622 185.088 23.708C184.609 24.5997 184.01 25.2685 183.531 25.9373C182.454 27.1634 181.735 27.9437 181.735 27.9437C181.735 27.9437 181.855 27.7208 182.095 27.2749C182.334 26.9405 182.693 26.3832 183.292 25.7144C183.771 25.0456 184.37 24.3768 184.848 23.4851C185.088 23.0392 185.327 22.5934 185.567 22.1475C185.806 21.7017 185.926 21.2558 185.926 20.6985C185.926 20.2526 185.926 19.6953 185.687 19.2494C185.447 18.8036 185.208 18.3577 184.729 18.2462C184.25 18.2462 183.891 18.5806 183.531 18.8036C183.172 19.138 182.933 19.3609 182.574 19.6953C182.095 20.2526 181.616 20.8099 181.376 21.2558C181.137 21.8131 181.017 22.036 181.017 22.036Z" fill="black"/>
<path d="M194.308 198.598C194.308 198.598 194.308 198.709 194.188 198.932C194.068 199.155 193.948 199.378 193.709 199.712C193.23 200.27 192.631 200.938 191.913 201.607C191.195 202.276 190.476 202.833 189.997 203.279C189.758 203.502 189.758 203.837 189.758 204.059C189.758 204.282 189.878 204.394 189.878 204.394C189.878 204.394 189.878 204.282 189.758 204.059C189.758 203.948 189.758 203.837 189.758 203.725C189.758 203.614 189.878 203.391 189.878 203.279C190.237 202.61 190.955 202.053 191.674 201.384C192.033 201.05 192.392 200.715 192.631 200.493C192.991 200.158 193.23 199.824 193.35 199.601C193.589 199.378 193.709 199.155 193.829 198.932C193.948 198.709 193.948 198.709 193.948 198.709L194.308 198.598Z" fill="black"/>
<path d="M200.653 202.393C200.653 202.393 200.773 202.616 200.773 203.061C200.773 203.507 200.533 204.065 200.294 204.51C200.054 204.956 199.695 205.402 199.456 205.848C199.216 206.182 199.336 206.517 199.336 206.517C199.336 206.517 199.336 206.517 199.216 206.294C199.216 206.182 199.096 205.959 199.216 205.737C199.336 205.291 199.695 204.845 199.934 204.399C200.174 203.953 200.294 203.396 200.294 203.061C200.294 202.727 200.294 202.393 200.294 202.393H200.653Z" fill="black"/>
<path d="M196.942 206.512C196.942 206.512 196.822 206.512 196.702 206.623C196.582 206.623 196.343 206.735 196.104 206.958C195.744 207.292 195.265 207.849 195.026 208.407C194.667 208.964 194.427 209.633 194.068 210.079C193.948 210.302 193.709 210.413 193.589 210.525C193.469 210.636 193.35 210.636 193.35 210.636L193.23 210.413C193.23 210.413 193.35 210.413 193.469 210.302C193.589 210.19 193.709 210.079 193.829 209.856C194.188 209.41 194.427 208.853 194.786 208.184C195.146 207.515 195.505 206.958 196.104 206.623C196.343 206.512 196.582 206.4 196.702 206.4C196.822 206.512 196.942 206.512 196.942 206.512Z" fill="black"/>
<path d="M33.7479 201.053C33.7479 201.053 33.7479 201.164 33.7479 201.276C33.7479 201.387 33.8676 201.499 33.9873 201.722C34.2268 202.167 34.586 202.613 34.8255 203.171C35.1846 203.728 35.4241 204.285 35.5438 204.731C35.5438 205.177 35.4241 205.511 35.4241 205.511C35.4241 205.511 35.4241 205.177 35.3044 204.731C35.1846 204.285 34.9452 203.728 34.586 203.282C34.2268 202.725 33.8676 202.279 33.6281 201.833C33.5084 201.61 33.5084 201.387 33.3887 201.276C33.3887 201.164 33.3887 201.053 33.3887 201.053H33.7479Z" fill="black"/>
<path d="M32.4304 209.635C32.4304 209.635 32.4304 209.746 32.4304 209.858C32.4304 209.969 32.4304 210.192 32.4304 210.415C32.4304 210.638 32.5501 210.861 32.7896 211.084C32.9093 211.307 33.2685 211.418 33.508 211.53C33.7474 211.641 34.1066 211.753 34.3461 211.976C34.5855 212.087 34.825 212.31 34.9447 212.533C35.0645 212.756 35.0645 212.979 35.0645 213.09C35.0645 213.202 35.0645 213.313 35.0645 213.313C35.0645 213.313 35.0645 213.202 35.0645 213.09C35.0645 212.979 35.0645 212.979 34.9447 212.867C34.9447 212.756 34.825 212.644 34.825 212.644C34.5855 212.31 33.9869 212.087 33.3882 211.864C33.1488 211.753 32.7896 211.53 32.5501 211.307C32.3106 211.084 32.1909 210.749 32.1909 210.526C32.1909 210.304 32.1909 210.081 32.1909 209.969C32.1909 209.858 32.1909 209.746 32.1909 209.746L32.4304 209.635Z" fill="black"/>
<line x1="84.4148" y1="228.492" x2="149.193" y2="228.492" stroke="black"/>
<line x1="0.114502" y1="237.365" x2="94.176" y2="237.365" stroke="black"/>
<line x1="134.995" y1="237.365" x2="229.057" y2="237.365" stroke="black"/>
</svg>
