<svg width="300" height="315" viewBox="0 0 300 315" fill="none" xmlns="http://www.w3.org/2000/svg">
<path d="M241.186 31.0715C241.186 37.9715 231.714 44.2715 216.243 48.9858C198.843 54.3001 173.814 57.6001 145.957 57.6001C118.143 57.6001 93.0714 54.2573 75.6714 48.9858C72.1571 47.9144 68.9429 46.7573 66.1143 45.5573C66.0714 45.5573 66.0714 45.5144 66.0286 45.5144C65.6428 45.343 65.2571 45.1715 64.9143 45.0001C64.7429 44.9144 64.5286 44.8287 64.3571 44.743C64.0571 44.6144 63.8 44.4858 63.5429 44.3573C63.3286 44.2287 63.0714 44.143 62.8571 44.0144C62.8143 44.0144 62.8143 43.9715 62.7714 43.9715C62.5571 43.843 62.3 43.7573 62.0857 43.6287C61.8286 43.5001 61.6143 43.3715 61.3571 43.243C61.1429 43.1573 60.9714 43.0287 60.8 42.943C60.8 42.943 60.8 42.943 60.7571 42.943C60.5857 42.8573 60.3714 42.7287 60.2 42.6001C59.9857 42.4715 59.8143 42.343 59.6 42.2573C59.4714 42.1715 59.3 42.0858 59.1714 42.0001C54.3714 39.043 51.4571 35.7858 50.8571 32.3144C50.8143 32.0573 50.7714 31.8001 50.7714 31.543V31.0715C50.7714 16.4144 93.4143 4.54297 146 4.54297C198.586 4.54297 241.186 16.4144 241.186 31.0715Z" stroke="black" stroke-miterlimit="10"/>
<path d="M241.443 66.0429C241.4 65.7858 241.357 65.5715 241.314 65.3143H241.057C241.057 65.3143 241.057 65.3143 241.057 65.3572C241.271 65.4429 241.314 65.4858 241.057 65.5286C241.057 65.6143 241.014 66.0429 241.057 66.1286V67.8001C240.629 71.5715 237.329 75.1715 231.329 78.5572C215.129 87.6429 182.471 93.3001 146.086 93.3001C109.829 93.3001 76.2286 87.4286 60.4571 78.3429C54.5 74.9143 51.3286 71.2286 51.0714 67.4572V32.9143C51.0714 32.9143 51.1143 32.9143 51.1143 32.9572C51.0286 32.8286 50.9857 32.6572 50.9857 32.4858C50.9857 32.4001 50.9857 32.3572 50.9857 32.2715L50.6429 32.3143V67.4572C50.9 71.4001 54.1143 75.2143 60.2429 78.7286C76.3571 87.9858 109.229 93.7286 146.086 93.7286C182.557 93.7286 215.3 88.0715 231.543 78.9429C237.671 75.5143 241.014 71.7858 241.486 67.8429L241.443 66.0429Z" fill="black" stroke="black" stroke-width="0.63"/>
<path d="M241.271 30.9434L241.229 66.0434" stroke="black" stroke-miterlimit="10"/>
<path d="M240.457 93.7708V266.442C240.457 267.728 240.329 268.928 240.029 270.128C238.229 274.971 231.757 279.428 221.943 283.157C219.971 283.885 217.871 284.614 215.6 285.299C198.2 290.614 173.129 293.914 145.314 293.914C117.5 293.914 92.4286 290.571 75.0286 285.299C72.8 284.614 70.7 283.885 68.7286 283.157C57.4571 278.914 50.6 273.685 50.1286 268.028C50.1286 269.057 50.0429 267.599 50.0429 259.114L50 93.7708C50 86.9565 54.0714 81.128 59.9 78.5137C75.3286 87.3851 107.9 93.4708 145.657 93.4708C183.071 93.4708 215.429 87.428 231.029 78.6851C236.6 81.3851 240.457 87.128 240.457 93.7708Z" stroke="black" stroke-width="1.0023" stroke-miterlimit="10"/>
<path d="M227.857 255.772V159.344" stroke="black" stroke-miterlimit="10"/>
<path d="M219.029 265.757V242.785" stroke="black" stroke-miterlimit="10"/>
<path d="M130.807 259.624H128.863V252.28L125.791 253.72C125.583 253.64 125.407 253.52 125.263 253.36C125.135 253.2 125.071 253 125.071 252.76C125.071 252.296 125.359 251.944 125.935 251.704L129.295 250.24H129.751C130.071 250.24 130.327 250.336 130.519 250.528C130.711 250.72 130.807 250.976 130.807 251.296V259.624ZM128.863 258.664H130.807V265.024C130.711 265.056 130.583 265.088 130.423 265.12C130.263 265.168 130.087 265.192 129.895 265.192C129.559 265.192 129.303 265.12 129.127 264.976C128.951 264.832 128.863 264.608 128.863 264.304V258.664ZM141.742 257.56L143.254 256.6C144.95 258.232 146.406 259.688 147.622 260.968C148.854 262.248 149.894 263.272 150.742 264.04C150.726 264.392 150.622 264.672 150.43 264.88C150.238 265.072 149.998 265.168 149.71 265.168C149.438 265.168 149.19 265.088 148.966 264.928C148.758 264.768 148.542 264.584 148.318 264.376L141.742 257.56ZM143.518 258.232L141.574 257.8L148.798 250.312C149.214 250.328 149.526 250.432 149.734 250.624C149.942 250.816 150.046 251.04 150.046 251.296C150.046 251.504 149.99 251.704 149.878 251.896C149.782 252.072 149.622 252.256 149.398 252.448L143.518 258.232ZM140.23 256.192H142.198V264.976C142.102 265.008 141.974 265.04 141.814 265.072C141.654 265.12 141.478 265.144 141.286 265.144C140.934 265.144 140.67 265.072 140.494 264.928C140.318 264.784 140.23 264.56 140.23 264.256V256.192ZM142.198 257.8H140.23V250.456C140.31 250.424 140.43 250.392 140.59 250.36C140.766 250.312 140.95 250.288 141.142 250.288C141.494 250.288 141.758 250.36 141.934 250.504C142.11 250.632 142.198 250.856 142.198 251.176V257.8ZM164.641 258.112V263.32C164.641 263.608 164.553 263.856 164.377 264.064C164.217 264.256 163.969 264.432 163.633 264.592C163.233 264.8 162.681 264.968 161.977 265.096C161.273 265.24 160.561 265.312 159.841 265.312C158.353 265.312 157.033 265.04 155.881 264.496C154.745 263.952 153.857 263.12 153.217 262C152.577 260.88 152.257 259.456 152.257 257.728C152.257 256.016 152.585 254.6 153.241 253.48C153.913 252.344 154.801 251.496 155.905 250.936C157.009 250.376 158.217 250.096 159.529 250.096C160.441 250.096 161.241 250.192 161.929 250.384C162.617 250.576 163.153 250.816 163.537 251.104C163.921 251.392 164.113 251.688 164.113 251.992C164.113 252.2 164.049 252.392 163.921 252.568C163.793 252.728 163.641 252.848 163.465 252.928C163.033 252.64 162.521 252.376 161.929 252.136C161.337 251.88 160.577 251.752 159.649 251.752C158.641 251.752 157.729 251.976 156.913 252.424C156.097 252.872 155.449 253.544 154.969 254.44C154.505 255.32 154.273 256.416 154.273 257.728C154.273 259.104 154.513 260.232 154.993 261.112C155.489 261.976 156.161 262.616 157.009 263.032C157.857 263.448 158.809 263.656 159.865 263.656C160.441 263.656 160.985 263.608 161.497 263.512C162.009 263.416 162.409 263.296 162.697 263.152V258.736H159.073C159.025 258.656 158.977 258.552 158.929 258.424C158.881 258.28 158.857 258.128 158.857 257.968C158.857 257.696 158.921 257.488 159.049 257.344C159.177 257.184 159.361 257.104 159.601 257.104H163.609C163.897 257.104 164.137 257.2 164.329 257.392C164.537 257.568 164.641 257.808 164.641 258.112Z" fill="#333333"/>
<path d="M135.178 121.624V123.208H128.578V121.624H135.178ZM132.418 123.208L133.186 122.008C134.274 122.008 135.178 122.192 135.898 122.56C136.618 122.912 137.154 123.384 137.506 123.976C137.874 124.568 138.058 125.232 138.058 125.968C138.058 127.424 137.53 128.504 136.474 129.208C135.434 129.912 133.946 130.264 132.01 130.264C131.578 130.264 131.146 130.248 130.714 130.216C130.282 130.2 129.858 130.16 129.442 130.096C129.026 130.032 128.626 129.952 128.242 129.856C127.57 129.664 127.234 129.296 127.234 128.752V116.464C127.234 116.208 127.298 116.008 127.426 115.864C127.57 115.72 127.77 115.616 128.026 115.552C128.57 115.392 129.146 115.288 129.754 115.24C130.378 115.176 131.042 115.144 131.746 115.144C133.554 115.144 134.962 115.472 135.97 116.128C136.978 116.768 137.482 117.752 137.482 119.08C137.482 119.752 137.314 120.376 136.978 120.952C136.658 121.512 136.13 121.968 135.394 122.32C134.674 122.656 133.706 122.824 132.49 122.824L132.274 121.624C133.33 121.624 134.13 121.408 134.674 120.976C135.218 120.528 135.49 119.912 135.49 119.128C135.49 118.328 135.17 117.736 134.53 117.352C133.906 116.952 132.978 116.752 131.746 116.752C131.202 116.752 130.722 116.776 130.306 116.824C129.89 116.856 129.506 116.904 129.154 116.968V128.392C129.538 128.472 129.978 128.536 130.474 128.584C130.986 128.632 131.498 128.656 132.01 128.656C133.338 128.656 134.346 128.432 135.034 127.984C135.722 127.536 136.066 126.848 136.066 125.92C136.066 125.088 135.754 124.432 135.13 123.952C134.522 123.456 133.618 123.208 132.418 123.208ZM140.716 116.92C140.716 116.632 140.9 116.352 141.268 116.08C141.636 115.792 142.132 115.56 142.756 115.384C143.38 115.208 144.06 115.12 144.796 115.12C145.82 115.12 146.7 115.296 147.436 115.648C148.172 115.984 148.74 116.464 149.14 117.088C149.54 117.712 149.74 118.448 149.74 119.296C149.74 120.176 149.492 121.04 148.996 121.888C148.516 122.736 147.684 123.704 146.5 124.792L142.588 128.416H149.716C149.78 128.48 149.836 128.584 149.884 128.728C149.932 128.856 149.956 129.008 149.956 129.184C149.956 129.44 149.884 129.64 149.74 129.784C149.612 129.928 149.436 130 149.212 130H140.74C140.58 129.888 140.46 129.752 140.38 129.592C140.3 129.416 140.26 129.232 140.26 129.04C140.26 128.784 140.308 128.56 140.404 128.368C140.5 128.16 140.644 127.968 140.836 127.792L145.156 123.64C146.148 122.712 146.828 121.936 147.196 121.312C147.564 120.672 147.748 120.008 147.748 119.32C147.748 118.568 147.492 117.952 146.98 117.472C146.468 116.992 145.692 116.752 144.652 116.752C143.948 116.752 143.316 116.872 142.756 117.112C142.212 117.352 141.756 117.608 141.388 117.88C141.212 117.8 141.052 117.68 140.908 117.52C140.78 117.36 140.716 117.16 140.716 116.92ZM161.615 121.624V123.208H155.015V121.624H161.615ZM158.855 123.208L159.623 122.008C160.711 122.008 161.615 122.192 162.335 122.56C163.055 122.912 163.591 123.384 163.943 123.976C164.311 124.568 164.495 125.232 164.495 125.968C164.495 127.424 163.967 128.504 162.911 129.208C161.871 129.912 160.383 130.264 158.447 130.264C158.015 130.264 157.583 130.248 157.151 130.216C156.719 130.2 156.295 130.16 155.879 130.096C155.463 130.032 155.063 129.952 154.679 129.856C154.007 129.664 153.671 129.296 153.671 128.752V116.464C153.671 116.208 153.735 116.008 153.863 115.864C154.007 115.72 154.207 115.616 154.463 115.552C155.007 115.392 155.583 115.288 156.191 115.24C156.815 115.176 157.479 115.144 158.183 115.144C159.991 115.144 161.399 115.472 162.407 116.128C163.415 116.768 163.919 117.752 163.919 119.08C163.919 119.752 163.751 120.376 163.415 120.952C163.095 121.512 162.567 121.968 161.831 122.32C161.111 122.656 160.143 122.824 158.927 122.824L158.711 121.624C159.767 121.624 160.567 121.408 161.111 120.976C161.655 120.528 161.927 119.912 161.927 119.128C161.927 118.328 161.607 117.736 160.967 117.352C160.343 116.952 159.415 116.752 158.183 116.752C157.639 116.752 157.159 116.776 156.743 116.824C156.327 116.856 155.943 116.904 155.591 116.968V128.392C155.975 128.472 156.415 128.536 156.911 128.584C157.423 128.632 157.935 128.656 158.447 128.656C159.775 128.656 160.783 128.432 161.471 127.984C162.159 127.536 162.503 126.848 162.503 125.92C162.503 125.088 162.191 124.432 161.567 123.952C160.959 123.456 160.055 123.208 158.855 123.208Z" fill="#333333"/>
<line x1="117.357" y1="305.486" x2="182.135" y2="305.486" stroke="black"/>
<line x1="33.0568" y1="314.359" x2="127.118" y2="314.359" stroke="black"/>
<line x1="167.937" y1="314.359" x2="261.999" y2="314.359" stroke="black"/>
</svg>
