<?xml version="1.0" encoding="utf-8"?>
<!-- Generator: Adobe Illustrator 23.1.0, SVG Export Plug-In . SVG Version: 6.00 Build 0)  -->
<svg version="1.1" id="Layer_1" xmlns="http://www.w3.org/2000/svg" xmlns:xlink="http://www.w3.org/1999/xlink" x="0px" y="0px"
	 viewBox="0 0 234 288" style="enable-background:new 0 0 234 288;" xml:space="preserve">
<style type="text/css">
	.st0{clip-path:url(#SVGID_2_);}
	.st1{fill:#FFFFFF;stroke:#333333;stroke-miterlimit:10;}
	.st2{fill:#333333;stroke:#333333;}
	.st3{fill:none;stroke:#333333;stroke-miterlimit:10;}
	.st4{stroke:#333333;}
	.st5{fill:none;stroke:#333333;stroke-width:0.25;stroke-miterlimit:10;}
	.st6{fill:#333333;}
	.st7{fill:none;stroke:#333333;}
</style>
<g>
	<defs>
		<rect id="SVGID_1_" x="19" y="-44" width="196" height="330"/>
	</defs>
	<clipPath id="SVGID_2_">
		<use xlink:href="#SVGID_1_"  style="overflow:visible;"/>
	</clipPath>
	<g class="st0">
		<path class="st1" d="M34.6,65.4v199.7c0,0.6,0.3,1.1,0.9,1.4c5.8,2.9,11.5,4.9,16.8,7.2l0.9,0.9c6.9,2.9,13.7,5.8,22.5,9.3
			c0.3,0.2,0.8,0.2,1.1,0l114.9-38.7c0.3-0.2,0.5-0.5,0.5-0.8V55.3L208,42.9l5.3-6.1l-0.3-1.1l-7.8,1.2v-0.8L171,27.5l-18,16.2
			l-32.4-31.2l-99,15.3l-1.1,0.3l2.3,11.2l3.1,7.5l-2.1-0.5l-0.2,0.9l6.3,7.9c1.7,4.4,1.4,4.1,0.8,4.4L34.6,65.4z"/>
		<path class="st2" d="M76.1,73.5c0,0,0.2,0.8,0.2,2.4s0,3.8,0,6.8c0,5.8,0,14,0,23.9c0,19.8,0,46,0,72.4s0,52.6,0,72.4
			c0,9.9,0,18.1,0,23.9c0,2.8,0,5.2,0,6.8c0,1.6-0.2,2.4-0.2,2.4S76,283.5,76,282c0-1.6,0-3.8,0-6.8c0-5.8,0-14,0-23.9
			c0-19.8,0-46,0-72.4s0-52.6,0-72.4c0-9.9,0-18.1,0-23.9c0-2.8,0-5.2,0-6.8S76.1,73.5,76.1,73.5z"/>
		<path class="st3" d="M25.6,46.6l33.2,7.6c0,0,6.1,8.9,8.4,11.8c2.4,3.1,5.3,3.1,5.3,3.1l3.5,5l13.9-13.3l8.6-6.3l36.7-5.8
			c2-0.3,4-0.8,5.8-1.5l5.5-2.1h0.2l28-4.4c0.2,0,0.3,0,0.3,0l1.2,0.5c0.6,0.3,1.4,0.5,2.1,0.3l27.3-4.4"/>
		<path class="st4" d="M75.2,75.3c0,0-0.6,0-1.7-0.3c-1.1-0.3-2.6-0.6-4.6-1.1c-3.7-0.9-8.7-2.1-13.7-3.4c-5-1.2-9.9-2.4-13.7-3.4
			c-1.8-0.5-3.4-0.9-4.6-1.1c-1.1-0.3-1.7-0.6-1.7-0.6s0.6,0,1.7,0.3c1.1,0.3,2.6,0.6,4.6,1.1c3.7,0.9,8.7,2.1,13.7,3.4
			s9.9,2.4,13.7,3.4c1.8,0.5,3.4,0.8,4.6,1.1C74.6,75,75.2,75.3,75.2,75.3z"/>
		<path class="st4" d="M76.9,75.2c0,0,1.7-0.5,4.9-1.1c3.1-0.6,7.6-1.4,13-2.3c10.7-1.8,24.9-4.3,39.3-6.7
			c14.2-2.4,28.6-4.9,39.3-6.7c5.3-0.9,9.8-1.7,13-2.3c3.8-0.8,6.1-0.8,6.1-0.8s-2.9,0.6-6.1,1.2c-3.1,0.6-7.6,1.4-13,2.3
			c-10.7,1.8-24.9,4.3-39.3,6.7c-14.2,2.4-28.6,4.9-39.3,6.7c-5.3,0.9-9.8,1.7-13,2.3C78.7,75,76.9,75.2,76.9,75.2z"/>
		<path class="st5" d="M52.2,272.1l1.2,1.2c0,0,13,6,22.2,8.9"/>
		<path class="st5" d="M52.5,273.8l-1.8-2.3"/>
		<path class="st5" d="M35.3,264.9l40.2,17.3"/>
		<path class="st6" d="M98.2,258.5l-1.8,0.6l-2.3-7l-2.5,2.3c-0.2,0-0.4-0.1-0.6-0.2c-0.2-0.1-0.3-0.3-0.4-0.5
			c-0.1-0.4,0-0.9,0.5-1.3l2.7-2.4l0.4-0.1c0.3-0.1,0.6-0.1,0.8,0c0.2,0.1,0.4,0.3,0.5,0.6L98.2,258.5z M96.1,258.2l1.8-0.6l2,6
			c-0.1,0.1-0.2,0.1-0.3,0.2c-0.1,0.1-0.3,0.2-0.5,0.2c-0.3,0.1-0.6,0.1-0.8,0c-0.2-0.1-0.4-0.3-0.5-0.6L96.1,258.2z M109,260.9
			c-1.1,0.4-2.1,0.4-3.1,0.2c-1-0.3-1.9-0.9-2.7-1.8c-0.8-0.9-1.5-2.2-2-3.8c-0.6-1.7-0.8-3.2-0.6-4.4c0.2-1.2,0.6-2.2,1.2-2.9
			c0.7-0.8,1.5-1.3,2.4-1.6c0.9-0.3,1.9-0.4,2.9-0.1c1,0.2,1.9,0.8,2.8,1.7c0.9,0.9,1.6,2.2,2.2,3.9c0.5,1.6,0.8,3,0.7,4.3
			c-0.1,1.2-0.5,2.2-1.1,3C110.9,260,110.1,260.6,109,260.9z M108.5,259.4c1.1-0.4,1.8-1.1,2.1-2.3c0.3-1.2,0.1-2.7-0.5-4.5
			c-0.4-1.4-1-2.4-1.6-3.1c-0.6-0.7-1.2-1.2-1.9-1.4c-0.7-0.2-1.3-0.2-2,0c-0.6,0.2-1.2,0.6-1.6,1.2c-0.4,0.6-0.6,1.3-0.7,2.2
			s0.2,2.1,0.6,3.4c0.6,1.8,1.4,3.1,2.3,3.9C106.4,259.6,107.4,259.8,108.5,259.4z M122.3,256.5c-1.1,0.4-2.1,0.4-3.1,0.2
			c-1-0.3-1.9-0.9-2.7-1.8c-0.8-0.9-1.5-2.2-2-3.8c-0.6-1.7-0.8-3.2-0.6-4.4c0.2-1.2,0.6-2.2,1.2-2.9c0.7-0.8,1.5-1.3,2.4-1.6
			c0.9-0.3,1.9-0.4,2.9-0.1c1,0.2,1.9,0.8,2.8,1.7c0.9,0.9,1.6,2.2,2.1,3.9c0.5,1.6,0.8,3,0.7,4.3c-0.1,1.2-0.5,2.2-1.1,3
			C124.2,255.6,123.4,256.2,122.3,256.5z M121.8,255c1.1-0.4,1.8-1.1,2.1-2.3c0.3-1.2,0.1-2.7-0.5-4.5c-0.4-1.4-1-2.4-1.6-3.1
			c-0.6-0.7-1.2-1.2-1.9-1.4c-0.7-0.2-1.3-0.2-2,0c-0.6,0.2-1.2,0.6-1.6,1.2c-0.4,0.6-0.6,1.3-0.7,2.2c0,0.9,0.2,2.1,0.6,3.4
			c0.6,1.8,1.4,3.1,2.3,3.9C119.6,255.2,120.7,255.4,121.8,255z M144.2,241.7l1.6,4.9c0.1,0.3,0.1,0.5,0,0.8
			c-0.1,0.2-0.3,0.5-0.5,0.7c-0.3,0.3-0.8,0.7-1.4,1c-0.6,0.4-1.3,0.7-2,0.9c-1.4,0.5-2.8,0.6-4,0.5c-1.2-0.2-2.4-0.7-3.3-1.5
			c-1-0.9-1.7-2.1-2.3-3.8c-0.5-1.6-0.7-3.1-0.4-4.3c0.3-1.3,0.9-2.4,1.7-3.3c0.9-0.9,1.9-1.5,3.2-1.9c0.9-0.3,1.7-0.4,2.4-0.5
			c0.7,0,1.3,0,1.8,0.2c0.5,0.2,0.7,0.4,0.8,0.7c0.1,0.2,0.1,0.4,0,0.6c-0.1,0.2-0.2,0.4-0.3,0.5c-0.5-0.1-1.1-0.2-1.7-0.3
			c-0.6-0.1-1.4,0.1-2.3,0.4c-1,0.3-1.8,0.8-2.4,1.5c-0.6,0.7-1,1.5-1.2,2.5c-0.2,1,0,2.1,0.4,3.3c0.4,1.3,1,2.3,1.8,3
			c0.7,0.7,1.6,1.1,2.5,1.2c0.9,0.1,1.9,0,2.9-0.3c0.5-0.2,1-0.4,1.5-0.7c0.5-0.3,0.8-0.5,1-0.7l-1.4-4.2l-3.4,1.1
			c-0.1-0.1-0.1-0.1-0.2-0.3c-0.1-0.1-0.2-0.3-0.2-0.4c-0.1-0.3-0.1-0.5,0-0.7c0.1-0.2,0.2-0.3,0.4-0.4l3.8-1.3
			c0.3-0.1,0.5-0.1,0.8,0C143.9,241.2,144.1,241.4,144.2,241.7z M156.7,240.8c-0.1,0.1-0.2,0.2-0.4,0.3c-0.1,0.1-0.3,0.2-0.5,0.3
			c-0.2,0.1-0.5,0.1-0.7,0.1c-0.2,0-0.4-0.1-0.5-0.2c-1.4-1.4-2.6-2.8-3.7-4c-1.1-1.2-1.9-2.2-2.6-3l-0.1,0c0.3,1.2,0.6,2.2,0.9,3.2
			c0.3,1,0.5,2,0.8,2.9c0.2,0.9,0.5,1.9,0.8,2.9c0.3,1,0.6,2,0.8,3.1c-0.1,0.1-0.2,0.1-0.3,0.2c-0.1,0.1-0.3,0.1-0.4,0.2
			c-0.3,0.1-0.6,0.1-0.8,0c-0.2-0.1-0.3-0.3-0.4-0.5c-0.1-0.2-0.2-0.6-0.4-1.3c-0.2-0.7-0.4-1.5-0.7-2.5c-0.3-1-0.5-2-0.8-3.1
			c-0.3-1.1-0.6-2.2-0.8-3.3c-0.3-1.1-0.5-2.1-0.7-3c0.1-0.1,0.2-0.3,0.4-0.5c0.2-0.2,0.4-0.3,0.7-0.4c0.3-0.1,0.7-0.1,1-0.1
			c0.3,0.1,0.5,0.2,0.8,0.4c0.7,0.6,1.3,1.4,2,2.1c0.7,0.8,1.4,1.6,2.1,2.3c0.7,0.8,1.3,1.5,1.9,2.2l0.1,0c0.1-1.8,0.3-3.6,0.4-5.3
			c0.2-1.7,0.3-3.2,0.4-4.4c0.1-0.1,0.3-0.2,0.5-0.3c0.2-0.1,0.4-0.2,0.6-0.3c0.3-0.1,0.6-0.1,0.9-0.1c0.2,0,0.4,0.2,0.6,0.4
			c0.1,0.2,0.4,0.7,0.6,1.3c0.3,0.6,0.6,1.3,1,2.1c0.4,0.8,0.7,1.7,1.1,2.6c0.4,0.9,0.8,1.8,1.1,2.7c0.4,0.9,0.7,1.7,1,2.4
			c0.3,0.7,0.5,1.3,0.7,1.7c-0.1,0.1-0.2,0.3-0.4,0.3c-0.1,0.1-0.3,0.2-0.5,0.2c-0.2,0.1-0.5,0.1-0.7,0c-0.2-0.1-0.4-0.2-0.5-0.5
			c-0.6-1.4-1.2-2.9-1.7-4.3c-0.6-1.4-1.1-2.7-1.5-3.9c-0.5-1.2-0.8-2.1-1.1-2.9l-0.1,0c-0.1,0.9-0.2,2.2-0.3,3.7
			C157,236.5,156.9,238.4,156.7,240.8z M171.2,238.6c1-0.3,1.7-0.8,2.1-1.4c0.4-0.6,0.4-1.3,0.2-2.1c-0.2-0.6-0.6-1.1-1.1-1.3
			c-0.5-0.3-1.3-0.4-2.2-0.4l-2.2,0.1c-0.7,0-1.3-0.1-1.9-0.2c-0.6-0.2-1.1-0.4-1.5-0.8c-0.4-0.4-0.7-0.9-0.9-1.5
			c-0.4-1.2-0.3-2.2,0.4-3.2c0.6-1,1.6-1.7,3.1-2.1c0.8-0.3,1.6-0.4,2.3-0.5c0.7,0,1.3,0,1.7,0.2c0.5,0.1,0.8,0.4,0.9,0.7
			c0.1,0.2,0.1,0.4,0,0.6c-0.1,0.2-0.2,0.4-0.3,0.5c-0.5-0.2-1.1-0.3-1.8-0.3c-0.7,0-1.4,0.1-2.2,0.4c-0.9,0.3-1.5,0.7-1.9,1.3
			c-0.4,0.6-0.5,1.2-0.3,1.8c0.2,0.5,0.5,0.9,1,1.1c0.5,0.2,1.2,0.3,2.1,0.3l1.5-0.1c1.3-0.1,2.4,0.1,3.3,0.5
			c0.9,0.4,1.6,1.2,1.9,2.3c0.4,1.2,0.3,2.3-0.4,3.4c-0.6,1-1.7,1.8-3.3,2.3c-0.9,0.3-1.8,0.5-2.5,0.5c-0.8,0-1.4-0.1-1.9-0.2
			c-0.5-0.2-0.8-0.4-0.9-0.7c-0.1-0.3-0.1-0.5,0-0.7c0.1-0.2,0.3-0.4,0.4-0.6c0.5,0.2,1.1,0.4,1.8,0.5
			C169.4,239,170.2,238.9,171.2,238.6z"/>
		<line class="st7" x1="76.4" y1="295.9" x2="151.8" y2="271.1"/>
		<line class="st7" x1="116.8" y1="276.3" x2="192.2" y2="251.5"/>
		<line class="st7" x1="43.9" y1="283.2" x2="76.7" y2="295.9"/>
		<line class="st7" x1="34.4" y1="272.7" x2="59.9" y2="283.2"/>
	</g>
</g>
</svg>
