<svg width="234" height="288" viewBox="0 0 234 288" fill="none" xmlns="http://www.w3.org/2000/svg">
<path d="M105.178 54.624V56.208H98.5777V54.624H105.178ZM102.418 56.208L103.186 55.008C104.274 55.008 105.178 55.192 105.898 55.56C106.618 55.912 107.154 56.384 107.506 56.976C107.874 57.568 108.058 58.232 108.058 58.968C108.058 60.424 107.53 61.504 106.474 62.208C105.434 62.912 103.946 63.264 102.01 63.264C101.578 63.264 101.146 63.248 100.714 63.216C100.282 63.2 99.8577 63.16 99.4417 63.096C99.0257 63.032 98.6257 62.952 98.2417 62.856C97.5697 62.664 97.2337 62.296 97.2337 61.752V49.464C97.2337 49.208 97.2977 49.008 97.4257 48.864C97.5697 48.72 97.7697 48.616 98.0257 48.552C98.5697 48.392 99.1457 48.288 99.7537 48.24C100.378 48.176 101.042 48.144 101.746 48.144C103.554 48.144 104.962 48.472 105.97 49.128C106.978 49.768 107.482 50.752 107.482 52.08C107.482 52.752 107.314 53.376 106.978 53.952C106.658 54.512 106.13 54.968 105.394 55.32C104.674 55.656 103.706 55.824 102.49 55.824L102.274 54.624C103.33 54.624 104.13 54.408 104.674 53.976C105.218 53.528 105.49 52.912 105.49 52.128C105.49 51.328 105.17 50.736 104.53 50.352C103.906 49.952 102.978 49.752 101.746 49.752C101.202 49.752 100.722 49.776 100.306 49.824C99.8897 49.856 99.5057 49.904 99.1537 49.968V61.392C99.5377 61.472 99.9777 61.536 100.474 61.584C100.986 61.632 101.498 61.656 102.01 61.656C103.338 61.656 104.346 61.432 105.034 60.984C105.722 60.536 106.066 59.848 106.066 58.92C106.066 58.088 105.754 57.432 105.13 56.952C104.522 56.456 103.618 56.208 102.418 56.208ZM110.716 49.92C110.716 49.632 110.9 49.352 111.268 49.08C111.636 48.792 112.132 48.56 112.756 48.384C113.38 48.208 114.06 48.12 114.796 48.12C115.82 48.12 116.7 48.296 117.436 48.648C118.172 48.984 118.74 49.464 119.14 50.088C119.54 50.712 119.74 51.448 119.74 52.296C119.74 53.176 119.492 54.04 118.996 54.888C118.516 55.736 117.684 56.704 116.5 57.792L112.588 61.416H119.716C119.78 61.48 119.836 61.584 119.884 61.728C119.932 61.856 119.956 62.008 119.956 62.184C119.956 62.44 119.884 62.64 119.74 62.784C119.612 62.928 119.436 63 119.212 63H110.74C110.58 62.888 110.46 62.752 110.38 62.592C110.3 62.416 110.26 62.232 110.26 62.04C110.26 61.784 110.308 61.56 110.404 61.368C110.5 61.16 110.644 60.968 110.836 60.792L115.156 56.64C116.148 55.712 116.828 54.936 117.196 54.312C117.564 53.672 117.748 53.008 117.748 52.32C117.748 51.568 117.492 50.952 116.98 50.472C116.468 49.992 115.692 49.752 114.652 49.752C113.948 49.752 113.316 49.872 112.756 50.112C112.212 50.352 111.756 50.608 111.388 50.88C111.212 50.8 111.052 50.68 110.908 50.52C110.78 50.36 110.716 50.16 110.716 49.92ZM131.615 54.624V56.208H125.015V54.624H131.615ZM128.855 56.208L129.623 55.008C130.711 55.008 131.615 55.192 132.335 55.56C133.055 55.912 133.591 56.384 133.943 56.976C134.311 57.568 134.495 58.232 134.495 58.968C134.495 60.424 133.967 61.504 132.911 62.208C131.871 62.912 130.383 63.264 128.447 63.264C128.015 63.264 127.583 63.248 127.151 63.216C126.719 63.2 126.295 63.16 125.879 63.096C125.463 63.032 125.063 62.952 124.679 62.856C124.007 62.664 123.671 62.296 123.671 61.752V49.464C123.671 49.208 123.735 49.008 123.863 48.864C124.007 48.72 124.207 48.616 124.463 48.552C125.007 48.392 125.583 48.288 126.191 48.24C126.815 48.176 127.479 48.144 128.183 48.144C129.991 48.144 131.399 48.472 132.407 49.128C133.415 49.768 133.919 50.752 133.919 52.08C133.919 52.752 133.751 53.376 133.415 53.952C133.095 54.512 132.567 54.968 131.831 55.32C131.111 55.656 130.143 55.824 128.927 55.824L128.711 54.624C129.767 54.624 130.567 54.408 131.111 53.976C131.655 53.528 131.927 52.912 131.927 52.128C131.927 51.328 131.607 50.736 130.967 50.352C130.343 49.952 129.415 49.752 128.183 49.752C127.639 49.752 127.159 49.776 126.743 49.824C126.327 49.856 125.943 49.904 125.591 49.968V61.392C125.975 61.472 126.415 61.536 126.911 61.584C127.423 61.632 127.935 61.656 128.447 61.656C129.775 61.656 130.783 61.432 131.471 60.984C132.159 60.536 132.503 59.848 132.503 58.92C132.503 58.088 132.191 57.432 131.567 56.952C130.959 56.456 130.055 56.208 128.855 56.208Z" fill="#333333"/>
<path d="M100.807 232.624H98.8629V225.28L95.7909 226.72C95.5829 226.64 95.4069 226.52 95.2629 226.36C95.1349 226.2 95.0709 226 95.0709 225.76C95.0709 225.296 95.3589 224.944 95.9349 224.704L99.2949 223.24H99.7509C100.071 223.24 100.327 223.336 100.519 223.528C100.711 223.72 100.807 223.976 100.807 224.296V232.624ZM98.8629 231.664H100.807V238.024C100.711 238.056 100.583 238.088 100.423 238.12C100.263 238.168 100.087 238.192 99.8949 238.192C99.5589 238.192 99.3029 238.12 99.1269 237.976C98.9509 237.832 98.8629 237.608 98.8629 237.304V231.664ZM111.742 230.56L113.254 229.6C114.95 231.232 116.406 232.688 117.622 233.968C118.854 235.248 119.894 236.272 120.742 237.04C120.726 237.392 120.622 237.672 120.43 237.88C120.238 238.072 119.998 238.168 119.71 238.168C119.438 238.168 119.19 238.088 118.966 237.928C118.758 237.768 118.542 237.584 118.318 237.376L111.742 230.56ZM113.518 231.232L111.574 230.8L118.798 223.312C119.214 223.328 119.526 223.432 119.734 223.624C119.942 223.816 120.046 224.04 120.046 224.296C120.046 224.504 119.99 224.704 119.878 224.896C119.782 225.072 119.622 225.256 119.398 225.448L113.518 231.232ZM110.23 229.192H112.198V237.976C112.102 238.008 111.974 238.04 111.814 238.072C111.654 238.12 111.478 238.144 111.286 238.144C110.934 238.144 110.67 238.072 110.494 237.928C110.318 237.784 110.23 237.56 110.23 237.256V229.192ZM112.198 230.8H110.23V223.456C110.31 223.424 110.43 223.392 110.59 223.36C110.766 223.312 110.95 223.288 111.142 223.288C111.494 223.288 111.758 223.36 111.934 223.504C112.11 223.632 112.198 223.856 112.198 224.176V230.8ZM134.641 231.112V236.32C134.641 236.608 134.553 236.856 134.377 237.064C134.217 237.256 133.969 237.432 133.633 237.592C133.233 237.8 132.681 237.968 131.977 238.096C131.273 238.24 130.561 238.312 129.841 238.312C128.353 238.312 127.033 238.04 125.881 237.496C124.745 236.952 123.857 236.12 123.217 235C122.577 233.88 122.257 232.456 122.257 230.728C122.257 229.016 122.585 227.6 123.241 226.48C123.913 225.344 124.801 224.496 125.905 223.936C127.009 223.376 128.217 223.096 129.529 223.096C130.441 223.096 131.241 223.192 131.929 223.384C132.617 223.576 133.153 223.816 133.537 224.104C133.921 224.392 134.113 224.688 134.113 224.992C134.113 225.2 134.049 225.392 133.921 225.568C133.793 225.728 133.641 225.848 133.465 225.928C133.033 225.64 132.521 225.376 131.929 225.136C131.337 224.88 130.577 224.752 129.649 224.752C128.641 224.752 127.729 224.976 126.913 225.424C126.097 225.872 125.449 226.544 124.969 227.44C124.505 228.32 124.273 229.416 124.273 230.728C124.273 232.104 124.513 233.232 124.993 234.112C125.489 234.976 126.161 235.616 127.009 236.032C127.857 236.448 128.809 236.656 129.865 236.656C130.441 236.656 130.985 236.608 131.497 236.512C132.009 236.416 132.409 236.296 132.697 236.152V231.736H129.073C129.025 231.656 128.977 231.552 128.929 231.424C128.881 231.28 128.857 231.128 128.857 230.968C128.857 230.696 128.921 230.488 129.049 230.344C129.177 230.184 129.361 230.104 129.601 230.104H133.609C133.897 230.104 134.137 230.2 134.329 230.392C134.537 230.568 134.641 230.808 134.641 231.112Z" fill="#333333"/>
<path d="M9.83363 259.95C9.39352 260.633 7.63305 259.813 6.60611 259.677C5.57917 259.54 4.69894 259.813 4.55223 260.906L4.99235 262.135L6.16599 261.726L6.3127 262.682H7.48634L7.63305 263.364H8.65999C8.65999 263.364 8.8067 264.184 11.8875 264.457C14.9683 264.594 17.3156 264.867 17.3156 264.867C17.3156 264.867 18.7827 266.096 21.2767 266.096C27.585 266.096 29.9323 266.642 33.1598 266.642C36.3874 266.642 38.8814 266.506 46.5101 265.959C54.1387 265.413 68.2225 262.955 73.0638 263.228C77.9051 263.501 83.0398 260.906 85.2404 261.043C87.4409 261.179 92.7223 259.95 96.39 260.633C100.058 261.316 105.779 262.135 111.501 260.769C117.222 259.404 124.117 261.316 129.545 261.452C134.974 261.589 148.911 261.589 152.432 261.043C155.952 260.496 157.42 261.316 160.06 260.906C162.701 260.496 170.183 260.769 175.171 261.043C180.159 261.316 182.8 261.316 187.641 260.496C192.482 259.677 199.817 259.404 204.659 258.721C209.5 258.038 209.647 258.174 210.82 257.218C211.994 256.262 214.048 257.218 216.542 256.399C219.036 255.58 221.236 254.76 223.73 254.897C226.224 255.033 228.718 254.897 228.718 254.897C228.718 254.897 228.572 253.804 226.371 251.346C224.171 248.887 222.263 248.614 220.796 249.297C219.329 249.98 220.503 247.795 218.449 246.702C216.395 245.609 212.434 246.975 211.407 245.2C210.38 243.424 213.021 241.785 211.701 236.868C210.087 230.313 208.033 230.449 207.446 228.947C207.006 227.445 208.913 225.669 208.326 219.933C207.74 214.197 208.18 212.558 207.299 209.963C206.419 207.368 207.299 206.412 206.126 202.588C204.952 198.764 204.219 198.49 204.512 197.125C204.805 195.759 205.686 194.53 205.246 189.067C204.805 183.603 203.485 180.326 203.485 177.867C203.485 175.409 204.805 174.589 204.072 168.17C203.338 161.751 204.365 159.976 204.072 154.103C203.779 148.23 204.365 144.952 203.485 138.943C202.605 132.933 203.779 132.524 202.605 124.875C201.431 117.227 201.431 112.31 200.258 105.208C199.084 98.1062 198.644 94.4187 197.91 91.0042C197.177 87.5898 192.189 82.5365 192.335 81.5804C192.482 80.6244 200.258 72.4298 204.072 66.8301C207.886 61.2305 208.767 59.7281 211.261 57.4063C213.755 55.0845 216.982 47.9825 219.623 44.9778C222.263 41.9731 225.344 33.2322 227.545 29.6812C229.745 26.1302 232.386 18.4819 232.826 16.4332C232.533 12.7456 231.212 11.5164 231.212 11.5164C230.479 11.3799 229.159 11.7896 229.159 11.7896L227.105 10.5604L225.198 10.697L223.29 9.46777L221.383 9.60435L219.476 8.37516L217.569 8.51173L215.662 7.28254L213.608 7.5557L211.554 6.46308L209.5 6.87281L207.446 5.91677L205.392 6.46308L203.338 5.64362L201.285 6.3265L199.524 5.64362L197.764 6.3265L196.003 5.78019L194.243 6.59966L192.482 6.05335L190.722 7.00939L188.961 6.59966L187.201 7.5557L185.44 7.14596L183.68 8.102L181.919 7.69227L180.159 8.51173L178.398 7.96543L176.638 8.64831L174.878 7.69227L171.943 7.82885L169.009 6.73623L166.075 7.00939L163.141 5.91677L160.207 6.3265L157.273 5.37046L154.339 5.78019L151.405 4.82416L148.471 5.23389L145.536 4.41442L142.602 4.96073L139.668 4.14127L136.734 4.68758L133.653 3.86812L130.572 4.551L127.785 3.86812L124.998 4.551L122.21 3.86812L119.423 4.551L116.635 4.0047L113.848 4.82416L111.061 4.27785L108.273 4.96073L105.486 4.27785L102.698 4.96073L99.9109 4.27785L97.1235 4.96073L93.0158 4.551L90.2283 5.09731L87.4409 4.27785L84.6535 4.82416L81.8661 4.14127L79.0787 4.96073L76.2913 4.551L73.5039 5.50704L70.7165 5.23389L67.9291 6.3265L65.1417 6.05335L62.3543 7.14596L59.5669 6.87281L56.7794 7.82885L53.992 7.28254L51.498 7.82885L48.7106 7.00939L45.9232 7.41912L42.9891 6.3265L40.2017 6.46308L37.4143 5.09731H34.6269L31.8395 3.73154H29.0521L26.2647 2.36577L23.3306 2.50235L20.3964 1.40973L17.4623 1.81946L14.5282 1L11.5941 1.68288L8.65999 1L5.72587 1.81946L2.79176 1.40973C2.79176 1.40973 2.79176 4.27785 2.20494 6.87281C0.59118 13.9748 0.884591 13.1554 2.93847 19.5745C4.99235 25.9936 6.3127 29.408 10.2738 42.7926C14.2348 56.0405 13.9414 55.3576 16.7288 59.0452C19.5162 62.7328 18.9294 63.962 20.2497 68.7422C21.4234 73.659 21.8635 75.571 24.2108 80.2147C26.5581 84.8583 28.1718 86.0875 24.3575 93.326C20.5431 100.565 18.7827 108.213 18.4893 109.852C18.1959 111.491 19.3695 118.183 19.5162 125.558C19.6629 133.07 21.13 133.753 20.6899 135.528C19.6629 140.718 21.13 142.084 20.5432 146.318C19.8096 151.644 20.9833 155.878 20.5432 161.888C20.103 167.897 20.5432 172.95 20.9833 174.726C21.4234 176.638 20.5431 177.594 20.3964 182.374C20.2497 187.154 20.103 192.891 20.2497 197.671C20.3964 202.588 21.13 204.909 21.7168 207.504C22.3036 210.099 21.5701 210.373 22.3036 212.558C23.0371 214.743 22.0102 220.616 21.4234 224.44C20.6899 228.264 18.4893 226.898 16.7288 235.093C13.7947 247.795 15.8486 246.019 15.115 247.795C14.3815 249.57 13.7947 256.536 12.9145 257.628C12.1809 258.857 11.154 257.628 9.83363 259.95Z" stroke="black" stroke-miterlimit="10"/>
<path d="M198.791 71.3379C198.791 71.3379 198.644 71.7476 198.351 72.2939C198.057 72.9768 197.617 73.7963 197.031 74.7523C196.444 75.7084 195.71 76.9375 194.83 78.1667C194.39 78.713 193.95 79.3959 193.51 80.0788C193.363 80.352 193.069 80.7617 192.923 81.0349C192.923 81.308 192.776 81.7177 192.776 82.1275C192.776 83.6298 193.363 85.1322 193.95 86.4979C194.537 87.8637 194.977 89.0929 195.27 90.1855C195.563 91.2781 195.857 92.2342 196.004 92.9171C196.15 93.5999 196.15 94.0097 196.15 94.0097C196.15 94.0097 195.71 92.5073 194.977 90.3221C194.537 89.2295 194.096 88.0003 193.51 86.6345C192.923 85.2687 192.336 83.7664 192.336 82.2641C192.336 81.8543 192.336 81.5812 192.483 81.0349C192.629 80.6251 192.923 80.352 193.069 79.9422C193.51 79.2594 193.95 78.7131 194.39 78.0302C195.27 76.801 196.004 75.7084 196.59 74.6157C197.177 73.6597 197.617 72.7037 198.057 72.1574C198.498 71.611 198.791 71.3379 198.791 71.3379Z" fill="black"/>
<path d="M6.45972 261.043C6.45972 261.043 6.45972 260.907 6.45972 260.634C6.60642 260.497 6.75313 260.497 6.89983 260.634C7.04654 260.77 7.19325 260.77 7.33995 260.907C8.07348 261.453 8.80701 262.273 9.68724 262.955C10.5675 263.638 11.7411 263.912 12.4747 264.185C13.3549 264.321 13.9417 264.458 13.9417 264.458V264.731C13.9417 264.731 13.3549 264.731 12.4747 264.594C11.5944 264.458 10.4208 264.048 9.54054 263.365C8.5136 262.682 7.78007 261.863 7.19325 261.317C6.89983 261.043 6.60642 260.77 6.45972 260.907C6.45972 260.907 6.45972 261.043 6.45972 261.043Z" fill="black"/>
<path d="M227.105 19.9824C227.105 19.9824 227.839 20.2556 228.572 20.3922C229.306 20.6653 230.039 20.9385 230.039 20.9385C230.186 20.9385 230.186 21.075 230.186 21.2116C230.186 21.3482 230.039 21.3482 229.892 21.3482C229.892 21.3482 229.159 21.075 228.425 20.6653C227.839 20.2556 227.105 19.9824 227.105 19.9824Z" fill="black"/>
<path d="M189.401 18.3458C189.401 18.3458 189.988 18.3458 191.015 18.2093C192.042 18.0727 193.362 17.9361 195.123 17.9361C198.497 17.663 203.045 17.5264 207.593 17.663C212.141 17.7995 216.689 18.0727 220.063 18.4824C221.677 18.7556 223.144 19.0287 224.171 19.3019C225.051 19.575 225.638 19.7116 225.638 19.7116C225.638 19.7116 225.051 19.575 224.171 19.4385C223.73 19.3019 223.144 19.3019 222.41 19.1653C221.677 19.0287 220.943 19.0287 220.063 18.8921C216.689 18.4824 212.141 18.2093 207.593 18.0727C203.045 17.9361 198.497 18.0727 195.123 18.2093C191.602 18.2093 189.401 18.3458 189.401 18.3458Z" fill="black"/>
<path d="M129.252 17.8008C129.252 17.8008 132.773 17.9374 137.908 18.0739C143.043 18.3471 150.084 18.6202 156.98 18.8934C163.875 19.1666 170.917 19.3031 176.051 19.1666C178.692 19.1666 180.746 19.03 182.36 18.8934C183.827 18.7568 184.707 18.7568 184.707 18.7568C184.707 18.7568 183.827 18.8934 182.36 19.03C180.893 19.1666 178.692 19.4397 176.051 19.5763C170.77 19.7129 163.875 19.5763 156.98 19.3031C150.084 19.03 143.043 18.7568 137.908 18.3471C132.773 18.0739 129.252 17.8008 129.252 17.8008Z" fill="black"/>
<path d="M48.4177 18.3446C48.4177 18.3446 49.5914 18.208 51.4985 18.0714C53.5524 17.9348 56.3398 17.7983 59.8608 17.5251C66.7559 17.1154 75.8517 16.7056 85.0941 16.4325C94.3366 16.2959 103.432 16.4325 110.328 16.7056C112.088 16.7056 113.555 16.8422 115.022 16.9788C116.489 17.1154 117.663 17.1154 118.69 17.1154C120.744 17.2519 121.771 17.3885 121.771 17.3885C121.771 17.3885 120.597 17.3885 118.69 17.3885C116.636 17.3885 113.848 17.2519 110.328 17.1154C103.432 16.8422 94.3366 16.7056 85.0941 16.8422C75.9984 16.9788 66.7559 17.5251 59.8608 17.7983C53.1123 18.0714 48.4177 18.3446 48.4177 18.3446Z" fill="black"/>
<path d="M11.1541 14.1094C11.1541 14.1094 13.3546 14.246 16.4355 14.5191C19.663 14.7923 23.7707 15.6117 28.0252 16.2946C32.2797 16.9775 36.3874 17.6604 39.615 17.9335C41.2287 18.0701 42.5491 18.2067 43.4293 18.3433C44.3095 18.4798 44.8964 18.4798 44.8964 18.4798C44.8964 18.4798 44.3095 18.4798 43.4293 18.4798C42.5491 18.4798 41.2287 18.4798 39.615 18.3433C36.3874 18.0701 32.2797 17.3872 28.0252 16.7043C23.7707 16.0215 19.663 15.3386 16.4355 14.7923C14.8217 14.5191 13.5013 14.3825 12.6211 14.246C11.7409 14.1094 11.1541 14.1094 11.1541 14.1094Z" fill="black"/>
<path d="M2.645 13.5645C2.645 13.5645 4.25876 13.5645 5.87253 13.701C7.48629 13.701 9.10005 13.8376 9.10005 13.8376C9.10005 13.8376 7.48629 13.8376 5.87253 13.8376C4.25876 13.8376 2.645 13.9742 2.645 13.9742C2.49829 13.9742 2.49829 13.8376 2.49829 13.8376C2.49829 13.701 2.645 13.5645 2.645 13.5645Z" fill="black"/>
<path d="M227.985 19.3008C227.985 19.3008 228.572 19.4374 229.159 19.7105C229.746 19.8471 230.332 20.1202 230.332 20.1202C230.479 20.1202 230.479 20.2568 230.479 20.3934C230.479 20.53 230.332 20.53 230.186 20.53C230.186 20.53 229.599 20.2568 229.012 19.9837C228.425 19.5739 227.985 19.3008 227.985 19.3008Z" fill="black"/>
<path d="M187.935 17.3926C187.935 17.3926 188.522 17.256 189.549 17.256C190.576 17.1194 192.043 16.9828 193.803 16.8463C197.324 16.5731 202.165 16.4365 206.86 16.5731C209.207 16.5731 211.701 16.7097 213.902 16.8463C216.102 16.9828 218.156 17.256 219.917 17.5292C221.677 17.8023 223.144 18.0755 224.171 18.3486C225.198 18.6218 225.785 18.7583 225.785 18.7583C225.785 18.7583 225.198 18.6218 224.171 18.4852C223.731 18.3486 222.997 18.3486 222.264 18.212C221.53 18.0755 220.797 17.9389 219.917 17.8023C218.156 17.5292 216.102 17.256 213.902 17.1194C211.701 16.9828 209.354 16.8463 206.86 16.8463C202.165 16.7097 197.324 16.9828 193.803 17.1194C190.282 17.1194 187.935 17.3926 187.935 17.3926Z" fill="black"/>
<path d="M131.012 16.4336C131.012 16.4336 134.24 16.5702 139.081 16.7067C143.922 16.8433 150.231 17.2531 156.686 17.5262C163.141 17.7994 169.449 18.0725 174.29 18.0725C176.638 18.0725 178.692 18.0725 180.159 18.0725C181.626 18.0725 182.359 17.9359 182.359 17.9359C182.359 17.9359 182.213 17.9359 181.772 18.0725C181.332 18.0725 180.892 18.2091 180.159 18.2091C178.692 18.3457 176.784 18.4822 174.29 18.4822C169.449 18.4822 162.994 18.2091 156.686 17.9359C150.231 17.6628 143.922 17.3896 139.081 16.9799C134.093 16.7067 131.012 16.4336 131.012 16.4336Z" fill="black"/>
<path d="M46.5105 17.119C46.5105 17.119 51.4985 16.8458 58.8338 16.4361C66.1691 16.0264 75.9983 15.48 85.8276 15.2069C88.3216 15.2069 90.8156 15.0703 93.1629 15.0703C95.6569 15.0703 98.0042 15.2069 100.351 15.2069C102.699 15.2069 104.899 15.3435 106.953 15.3435C109.007 15.3435 111.061 15.3435 112.968 15.48C116.636 15.6166 119.717 15.7532 121.917 15.8898C124.118 16.0263 125.291 16.1629 125.291 16.1629C125.291 16.1629 124.118 16.1629 121.917 16.1629C119.717 16.1629 116.636 16.0263 112.968 15.8898C111.061 15.7532 109.154 15.7532 106.953 15.7532C104.899 15.7532 102.552 15.6166 100.351 15.6166C98.0042 15.6166 95.6569 15.48 93.3096 15.48C90.8156 15.48 88.4683 15.48 85.9743 15.6166C75.9983 15.8898 66.1691 16.4361 58.8338 16.7092C55.1661 16.8458 52.0853 16.9824 49.8847 16.9824C47.6841 17.119 46.5105 17.119 46.5105 17.119Z" fill="black"/>
<path d="M8.95312 12.6094C8.95312 12.6094 11.007 12.6094 14.2345 13.0191C17.4621 13.2923 21.5698 13.9751 25.8243 14.658C29.932 15.3409 34.1865 16.1604 37.2673 16.5701C40.3481 16.9798 42.5487 17.253 42.5487 17.253C42.5487 17.253 41.9619 17.253 41.0817 17.253C40.2014 17.253 38.8811 17.1164 37.2673 16.9798C34.0398 16.5701 29.932 15.8872 25.6776 15.2043C21.5698 14.5215 17.3153 13.8386 14.2345 13.4288C11.007 12.8825 8.95312 12.6094 8.95312 12.6094Z" fill="black"/>
<path d="M2.93895 12.3359C2.93895 12.3359 3.96588 12.3359 4.84612 12.4725C5.87306 12.4725 6.75329 12.6091 6.75329 12.6091C6.75329 12.6091 5.72635 12.6091 4.84612 12.7457C3.81918 12.7457 2.93895 12.8822 2.93895 12.8822C2.79224 12.8822 2.79224 12.8822 2.79224 12.7457C2.79224 12.4725 2.79224 12.3359 2.93895 12.3359Z" fill="black"/>
<path d="M225.931 17.6621C225.931 17.6621 227.105 17.9353 228.132 18.345C229.306 18.7547 230.333 19.0279 230.333 19.0279C230.479 19.0279 230.479 19.1645 230.479 19.301C230.479 19.4376 230.333 19.4376 230.186 19.4376C230.186 19.4376 229.159 19.0279 227.985 18.4816C226.958 18.0718 225.931 17.6621 225.931 17.6621Z" fill="black"/>
<path d="M189.401 16.0234C189.401 16.0234 191.602 15.7503 194.829 15.4771C198.057 15.204 202.458 15.0674 206.859 15.204C211.261 15.3405 215.515 15.6137 218.743 16.16C220.356 16.4332 221.677 16.7063 222.557 16.8429C223.437 17.116 224.024 17.2526 224.024 17.2526C224.024 17.2526 223.437 17.116 222.557 16.9795C221.677 16.8429 220.21 16.5697 218.743 16.4332C215.515 16.0234 211.261 15.6137 206.859 15.6137C202.458 15.4771 198.204 15.6137 194.976 15.7503C191.602 16.0234 189.401 16.0234 189.401 16.0234Z" fill="black"/>
<path d="M130.426 15.0703C130.426 15.0703 133.8 15.2069 139.082 15.3435C144.217 15.48 151.112 15.8898 158.007 16.2995C164.902 16.7092 171.797 17.119 176.932 16.9824C179.573 16.9824 181.627 16.8458 183.094 16.7092C184.561 16.5727 185.441 16.5727 185.441 16.5727C185.441 16.5727 184.561 16.7092 183.094 16.8458C181.627 16.9824 179.426 17.2555 176.932 17.2555C171.797 17.2555 164.902 16.8458 158.007 16.4361C151.112 16.0264 144.217 15.7532 139.082 15.48C133.8 15.3435 130.426 15.0703 130.426 15.0703Z" fill="black"/>
<path d="M51.2053 15.7504C51.2053 15.7504 55.7532 15.4773 62.6484 15.2041C69.5435 14.7944 78.6393 14.2481 87.735 14.1115C92.2829 13.9749 96.8308 14.1115 101.232 14.1115C105.486 14.2481 109.447 14.2481 112.968 14.2481C116.343 14.3846 119.277 14.5212 121.184 14.5212C123.238 14.6578 124.265 14.6578 124.265 14.6578C124.265 14.6578 123.091 14.6578 121.184 14.6578C119.13 14.6578 116.343 14.5212 112.968 14.5212C109.594 14.3846 105.486 14.3846 101.232 14.3846C96.9775 14.2481 92.4296 14.2481 87.8817 14.3846C78.786 14.5212 69.6902 15.2041 62.7951 15.4773C59.4208 15.6138 56.4867 15.7504 54.5795 15.7504C52.379 15.7504 51.2053 15.7504 51.2053 15.7504Z" fill="black"/>
<path d="M10.1277 11.3809C10.1277 11.3809 12.6217 11.5174 16.1426 11.9272C19.8103 12.3369 24.5048 13.1564 29.3461 13.9758C34.0407 14.7953 38.882 15.6147 42.5496 15.7513C44.3101 15.8879 45.9239 15.8879 46.9508 15.8879C47.9778 15.8879 48.5646 15.8879 48.5646 15.8879C48.5646 15.8879 47.9778 15.8879 46.9508 16.0245C45.9239 16.0245 44.3101 16.1611 42.5496 16.0245C38.882 15.7513 34.1874 15.0684 29.3461 14.249C24.6516 13.4295 19.8103 12.6101 16.2893 12.0637C14.5289 11.7906 13.0618 11.654 11.8882 11.5174C10.7145 11.5174 10.1277 11.3809 10.1277 11.3809Z" fill="black"/>
<path d="M3.08567 11.1055C3.08567 11.1055 4.40602 11.1055 5.72637 11.1055C7.04672 11.1055 8.36707 11.242 8.36707 11.242C8.36707 11.242 7.04672 11.242 5.72637 11.3786C4.40602 11.3786 3.08567 11.3786 3.08567 11.3786C2.93896 11.3786 2.93896 11.3786 2.93896 11.242C2.93896 11.1055 2.93896 11.1055 3.08567 11.1055Z" fill="black"/>
<path d="M228.279 17.5293L230.48 18.2122C230.626 18.2122 230.626 18.3488 230.626 18.4853C230.626 18.6219 230.48 18.6219 230.333 18.6219L228.279 17.5293Z" fill="black"/>
<path d="M186.614 15.341C186.614 15.341 187.201 15.2044 188.228 15.0678C189.255 14.9312 190.722 14.7946 192.629 14.5215C196.297 14.1118 201.138 13.9752 205.979 14.1118C210.821 14.2483 215.662 14.6581 219.33 15.2044C221.09 15.4775 222.557 15.8873 223.584 16.1604C224.611 16.4336 225.198 16.5701 225.198 16.5701C225.198 16.5701 224.611 16.4336 223.584 16.297C222.997 16.1604 222.41 16.1604 221.677 16.0238C220.943 15.8873 220.063 15.7507 219.183 15.6141C215.662 15.0678 210.821 14.5215 205.979 14.5215C201.138 14.3849 196.297 14.6581 192.629 14.7946C190.869 14.9312 189.255 15.0678 188.228 15.2044C187.201 15.2044 186.614 15.341 186.614 15.341Z" fill="black"/>
<path d="M132.333 13.7012C132.333 13.7012 135.561 13.7012 140.402 13.9743C142.749 14.1109 145.683 14.2475 148.617 14.3841C151.698 14.5206 154.779 14.6572 158.007 14.9304C164.462 15.3401 170.77 15.8864 175.611 15.8864C177.958 15.8864 180.012 15.8864 181.479 15.8864C182.946 15.7498 183.68 15.7498 183.68 15.7498C183.68 15.7498 182.946 15.8864 181.479 16.023C180.012 16.1596 178.105 16.2961 175.611 16.2961C170.77 16.1596 164.315 15.7498 158.007 15.3401C154.779 15.0669 151.551 14.9304 148.617 14.7938C145.537 14.6572 142.749 14.5206 140.402 14.3841C135.561 13.9743 132.333 13.7012 132.333 13.7012Z" fill="black"/>
<path d="M46.5105 14.7958C46.5105 14.7958 47.8309 14.7958 50.0314 14.6592C52.232 14.6592 55.3128 14.5226 59.1272 14.2495C66.6092 13.8397 76.7319 13.1568 86.8546 12.8837C91.8426 12.7471 96.9773 12.7471 101.672 12.8837C106.366 12.8837 110.768 12.8837 114.582 13.0203C118.396 13.1568 121.477 13.2934 123.678 13.2934C125.878 13.43 127.199 13.43 127.199 13.43C127.199 13.43 125.878 13.43 123.678 13.43C121.477 13.43 118.396 13.2934 114.582 13.2934C110.768 13.1568 106.366 13.1568 101.672 13.1568C96.9773 13.1568 91.8426 13.0203 86.8546 13.1568C76.7319 13.43 66.7559 14.2495 59.1272 14.5226C55.3128 14.6592 52.232 14.7958 50.0314 14.7958C47.6841 14.7958 46.5105 14.7958 46.5105 14.7958Z" fill="black"/>
<path d="M9.24756 10.1484C9.24756 10.1484 11.3014 10.1484 14.529 10.5582C17.7565 10.8313 21.8642 11.5142 26.1187 12.1971C30.2265 12.88 34.4809 13.6994 37.5618 14.1092C40.6426 14.5189 42.8432 14.7921 42.8432 14.7921C42.8432 14.7921 42.2563 14.7921 41.3761 14.7921C40.4959 14.7921 39.1755 14.6555 37.5618 14.3823C34.4809 13.9726 30.2265 13.2897 26.1187 12.4702C22.011 11.6508 17.7565 11.1045 14.6757 10.6947C13.0619 10.4216 11.7416 10.4216 10.8613 10.285C9.68767 10.1484 9.24756 10.1484 9.24756 10.1484Z" fill="black"/>
<path d="M3.37911 9.87891C3.37911 9.87891 4.40604 9.87891 5.43298 10.0155C6.45992 10.0155 7.48686 10.0155 7.48686 10.0155C7.48686 10.0155 6.45992 10.0155 5.43298 10.0155C4.40604 10.0155 3.37911 10.1521 3.37911 10.1521C3.2324 10.1521 3.2324 10.1521 3.2324 10.0155C3.08569 9.87891 3.2324 9.87891 3.37911 9.87891Z" fill="black"/>
<path d="M225.344 15.7539C225.344 15.7539 225.638 15.8905 226.224 16.0271C226.665 16.1636 227.398 16.3002 227.985 16.5734C229.305 16.9831 230.479 17.3928 230.479 17.3928C230.626 17.3928 230.626 17.5294 230.626 17.666C230.626 17.8026 230.479 17.8026 230.332 17.8026C230.332 17.8026 229.012 17.2563 227.838 16.8465C227.251 16.5734 226.518 16.3002 226.078 16.1636C225.638 15.8905 225.344 15.7539 225.344 15.7539Z" fill="black"/>
<path d="M192.043 13.5657C192.043 13.5657 192.483 13.5657 193.363 13.4291C194.243 13.2926 195.417 13.2926 196.884 13.156C199.818 12.8828 203.632 12.8828 207.594 13.0194C211.555 13.156 215.369 13.5657 218.303 14.112C219.77 14.3852 220.944 14.6583 221.824 14.7949C222.704 15.0681 223.144 15.2046 223.144 15.2046C223.144 15.2046 221.237 14.9315 218.303 14.5217C216.836 14.2486 215.222 14.112 213.315 13.9754C211.555 13.8389 209.501 13.7023 207.594 13.5657C203.779 13.4291 199.818 13.4291 196.884 13.5657C193.95 13.5657 192.043 13.5657 192.043 13.5657Z" fill="black"/>
<path d="M132.48 12.2012C132.48 12.2012 136.001 12.3377 141.135 12.4743C143.776 12.6109 146.71 12.7475 149.938 12.8841C153.165 13.0206 156.686 13.2938 160.06 13.5669C166.956 14.1133 173.851 14.7961 178.985 14.6596C181.626 14.6596 183.68 14.3864 185.294 14.2498C186.761 14.1133 187.641 14.1132 187.641 14.1132C187.641 14.1132 186.761 14.2498 185.294 14.3864C183.827 14.523 181.626 14.9327 178.985 14.9327C173.851 15.0693 166.956 14.3864 160.06 13.8401C156.686 13.5669 153.165 13.2938 149.938 13.1572C146.71 13.0206 143.629 12.8841 141.135 12.7475C135.854 12.4743 132.48 12.2012 132.48 12.2012Z" fill="black"/>
<path d="M49.0044 13.428C49.0044 13.428 50.178 13.428 52.2319 13.2914C54.2858 13.1548 57.3666 13.0183 60.8876 12.8817C68.0761 12.472 77.612 11.9257 87.1479 11.6525C91.9892 11.5159 96.6837 11.6525 101.232 11.6525C105.779 11.6525 109.887 11.6525 113.555 11.7891C117.076 11.9256 120.157 11.9257 122.211 12.0622C124.264 12.1988 125.438 12.1988 125.438 12.1988C125.438 12.1988 124.264 12.1988 122.211 12.1988C120.157 12.1988 117.076 12.1988 113.555 12.1988C110.034 12.0622 105.779 12.1988 101.378 12.0622C96.8304 12.0622 92.1359 11.9257 87.2946 12.0622C77.7587 12.1988 68.2228 12.8817 61.0343 13.1548C57.5133 13.2914 54.4325 13.428 52.3786 13.428C50.178 13.428 49.0044 13.428 49.0044 13.428Z" fill="black"/>
<path d="M8.51318 8.78516C8.51318 8.78516 9.1 8.78516 10.1269 8.78516C11.1539 8.78516 12.6209 8.92173 14.3814 9.05831C17.9023 9.33146 22.5969 10.1509 27.2915 11.107C31.9861 11.9264 36.534 12.7459 40.0549 13.1556C41.8154 13.2922 43.2824 13.4288 44.3094 13.4288C45.3363 13.4288 45.9231 13.4288 45.9231 13.4288C45.9231 13.4288 45.3363 13.4288 44.3094 13.5654C43.2824 13.5654 41.8154 13.5654 40.0549 13.4288C36.534 13.019 31.8394 12.1996 27.1448 11.3801C22.4502 10.5607 17.9023 9.74119 14.3814 9.33146C12.6209 9.05831 11.1539 8.92173 10.1269 8.92173C9.1 8.78516 8.51318 8.78516 8.51318 8.78516Z" fill="black"/>
<path d="M3.52561 8.50977C3.52561 8.50977 4.11243 8.50977 4.84596 8.50977C5.43279 8.50977 6.16631 8.64634 6.16631 8.64634C6.16631 8.64634 5.57949 8.64634 4.84596 8.78292C4.25914 8.78292 3.52561 8.9195 3.52561 8.9195C3.3789 8.9195 3.37891 8.9195 3.37891 8.78292C3.37891 8.64634 3.3789 8.50977 3.52561 8.50977Z" fill="black"/>
<path d="M225.491 14.7949C225.491 14.7949 226.811 15.2047 227.985 15.4778C229.305 15.8875 230.479 16.2973 230.479 16.2973C230.626 16.2973 230.626 16.4338 230.626 16.5704C230.626 16.707 230.479 16.707 230.332 16.707C230.332 16.707 229.159 16.1607 227.838 15.751C226.811 15.2047 225.491 14.7949 225.491 14.7949Z" fill="black"/>
<path d="M187.641 13.0206C187.641 13.0206 188.228 12.8841 189.108 12.7475C190.135 12.6109 191.455 12.4743 193.069 12.2012C196.297 11.7915 200.845 11.6549 205.246 11.7915C209.647 11.928 214.048 12.3378 217.422 12.8841C219.036 13.1572 220.356 13.4304 221.383 13.7035C222.264 13.9767 222.85 14.1133 222.85 14.1133C222.85 14.1133 222.264 13.9767 221.383 13.8401C220.503 13.7035 219.036 13.4304 217.422 13.1572C214.195 12.6109 209.794 12.2012 205.392 12.0646C200.991 11.928 196.59 12.0646 193.216 12.3378C191.602 12.4743 190.135 12.6109 189.255 12.7475C188.081 13.0206 187.641 13.0206 187.641 13.0206Z" fill="black"/>
<path d="M133.213 10.8359C133.213 10.8359 136.44 10.8359 141.135 11.1091C143.482 11.2457 146.27 11.2457 149.204 11.3822C150.671 11.3822 152.285 11.5188 153.752 11.6554C155.365 11.792 156.833 11.9286 158.446 12.0651C164.755 12.6114 171.063 13.4309 175.758 13.5675C178.105 13.7041 180.159 13.7041 181.479 13.5675C182.799 13.5675 183.68 13.4309 183.68 13.4309C183.68 13.4309 182.946 13.5675 181.479 13.7041C180.159 13.8406 178.105 13.9772 175.758 13.8406C170.916 13.7041 164.755 13.0212 158.446 12.3383C156.833 12.2017 155.219 12.0651 153.752 11.9286C152.138 11.792 150.671 11.6554 149.204 11.6554C146.27 11.5188 143.482 11.3822 141.135 11.2457C136.294 11.1091 133.213 10.8359 133.213 10.8359Z" fill="black"/>
<path d="M48.8574 12.4707C48.8574 12.4707 50.1778 12.4707 52.3784 12.3341C54.5789 12.1975 57.6598 12.061 61.4741 11.9244C68.9561 11.3781 79.0788 10.6952 89.0548 10.422C94.0428 10.2855 99.1775 10.422 103.872 10.422C108.567 10.422 112.968 10.422 116.782 10.5586C120.597 10.6952 123.677 10.6952 125.878 10.6952C128.078 10.8318 129.399 10.8318 129.399 10.8318C129.399 10.8318 128.078 10.8318 125.878 10.8318C123.677 10.8318 120.597 10.8318 116.782 10.8318C112.968 10.8318 108.567 10.6952 103.872 10.6952C99.1775 10.6952 94.1895 10.6952 89.0548 10.6952C78.9321 10.8318 68.9561 11.7878 61.4741 12.061C57.6598 12.1975 54.5789 12.3341 52.3784 12.3341C50.1778 12.4707 48.8574 12.4707 48.8574 12.4707Z" fill="black"/>
<path d="M10.5681 7.55664C10.5681 7.55664 12.7687 7.55664 15.8495 7.96637C19.077 8.23953 23.1848 8.92241 27.4393 9.74187C31.547 10.5613 35.8015 11.2442 38.8823 11.7905C40.4961 12.0637 41.8164 12.2003 42.6967 12.3368C43.5769 12.4734 44.1637 12.4734 44.1637 12.4734C44.1637 12.4734 43.5769 12.4734 42.6967 12.4734C41.8164 12.4734 40.4961 12.3368 38.8823 12.2003C35.6548 11.7905 31.547 10.9711 27.2926 10.2882C23.1848 9.46872 18.9303 8.78583 15.7028 8.3761C14.0891 8.10295 12.7687 7.96637 11.8885 7.96637C11.1549 7.69322 10.5681 7.55664 10.5681 7.55664Z" fill="black"/>
<path d="M3.67234 7.2832C3.67234 7.2832 3.96575 7.2832 4.55258 7.2832C4.99269 7.2832 5.72622 7.2832 6.45975 7.41978C7.7801 7.41978 9.10045 7.55636 9.10045 7.55636C9.10045 7.55636 7.7801 7.55636 6.45975 7.55636C5.72622 7.55636 5.1394 7.55636 4.55258 7.55636C4.11246 7.55636 3.67234 7.55636 3.67234 7.55636C3.52564 7.55636 3.52563 7.55636 3.52563 7.41978C3.52563 7.2832 3.67234 7.2832 3.67234 7.2832Z" fill="black"/>
<path d="M222.703 13.0156C222.703 13.0156 224.757 13.5619 226.811 14.1082C228.865 14.7911 230.772 15.3374 230.772 15.3374C230.919 15.3374 230.919 15.474 230.919 15.6106C230.919 15.7472 230.772 15.7472 230.625 15.7472C230.625 15.7472 228.718 15.0643 226.664 14.3814C224.757 13.6985 222.703 13.0156 222.703 13.0156Z" fill="black"/>
<path d="M192.923 11.2416C192.923 11.2416 193.363 11.2416 194.097 11.105C194.83 10.9684 195.857 10.9684 197.177 10.8318C199.818 10.6952 203.192 10.5587 206.713 10.6952C210.234 10.8318 213.608 11.2416 216.102 11.6513C217.423 11.9244 218.45 12.061 219.183 12.1976C219.917 12.3342 220.357 12.4707 220.357 12.4707C220.357 12.4707 219.917 12.4707 219.183 12.3342C218.45 12.1976 217.423 12.061 216.102 11.9244C213.608 11.5147 210.087 11.2416 206.713 10.9684C203.339 10.8318 199.818 10.8318 197.324 10.9684C194.537 11.2416 192.923 11.2416 192.923 11.2416Z" fill="black"/>
<path d="M132.04 9.33398C132.04 9.33398 135.56 9.33398 140.695 9.60714C143.336 9.74372 146.417 9.88029 149.644 10.0169C152.872 10.1534 156.393 10.5632 159.767 10.8363C163.288 11.2461 166.662 11.6558 169.89 11.9289C173.117 12.2021 176.198 12.4753 178.839 12.4753C181.479 12.4753 183.533 12.3387 185.147 12.2021C186.614 12.0655 187.494 12.0655 187.494 12.0655C187.494 12.0655 186.614 12.2021 185.147 12.3387C183.68 12.4753 181.479 12.7484 178.839 12.7484C176.198 12.7484 173.117 12.6118 169.89 12.2021C166.662 11.9289 163.141 11.5192 159.767 11.1095C156.246 10.6998 152.872 10.29 149.644 10.1534C146.417 10.0169 143.336 9.88029 140.695 9.74372C135.56 9.60714 132.04 9.33398 132.04 9.33398Z" fill="black"/>
<path d="M57.9534 10.9708C57.9534 10.9708 62.2078 10.6977 68.6629 10.1514C75.1179 9.60506 83.6269 9.05875 92.2825 9.05875C100.791 9.05875 109.447 8.92217 115.902 9.05875C119.13 9.05875 121.77 9.19532 123.678 9.19532C125.585 9.19532 126.612 9.3319 126.612 9.3319C126.612 9.3319 125.585 9.3319 123.678 9.3319C121.77 9.3319 119.13 9.3319 115.902 9.3319C109.447 9.3319 100.938 9.3319 92.2825 9.3319C83.7736 9.3319 75.1179 10.0148 68.8096 10.4245C65.5821 10.5611 62.9414 10.8342 61.0342 10.8342C58.9803 10.9708 57.9534 10.9708 57.9534 10.9708Z" fill="black"/>
<path d="M8.22021 6.19141C8.22021 6.19141 8.95374 6.19141 10.1274 6.19141C11.301 6.19141 13.0615 6.32798 15.1154 6.60114C19.2231 7.01087 24.798 7.96691 30.2261 8.92295C35.6542 9.87899 41.0823 10.9716 45.3368 10.9716C47.3906 11.1082 49.1511 11.1082 50.3247 11.1082C51.4984 11.1082 52.2319 11.2448 52.2319 11.2448C52.2319 11.2448 51.4984 11.3813 50.3247 11.3813C49.1511 11.3813 47.3906 11.5179 45.3368 11.3813C41.0823 11.3813 35.6542 10.2887 30.2261 9.33268C24.798 8.24006 19.3698 7.4206 15.2621 6.87429C13.2082 6.60114 11.4477 6.46456 10.2741 6.32798C8.95375 6.32798 8.22021 6.19141 8.22021 6.19141Z" fill="black"/>
<path d="M3.96531 6.05664C3.96531 6.05664 4.55213 6.05664 5.28566 6.05664C5.87248 6.05664 6.60601 6.19322 6.60601 6.19322C6.60601 6.19322 6.01919 6.19322 5.28566 6.32979C4.69884 6.32979 3.96531 6.46637 3.96531 6.46637C3.8186 6.46637 3.8186 6.46637 3.8186 6.32979C3.8186 6.19322 3.8186 6.05664 3.96531 6.05664Z" fill="black"/>
<path d="M225.344 12.8848L230.772 14.5237C230.919 14.5237 230.919 14.6603 230.919 14.7968C230.919 14.9334 230.772 14.9334 230.626 14.9334L225.344 12.8848Z" fill="black"/>
<path d="M191.309 10.2882C191.309 10.2882 191.749 10.2882 192.482 10.1516C193.216 10.0151 194.39 9.87849 195.71 9.74191C198.351 9.46876 202.018 9.46876 205.539 9.60534C209.207 9.74191 212.728 10.1516 215.369 10.5614C216.689 10.8345 217.863 10.9711 218.596 11.2443C219.33 11.5174 219.77 11.5174 219.77 11.5174C219.77 11.5174 219.33 11.5174 218.596 11.3808C217.863 11.2443 216.689 11.1077 215.369 10.9711C212.728 10.5614 209.207 10.1516 205.539 10.0151C202.018 9.87849 198.351 9.87849 195.71 10.0151C194.39 10.0151 193.216 10.1516 192.482 10.2882C191.749 10.2882 191.309 10.2882 191.309 10.2882Z" fill="black"/>
<path d="M133.213 7.9668C133.213 7.9668 136.441 7.9668 141.135 8.23995C143.483 8.37653 146.27 8.37653 149.351 8.5131C150.818 8.5131 152.432 8.64968 153.899 8.78626C155.513 8.92284 156.98 9.05941 158.593 9.33257C164.902 10.152 171.21 11.1081 176.051 11.2446C178.399 11.3812 180.453 11.3812 181.773 11.3812C183.093 11.3812 183.974 11.3812 183.974 11.3812C183.974 11.3812 183.24 11.5178 181.773 11.6544C180.453 11.791 178.399 11.791 176.051 11.6544C171.21 11.3812 164.902 10.4252 158.593 9.7423C156.98 9.60572 155.366 9.33257 153.899 9.19599C152.285 9.05941 150.818 8.92284 149.351 8.92284C146.417 8.78626 143.629 8.64968 141.135 8.5131C136.294 8.10337 133.213 7.9668 133.213 7.9668Z" fill="black"/>
<path d="M51.3521 10.148C51.3521 10.148 52.5257 10.0114 54.7263 10.0114C56.9269 9.87483 59.861 9.73825 63.5286 9.4651C70.8639 8.91879 80.6932 8.09933 90.3758 7.96275C100.205 7.82617 110.034 7.82617 117.37 7.82617C121.037 7.82617 124.118 7.96275 126.319 7.96275C128.519 7.96275 129.693 8.09933 129.693 8.09933C129.693 8.09933 128.519 8.09933 126.319 8.2359C124.118 8.2359 121.184 8.2359 117.37 8.37248C110.034 8.37248 100.205 8.37248 90.3758 8.50906C80.5465 8.64563 70.8639 9.4651 63.5286 9.87483C59.861 10.148 56.7802 10.2846 54.7263 10.2846C52.6724 10.148 51.3521 10.148 51.3521 10.148Z" fill="black"/>
<path d="M11.1543 5.09766C11.1543 5.09766 11.7411 5.09766 12.7681 5.23423C13.795 5.23423 15.2621 5.37081 17.0225 5.64397C20.5435 6.0537 25.0913 6.87316 29.6392 7.69262C34.1871 8.51208 38.735 9.46812 42.2559 9.87785C44.0164 10.151 45.4834 10.151 46.5104 10.2876C47.5373 10.4242 48.1241 10.4242 48.1241 10.4242C48.1241 10.4242 47.5373 10.4242 46.5104 10.4242C45.4834 10.4242 44.0164 10.4242 42.2559 10.2876C38.735 9.87785 34.1871 9.05839 29.6392 8.10235C25.0913 7.14631 20.3968 6.46343 17.0225 5.91712C15.2621 5.64396 13.795 5.50739 12.7681 5.37081C11.7411 5.09766 11.1543 5.09766 11.1543 5.09766Z" fill="black"/>
<path d="M4.11229 4.82617C4.11229 4.82617 4.4057 4.82617 4.84581 4.82617C5.28593 4.82617 5.87275 4.82617 6.45957 4.96275C7.63322 5.09933 8.80687 5.09933 8.80687 5.09933C8.80687 5.09933 7.63322 5.09933 6.45957 5.09933C5.87275 5.09933 5.28593 5.09933 4.84581 5.09933C4.4057 5.09933 4.11229 5.09933 4.11229 5.09933C3.96558 5.09933 3.96558 5.09933 3.96558 4.96275C3.96558 4.82617 4.11229 4.82617 4.11229 4.82617Z" fill="black"/>
<path d="M221.384 10.8359C221.384 10.8359 223.731 11.5188 226.225 12.2017C227.399 12.4749 228.572 12.8846 229.453 13.1577C230.333 13.4309 230.92 13.5675 230.92 13.5675C231.066 13.5675 231.066 13.7041 231.066 13.8406C231.066 13.9772 230.92 13.9772 230.773 13.9772C230.773 13.9772 230.186 13.7041 229.306 13.4309C228.426 13.1577 227.252 12.748 226.078 12.3383C223.731 11.5188 221.384 10.8359 221.384 10.8359Z" fill="black"/>
<path d="M190.722 9.19545C190.722 9.19545 192.336 8.9223 194.83 8.78572C197.324 8.51257 200.698 8.37599 204.072 8.51256C207.447 8.64914 210.674 8.9223 213.168 9.33203C215.662 9.74176 217.276 10.1515 217.276 10.1515C217.276 10.1515 215.662 10.0149 213.168 9.60518C210.674 9.19545 207.447 8.9223 204.072 8.78572C200.698 8.64914 197.471 8.78572 194.977 8.9223C192.336 9.19545 190.722 9.19545 190.722 9.19545Z" fill="black"/>
<path d="M132.48 6.46484C132.48 6.46484 136.001 6.46484 141.135 6.60142C143.776 6.60142 146.857 6.738 150.084 7.01115C153.312 7.28431 156.833 7.69404 160.207 8.24035C163.581 8.78665 167.102 9.33296 170.33 9.60612C173.557 10.0158 176.638 10.289 179.132 10.289C181.773 10.289 183.973 10.1524 185.44 10.1524C186.908 10.1524 187.788 10.0158 187.788 10.0158C187.788 10.0158 186.908 10.1524 185.44 10.289C183.973 10.4256 181.773 10.6987 179.132 10.6987C176.491 10.6987 173.411 10.4256 170.183 10.0158C166.956 9.60612 163.581 9.05981 160.06 8.5135C156.686 7.96719 153.165 7.55746 149.938 7.28431C146.71 7.01115 143.629 6.87458 140.989 6.738C135.854 6.60142 132.48 6.46484 132.48 6.46484Z" fill="black"/>
<path d="M58.687 8.51322C58.687 8.51322 62.9415 8.10348 69.3965 7.55718C75.8516 7.01087 84.5072 6.46456 93.0161 6.46456C101.672 6.32798 110.327 6.32798 116.782 6.19141C120.01 6.19141 122.651 6.19141 124.558 6.19141C126.465 6.19141 127.492 6.19141 127.492 6.19141C127.492 6.19141 126.465 6.19141 124.558 6.32798C122.651 6.32798 120.01 6.46456 116.782 6.46456C110.327 6.46456 101.672 6.60114 93.0161 6.60114C88.7617 6.60114 84.3605 6.73771 80.3994 7.01087C76.4384 7.28402 72.624 7.4206 69.3965 7.69375C66.169 7.96691 63.5283 8.10348 61.6211 8.24006C59.8607 8.51322 58.687 8.51322 58.687 8.51322Z" fill="black"/>
<path d="M9.8335 3.73047C9.8335 3.73047 10.567 3.73047 11.7407 3.73047C12.9143 3.73047 14.6748 3.86705 16.8754 4.1402C21.1298 4.54993 26.7047 5.64255 32.1328 6.73516C34.9202 7.28147 37.7076 7.82778 40.2016 8.23751C41.5219 8.37409 42.8423 8.64724 44.0159 8.64724C45.1896 8.64724 46.3632 8.78382 47.3901 8.78382C51.6446 8.78382 54.432 8.9204 54.432 8.9204C54.432 8.9204 51.6446 9.05697 47.3901 9.05697C46.3632 9.05697 45.1896 8.9204 44.0159 8.9204C42.8423 8.9204 41.5219 8.64724 40.2016 8.51066C37.5609 8.10093 34.7735 7.55463 31.9861 7.00832C29.1987 6.46201 26.4112 5.9157 23.9172 5.50597C21.2765 5.09624 18.9292 4.68651 16.7287 4.41335C14.6748 4.1402 12.9143 4.00362 11.594 3.86705C10.567 3.73047 9.8335 3.73047 9.8335 3.73047Z" fill="black"/>
<path d="M4.40599 3.5957C4.40599 3.5957 5.43292 3.5957 6.45986 3.5957C7.4868 3.5957 8.51374 3.73228 8.51374 3.73228C8.51374 3.73228 7.4868 3.73228 6.45986 3.73228C5.43292 3.73228 4.40599 3.86886 4.40599 3.86886C4.25928 3.86886 4.25928 3.86886 4.25928 3.73228C4.25928 3.5957 4.25928 3.5957 4.40599 3.5957Z" fill="black"/>
<path d="M6.60637 17.937C6.60637 17.937 6.45966 17.8005 6.31296 17.5273C6.16625 17.2542 6.01954 16.7079 6.31296 16.1615C6.45966 16.025 6.45966 15.8884 6.75307 15.7518C6.89978 15.7518 6.89978 15.6152 7.04648 15.6152H7.19319C7.19319 15.6152 7.33989 15.6152 7.4866 15.7518C7.63331 16.025 7.78001 16.2981 7.92672 16.7078C8.22013 17.3907 8.36683 18.2102 8.36683 18.8931C8.51354 20.3954 8.36683 21.8978 8.66024 22.9904C8.80695 23.5367 8.95366 23.9464 8.95366 24.2196C9.10036 24.4927 9.10036 24.7659 9.10036 24.7659C9.10036 24.7659 8.95366 24.6293 8.80695 24.3562C8.66025 24.083 8.36683 23.6733 8.22013 23.127C7.92672 22.0344 7.92672 20.532 7.92672 19.0297C7.92672 18.3468 7.78001 17.5273 7.4866 16.981C7.33989 16.7079 7.19319 16.2981 7.04648 16.1615C7.04648 16.1615 7.04648 16.1615 6.89978 16.1615H6.75307C6.60637 16.1615 6.60636 16.2981 6.45966 16.4347C6.16625 16.8444 6.31296 17.3907 6.31296 17.6639C6.45966 17.6639 6.60637 17.937 6.60637 17.937Z" fill="black"/>
<path d="M144.07 30.4989C144.07 30.4989 144.656 29.5428 145.537 28.177C146.564 26.8113 147.884 25.1723 149.498 23.5334C150.231 22.714 151.111 22.0311 151.992 21.3482C152.432 21.075 152.872 20.8019 153.312 20.5287C153.752 20.2556 154.192 20.119 154.632 19.9824C154.779 19.9824 155.219 19.9824 155.366 20.2556C155.366 20.5287 155.366 20.6653 155.366 20.8019C155.366 21.075 155.366 21.3482 155.219 21.6213C155.219 22.0311 155.073 22.3042 155.073 22.3042C155.073 22.3042 155.073 22.0311 155.073 21.6213C155.073 21.3482 155.073 21.075 155.073 20.8019C155.073 20.6653 155.073 20.3922 155.073 20.3922C155.073 20.2556 154.926 20.2556 154.779 20.2556C154.339 20.2556 154.046 20.5287 153.605 20.8019C153.165 21.075 152.725 21.3482 152.432 21.6213C151.552 22.3042 150.818 22.9871 149.938 23.8066C148.324 25.3089 146.857 27.0844 145.83 28.3136C144.803 29.6794 144.07 30.4989 144.07 30.4989Z" fill="black"/>
<path d="M170.183 35.557C170.183 35.557 170.477 35.2838 170.917 34.7375C171.357 34.1912 172.09 33.5083 172.971 32.5523C174.584 30.7768 176.932 28.455 179.279 26.2697C180.453 25.1771 181.626 23.9479 182.8 22.9919C183.387 22.4456 183.973 22.0358 184.414 21.4895C184.707 21.2164 184.854 21.0798 185.294 20.8066C185.441 20.8066 185.44 20.8066 185.587 20.8066C185.734 20.8066 185.881 20.9432 185.881 20.9432C186.027 21.0798 186.027 21.3529 186.027 21.4895C185.881 22.1724 185.734 22.5821 185.587 23.1285C185.44 23.5382 185.294 23.9479 185.147 24.2211C184.854 24.904 184.707 25.1771 184.707 25.1771C184.707 25.1771 184.854 24.7674 185 24.0845C185.147 23.8113 185.294 23.4016 185.441 22.8553C185.587 22.4456 185.734 21.8993 185.881 21.3529C185.881 21.2164 185.881 21.0798 185.881 21.0798C185.881 21.0798 185.881 21.0798 185.734 21.0798H185.587C185.44 21.2164 185.147 21.4895 184.854 21.6261C184.267 22.0358 183.827 22.5821 183.24 23.1285C182.066 24.2211 180.893 25.3137 179.719 26.4063C177.372 28.7281 175.024 30.9133 173.264 32.6888C171.503 34.4643 170.183 35.557 170.183 35.557Z" fill="black"/>
<path d="M42.9892 34.0551C42.9892 34.0551 41.8156 32.9625 40.0551 31.187C38.2947 29.5481 35.9474 27.2263 33.6001 25.0411C32.4264 23.9484 31.2528 22.8558 30.0792 21.7632C29.4923 21.2169 29.0522 20.6706 28.4654 20.2609L28.0253 19.9877L27.8786 19.8511C27.8786 19.8511 27.8786 19.8511 27.7319 19.8511C27.5852 19.8511 27.4384 19.8511 27.4384 19.8511C27.4384 19.7146 27.4384 19.9877 27.5852 20.1243C28.3187 22.4461 28.4654 23.9484 28.4654 23.9484C28.4654 23.9484 27.8786 22.4461 27.145 20.2609V19.9877C27.145 19.9877 26.9983 19.7146 27.145 19.578C27.4384 19.4414 27.5852 19.4414 27.7319 19.4414C27.8786 19.4414 28.0253 19.4414 28.0253 19.578L28.172 19.7146L28.6121 20.1243C29.0522 20.6706 29.639 21.0803 30.2259 21.6266C31.3995 22.7193 32.5731 23.8119 33.7468 24.9045C36.0941 27.0897 38.4414 29.4115 40.2018 31.187C41.9623 32.826 42.9892 34.0551 42.9892 34.0551Z" fill="black"/>
<path d="M21.57 206.004C21.57 206.004 21.57 206.14 21.7167 206.55C21.7167 206.687 21.7167 206.96 21.8634 207.097C22.0101 207.37 22.0101 207.506 22.1568 207.779C22.4502 208.326 22.5969 208.872 23.037 209.555C23.4771 210.238 23.9173 210.784 24.5041 211.33C25.531 212.56 26.7047 213.652 27.2915 214.745C27.5849 215.291 27.7316 215.701 27.8783 216.111C27.8783 216.384 27.8783 216.657 27.8783 216.657C27.8783 216.657 27.8783 216.52 27.7316 216.111C27.5849 215.837 27.4382 215.291 26.9981 214.881C26.2646 213.925 25.0909 212.833 24.064 211.604C23.4771 211.057 23.037 210.374 22.5969 209.691C22.1568 209.009 21.8634 208.462 21.57 207.916C21.4233 207.643 21.4233 207.37 21.2766 207.097C21.1299 206.823 21.1299 206.687 21.1299 206.55C21.1299 206.277 20.9832 206.004 20.9832 206.004H21.57Z" fill="black"/>
<path d="M205.539 194.666C205.539 194.666 205.539 194.803 205.392 195.212C205.392 195.485 205.246 196.032 204.952 196.578C204.512 197.671 203.485 199.036 202.458 200.402C202.018 201.085 201.431 201.631 200.991 202.314C200.551 202.861 200.258 203.544 199.964 204.09C199.818 204.363 199.818 204.636 199.818 204.909C199.818 205.182 199.671 205.319 199.671 205.456C199.671 205.865 199.671 206.002 199.671 206.002C199.671 206.002 199.671 205.865 199.524 205.456C199.524 205.319 199.524 205.046 199.524 204.773C199.524 204.5 199.671 204.226 199.671 203.953C199.964 202.724 200.991 201.358 202.018 200.129C203.045 198.9 203.925 197.534 204.365 196.442C204.512 196.168 204.512 195.895 204.659 195.759C204.806 195.485 204.806 195.349 204.806 195.212C204.952 194.939 204.952 194.666 204.952 194.666H205.539Z" fill="black"/>
<path d="M208.62 225.533C208.62 225.533 208.62 225.67 208.473 225.943C208.326 226.216 208.179 226.762 208.033 227.172C207.593 228.128 206.712 229.357 205.832 230.45C205.392 230.996 204.952 231.679 204.658 232.225C204.218 232.772 203.925 233.318 203.778 233.864C203.632 234.411 203.485 234.82 203.485 235.094C203.485 235.367 203.485 235.64 203.485 235.64C203.485 235.64 203.485 235.503 203.485 235.094C203.485 234.82 203.485 234.274 203.632 233.864C203.925 232.772 204.805 231.543 205.685 230.45C206.566 229.221 207.446 228.128 207.886 227.172C208.179 226.762 208.326 226.353 208.326 226.08C208.473 225.806 208.473 225.67 208.473 225.67L208.62 225.533Z" fill="black"/>
<path d="M205.54 32.6895C205.54 32.6895 205.54 32.553 205.687 32.4164C205.833 32.2798 205.98 31.8701 206.273 31.5969C206.567 31.3238 206.86 30.914 207.3 30.6409C207.74 30.2311 208.327 29.958 208.914 29.5483C211.261 28.0459 214.782 26.2704 218.156 24.6315C219.037 24.2218 219.917 23.812 220.65 23.4023C221.531 22.9926 222.411 22.5828 223.291 22.4463C223.585 22.4463 223.731 22.3097 224.025 22.5828C224.318 22.856 224.318 23.1291 224.171 23.2657C224.025 23.6754 223.878 24.0852 223.731 24.4949C223.438 25.1778 222.998 25.8607 222.704 26.407C221.384 28.7288 220.21 30.2311 220.21 30.2311C220.21 30.2311 220.944 28.5922 222.411 26.2704C222.704 25.7241 223.144 25.0412 223.438 24.3583C223.731 23.812 224.318 22.5828 223.291 22.856C222.411 22.9926 221.677 23.4023 220.797 23.812C219.917 24.2218 219.037 24.6315 218.303 25.0412C214.929 26.6801 211.555 28.4556 209.061 29.8214C207.887 30.5043 206.86 31.1872 206.273 31.8701C205.98 32.1432 205.833 32.4164 205.687 32.553L205.54 32.6895Z" fill="black"/>
<path d="M20.2497 131.568C20.2497 131.568 20.3964 131.978 20.6898 132.661C20.9832 133.344 21.57 134.163 22.0102 134.983C22.3036 135.393 22.4503 135.802 22.597 136.349C22.7437 136.758 22.8904 137.168 22.8904 137.578C22.8904 137.987 22.8904 138.261 22.7437 138.534C22.597 138.67 22.597 138.807 22.597 138.807C22.597 138.807 22.597 138.67 22.597 138.534C22.597 138.261 22.597 137.987 22.597 137.714C22.4503 137.031 22.0102 136.075 21.57 135.256C21.1299 134.436 20.5431 133.617 20.2497 132.934C20.103 132.661 19.9563 132.251 19.9563 132.115C19.9563 131.842 19.8096 131.842 19.8096 131.842L20.2497 131.568Z" fill="black"/>
<path d="M20.6904 178.279C20.6904 178.279 20.6904 178.142 20.8371 177.869C20.8371 177.596 20.9838 177.323 21.1305 176.913C21.424 176.094 21.8641 175.137 22.3042 174.181C22.7443 173.225 23.3311 172.269 23.6245 171.586C23.7712 171.177 23.7712 170.904 23.7712 170.63C23.7712 170.357 23.6245 170.221 23.6245 170.221C23.6245 170.221 23.6245 170.357 23.7712 170.63C23.7712 170.904 23.918 171.177 23.7712 171.586C23.6245 172.406 23.0377 173.362 22.5976 174.318C22.1575 175.274 21.7174 176.23 21.424 177.05C21.2773 177.459 21.2773 177.732 21.1305 178.006C21.1305 178.279 20.9838 178.415 20.9838 178.415L20.6904 178.279Z" fill="black"/>
<path d="M26.1186 83.627C26.1186 83.627 26.412 84.1733 26.8521 85.1293C27.2922 85.9488 27.879 87.178 28.1725 88.4071C28.6126 89.6363 28.7593 91.0021 28.6126 91.9581C28.6126 92.5045 28.4659 92.7776 28.3192 93.0508C28.1725 93.3239 28.1725 93.4605 28.1725 93.4605C28.1725 93.4605 28.3192 92.7776 28.3192 91.8216C28.3192 90.8655 28.1725 89.6363 27.7323 88.4071C27.2922 87.178 26.8521 86.0853 26.412 85.1293C25.9719 84.3098 25.6785 83.627 25.6785 83.627H26.1186Z" fill="black"/>
<path d="M21.4236 242.742C21.4236 242.742 21.5703 243.152 21.717 243.971C21.717 244.381 21.8637 244.791 22.1571 245.337C22.3038 245.883 22.5972 246.293 23.0373 246.839C23.4774 247.386 23.9176 247.932 24.6511 248.205L25.0912 248.478L25.678 248.752C26.1181 248.888 26.4116 249.161 26.8517 249.298C28.4654 249.844 30.3726 250.254 32.1331 250.8C34.0402 251.21 35.8007 251.893 37.4145 252.439C38.2947 252.849 39.0282 253.122 39.7618 253.532C40.4953 253.942 41.2288 254.215 41.8157 254.624C42.4025 255.034 42.9893 255.307 43.4294 255.717C43.8695 256.127 44.3096 256.4 44.6031 256.673C45.1899 257.219 45.4833 257.493 45.4833 257.493C45.4833 257.493 45.0432 257.219 44.4564 256.81C44.1629 256.536 43.7228 256.263 43.2827 255.99C42.8426 255.717 42.2558 255.307 41.6689 255.034C41.0821 254.624 40.3486 254.351 39.6151 253.942C38.8815 253.532 38.148 253.259 37.2678 252.985C35.654 252.303 33.8935 251.756 31.9864 251.347C30.2259 250.8 28.3187 250.391 26.5583 249.844C26.1181 249.708 25.678 249.571 25.3846 249.298L24.7978 249.025L24.211 248.752C23.4774 248.342 23.0373 247.796 22.4505 247.249C22.1571 246.703 21.717 246.157 21.5703 245.61C21.4236 245.064 21.2769 244.654 21.2769 244.245C21.4236 243.289 21.4236 242.742 21.4236 242.742Z" fill="black"/>
<path d="M86.7078 258.859C86.7078 258.859 86.8545 258.859 87.2946 258.723C87.588 258.723 88.1748 258.586 88.7616 258.723C89.9353 258.723 91.5491 258.996 93.0161 259.406C94.4832 259.815 95.9502 260.225 97.1239 260.362C98.2975 260.635 99.031 260.635 99.031 260.635V260.908C99.031 260.908 98.2975 260.908 97.1239 260.635C95.9502 260.362 94.4832 259.952 93.0161 259.679C91.5491 259.269 90.082 258.996 88.9083 258.859C87.588 258.723 86.7078 258.859 86.7078 258.859Z" fill="black"/>
<path d="M121.917 258.722C121.917 258.722 121.184 258.722 120.303 258.722C119.276 258.722 117.956 258.996 116.782 259.405C115.609 259.815 114.288 260.361 113.408 260.498C112.381 260.771 111.794 260.771 111.794 260.771V260.498C111.794 260.498 112.381 260.361 113.408 260.088C114.288 259.815 115.609 259.405 116.782 258.996C118.103 258.586 119.423 258.449 120.45 258.449C120.89 258.449 121.33 258.586 121.624 258.586C121.77 258.722 121.917 258.722 121.917 258.722Z" fill="black"/>
<path d="M148.911 259.541C148.911 259.541 149.058 259.541 149.351 259.541C149.645 259.541 150.085 259.541 150.525 259.541C151.552 259.541 152.725 259.814 153.899 260.087C155.073 260.36 156.393 260.634 157.273 260.77C157.713 260.77 158.154 260.77 158.3 260.77C158.594 260.77 158.74 260.634 158.74 260.634L158.887 260.907C158.887 260.907 158.74 260.907 158.447 261.043C158.154 261.043 157.713 261.043 157.273 261.043C156.246 260.907 155.073 260.634 153.899 260.36C152.725 260.087 151.405 259.814 150.525 259.678C149.498 259.678 148.911 259.541 148.911 259.541Z" fill="black"/>
<path d="M65.2888 261.316C65.2888 261.316 65.4355 261.316 65.7289 261.316C66.0223 261.316 66.3158 261.316 66.7559 261.316C67.196 261.316 67.6361 261.316 68.2229 261.453C68.8098 261.59 69.2499 261.726 69.8367 261.863C70.8636 262.272 72.0373 262.682 72.7708 262.819C73.651 262.955 74.0912 262.955 74.0912 262.955V263.228C74.0912 263.228 73.5043 263.228 72.6241 263.092C71.7439 262.955 70.7169 262.409 69.69 262.136C69.1032 261.999 68.6631 261.726 68.0762 261.726C67.6361 261.59 67.0493 261.59 66.6092 261.453C65.8756 261.316 65.2888 261.316 65.2888 261.316Z" fill="black"/>
<path d="M17.4629 264.589C17.4629 264.589 19.2234 264.589 21.1305 264.316C22.0108 264.179 22.891 264.043 23.6245 263.906C24.3581 263.77 24.7982 263.77 24.7982 263.77C24.7982 263.77 24.3581 263.906 23.7712 264.179C23.1844 264.316 22.1575 264.589 21.2772 264.726C20.397 264.862 19.5168 264.999 18.7832 264.999C18.0497 264.999 17.6096 264.999 17.6096 264.999L17.4629 264.589Z" fill="black"/>
<path d="M126.465 26.2664C126.465 26.2664 126.612 25.9932 126.759 25.4469C126.905 24.9006 127.199 24.0812 127.639 23.1251C127.932 22.7154 128.079 22.1691 128.666 21.6228C128.959 21.3496 129.399 21.3496 129.693 21.4862C129.986 21.6228 130.28 21.8959 130.573 22.1691C131.453 23.2617 131.893 24.6275 132.04 25.9932C132.187 27.359 132.187 28.7248 132.04 30.0905C131.893 31.3197 131.747 32.5489 131.6 33.505C131.307 35.5536 130.867 36.7828 130.867 36.7828C130.867 36.7828 130.867 36.3731 130.867 35.8268C130.867 35.2805 131.013 34.3244 131.16 33.3684C131.453 31.3197 131.893 28.5882 131.6 25.9932C131.453 24.6275 131.013 23.3983 130.28 22.3057C129.84 21.8959 129.253 21.3496 128.813 21.7594C128.373 22.0325 128.079 22.5788 127.932 22.9885C127.492 23.9446 127.199 24.764 126.905 25.3104C126.759 25.9932 126.465 26.2664 126.465 26.2664Z" fill="black"/>
<path d="M77.172 26.5372C77.172 26.5372 77.172 26.264 77.0253 25.8543C76.8786 25.4445 76.7319 24.8982 76.5852 24.2153C76.5852 23.8056 76.4385 23.5325 76.4385 23.1227C76.4385 22.713 76.4385 22.3033 76.5852 21.757C76.7319 21.2107 77.4654 20.9375 77.9055 20.9375C78.4924 20.9375 79.0792 21.0741 79.3726 21.4838C80.2528 22.1667 80.6929 22.9862 81.2798 23.8056C81.7199 24.6251 82.0133 25.4445 82.3067 25.9909C82.8935 27.3566 83.0402 28.3127 83.0402 28.3127C83.0402 28.3127 82.6001 27.4932 82.0133 26.1274C81.7199 25.4445 81.4265 24.7617 80.9864 23.9422C80.5462 23.1227 79.9594 22.3033 79.2259 21.757C78.7858 21.4838 78.4924 21.3472 77.9055 21.3472C77.4654 21.3472 77.0253 21.4838 76.8786 21.8935C76.7319 22.3033 76.7319 22.713 76.7319 23.1227C76.7319 23.5325 76.7319 23.9422 76.8786 24.2153C77.0253 24.8982 77.0253 25.4445 77.172 25.8543C77.172 26.264 77.172 26.5372 77.172 26.5372Z" fill="black"/>
<path d="M195.71 26.5419C195.71 26.5419 195.857 26.2688 196.15 25.7225C196.443 25.1761 196.884 24.4933 197.47 23.8104C197.764 23.4006 198.204 22.9909 198.497 22.5812C198.937 22.1715 199.378 21.7617 200.258 21.7617C201.138 21.8983 201.431 22.5812 201.725 23.1275C202.018 23.6738 202.165 24.3567 202.018 25.0396C202.018 25.7225 201.725 26.4053 201.578 26.9516C201.285 27.498 200.991 28.0443 200.698 28.5906C200.111 29.6832 199.378 30.5026 198.791 31.3221C197.47 32.8245 196.59 33.7805 196.59 33.7805C196.59 33.7805 196.737 33.5073 197.03 32.961C197.324 32.5513 197.764 31.8684 198.497 31.049C199.084 30.2295 199.818 29.41 200.405 28.3174C200.698 27.7711 200.991 27.2248 201.285 26.6785C201.578 26.1322 201.725 25.5859 201.725 24.903C201.725 24.3567 201.725 23.6738 201.431 23.1275C201.138 22.5812 200.845 22.0349 200.258 21.8983C199.671 21.8983 199.231 22.308 198.791 22.5812C198.351 22.9909 198.057 23.2641 197.617 23.6738C197.03 24.3567 196.443 25.0396 196.15 25.5859C195.857 26.2688 195.71 26.5419 195.71 26.5419Z" fill="black"/>
<path d="M211.994 242.879C211.994 242.879 211.994 243.015 211.847 243.289C211.7 243.562 211.554 243.835 211.26 244.245C210.673 244.928 209.94 245.747 209.06 246.566C208.179 247.386 207.299 248.069 206.712 248.615C206.419 248.888 206.419 249.298 206.419 249.571C206.419 249.844 206.566 249.981 206.566 249.981C206.566 249.981 206.566 249.844 206.419 249.571C206.419 249.435 206.419 249.298 206.419 249.161C206.419 249.025 206.566 248.752 206.566 248.615C207.006 247.796 207.886 247.113 208.766 246.293C209.206 245.884 209.646 245.474 209.94 245.201C210.38 244.791 210.673 244.381 210.82 244.108C211.114 243.835 211.26 243.562 211.407 243.289C211.554 243.015 211.554 243.015 211.554 243.015L211.994 242.879Z" fill="black"/>
<path d="M219.77 247.52C219.77 247.52 219.916 247.793 219.916 248.339C219.916 248.885 219.623 249.568 219.33 250.115C219.036 250.661 218.596 251.207 218.303 251.753C218.009 252.163 218.156 252.573 218.156 252.573C218.156 252.573 218.156 252.573 218.009 252.3C218.009 252.163 217.863 251.89 218.009 251.617C218.156 251.071 218.596 250.524 218.89 249.978C219.183 249.432 219.33 248.749 219.33 248.339C219.33 247.929 219.33 247.52 219.33 247.52H219.77Z" fill="black"/>
<path d="M215.222 252.574C215.222 252.574 215.075 252.574 214.929 252.711C214.782 252.711 214.488 252.847 214.195 253.12C213.755 253.53 213.168 254.213 212.875 254.896C212.435 255.579 212.141 256.398 211.701 256.945C211.554 257.218 211.261 257.354 211.114 257.491C210.967 257.627 210.821 257.627 210.821 257.627L210.674 257.354C210.674 257.354 210.821 257.354 210.967 257.218C211.114 257.081 211.261 256.945 211.408 256.671C211.848 256.125 212.141 255.442 212.581 254.623C213.021 253.803 213.461 253.12 214.195 252.711C214.488 252.574 214.782 252.438 214.929 252.438C215.075 252.574 215.222 252.574 215.222 252.574Z" fill="black"/>
<path d="M15.2619 245.883C15.2619 245.883 15.2619 246.019 15.2619 246.156C15.2619 246.293 15.4086 246.429 15.5553 246.702C15.8487 247.249 16.2888 247.795 16.5822 248.478C17.0224 249.161 17.3158 249.844 17.4625 250.39C17.4625 250.936 17.3158 251.346 17.3158 251.346C17.3158 251.346 17.3158 250.936 17.1691 250.39C17.0224 249.844 16.729 249.161 16.2888 248.614C15.8487 247.931 15.4086 247.385 15.1152 246.839C14.9685 246.566 14.9685 246.293 14.8218 246.156C14.8218 246.019 14.8218 245.883 14.8218 245.883H15.2619Z" fill="black"/>
<path d="M13.6481 256.395C13.6481 256.395 13.6481 256.531 13.6481 256.668C13.6481 256.804 13.6481 257.077 13.6481 257.351C13.6481 257.624 13.7949 257.897 14.0883 258.17C14.235 258.443 14.6751 258.58 14.9685 258.716C15.2619 258.853 15.702 258.99 15.9954 259.263C16.2888 259.399 16.5823 259.672 16.729 259.946C16.8757 260.219 16.8757 260.492 16.8757 260.628C16.8757 260.765 16.8757 260.902 16.8757 260.902C16.8757 260.902 16.8757 260.765 16.8757 260.628C16.8757 260.492 16.8757 260.492 16.729 260.355C16.729 260.219 16.5823 260.082 16.5823 260.082C16.2889 259.672 15.5553 259.399 14.8218 259.126C14.5284 258.989 14.0883 258.716 13.7949 258.443C13.5014 258.17 13.3547 257.76 13.3547 257.487C13.3547 257.214 13.3547 256.941 13.3547 256.804C13.3547 256.668 13.3547 256.531 13.3547 256.531L13.6481 256.395Z" fill="black"/>
<line x1="86.3569" y1="278.486" x2="151.135" y2="278.486" stroke="black"/>
<line x1="2.05664" y1="287.359" x2="96.1182" y2="287.359" stroke="black"/>
<line x1="136.937" y1="287.359" x2="230.999" y2="287.359" stroke="black"/>
</svg>
