<?xml version="1.0" encoding="utf-8"?>
<!-- Generator: Adobe Illustrator 23.1.0, SVG Export Plug-In . SVG Version: 6.00 Build 0)  -->
<svg version="1.1" xmlns="http://www.w3.org/2000/svg" xmlns:xlink="http://www.w3.org/1999/xlink" x="0px" y="0px"
	 viewBox="0 0 234 288" style="enable-background:new 0 0 234 288;" xml:space="preserve">
<style type="text/css">
	.st0{clip-path:url(#SVGID_2_);}
	.st1{fill:#FFFFFF;stroke:#333333;stroke-miterlimit:10;}
	.st2{fill:#333333;stroke:#333333;}
	.st3{fill:none;stroke:#333333;stroke-miterlimit:10;}
	.st4{stroke:#333333;}
	.st5{fill:none;stroke:#333333;stroke-width:0.25;stroke-miterlimit:10;}
	.st6{fill:none;stroke:#333333;}
	.st7{fill:#333333;}
</style>
<g id="Layer_1">
	<g>
		<g>
			<defs>
				<rect id="SVGID_1_" x="37" y="9" width="160" height="269.4"/>
			</defs>
			<clipPath id="SVGID_2_">
				<use xlink:href="#SVGID_1_"  style="overflow:visible;"/>
			</clipPath>
			<g class="st0">
				<path class="st1" d="M49.7,98.3v163c0,0.5,0.2,0.9,0.7,1.1c4.7,2.4,9.4,4,13.7,5.9l0.7,0.7c5.6,2.4,11.2,4.7,18.3,7.6
					c0.2,0.1,0.6,0.1,0.9,0l93.8-31.6c0.2-0.1,0.4-0.4,0.4-0.6V90.1l13-10.1l4.4-5l-0.2-0.9l-6.4,1v-0.6l-27.9-7.1l-14.7,13.2
					L120,55.2L39.1,67.6l-0.9,0.2l1.9,9.1l2.5,6.1l-1.7-0.4l-0.1,0.7l5.1,6.5c1.4,3.6,1.1,3.4,0.6,3.6L49.7,98.3z"/>
				<path class="st2" d="M83.6,104.9c0,0,0.1,0.6,0.1,1.9s0,3.1,0,5.5c0,4.7,0,11.4,0,19.5c0,16.2,0,37.6,0,59.1s0,43,0,59.1
					c0,8.1,0,14.7,0,19.5c0,2.3,0,4.2,0,5.5s-0.1,1.9-0.1,1.9s-0.1-0.6-0.1-1.9s0-3.1,0-5.5c0-4.7,0-11.4,0-19.5
					c0-16.2,0-37.6,0-59.1s0-43,0-59.1c0-8.1,0-14.7,0-19.5c0-2.3,0-4.2,0-5.5C83.5,105.5,83.6,104.9,83.6,104.9z"/>
				<path class="st3" d="M42.4,83l27.1,6.2c0,0,5,7.2,6.9,9.6c2,2.5,4.4,2.5,4.4,2.5l2.9,4.1L95,94.6l7-5.1l29.9-4.7
					c1.6-0.2,3.2-0.6,4.7-1.2l4.5-1.7h0.1l22.8-3.6c0.1,0,0.3,0,0.3,0l1,0.4c0.5,0.2,1.1,0.4,1.7,0.2l22.3-3.6"/>
				<path class="st4" d="M82.9,106.4c0,0-0.5,0-1.4-0.2s-2.1-0.5-3.7-0.9c-3-0.7-7.1-1.7-11.2-2.7s-8.1-2-11.2-2.7
					c-1.5-0.4-2.7-0.7-3.7-0.9c-0.9-0.2-1.4-0.5-1.4-0.5s0.5,0,1.4,0.2s2.1,0.5,3.7,0.9c3,0.7,7.1,1.7,11.2,2.7s8.1,2,11.2,2.7
					c1.5,0.4,2.7,0.6,3.7,0.9C82.4,106.1,82.9,106.4,82.9,106.4z"/>
				<path class="st4" d="M84.3,106.3c0,0,1.4-0.4,4-0.9c2.5-0.5,6.2-1.1,10.6-1.9c8.7-1.5,20.3-3.5,32-5.5c11.6-2,23.3-4,32.1-5.5
					c4.4-0.7,8-1.4,10.6-1.9c3.1-0.6,5-0.6,5-0.6s-2.4,0.5-5,1c-2.5,0.5-6.2,1.1-10.6,1.9c-8.7,1.5-20.3,3.5-32.1,5.5
					c-11.6,2-23.3,4-32,5.5c-4.4,0.7-8,1.4-10.6,1.9C85.8,106.1,84.3,106.3,84.3,106.3z"/>
				<path class="st5" d="M64.1,267l1,1c0,0,10.6,4.9,18.1,7.2"/>
				<path class="st5" d="M64.3,268.4l-1.5-1.9"/>
				<path class="st5" d="M50.3,261.2l32.8,14.1"/>
				<line class="st6" x1="83.6" y1="286.9" x2="145.2" y2="266.7"/>
				<line class="st6" x1="116.6" y1="270.9" x2="178.2" y2="250.7"/>
				<line class="st6" x1="57.2" y1="276.5" x2="83.9" y2="286.9"/>
				<line class="st6" x1="49.4" y1="267.9" x2="70.2" y2="276.5"/>
			</g>
		</g>
	</g>
</g>
<g id="Layer_2">
	<g>
		<path class="st7" d="M101.5,251.8l-2.2,0.7l-2.2-6.7l-2.3,2c-0.2,0-0.4-0.1-0.6-0.2c-0.2-0.1-0.3-0.3-0.4-0.6
			c-0.2-0.5,0-1,0.6-1.5l2.5-2.2l0.5-0.2c0.4-0.1,0.7-0.1,1,0c0.3,0.1,0.5,0.4,0.6,0.8L101.5,251.8z M98.9,251.1l2.2-0.7l1.9,5.8
			c-0.1,0.1-0.2,0.1-0.4,0.2s-0.4,0.2-0.6,0.2c-0.4,0.1-0.7,0.1-1,0s-0.4-0.3-0.5-0.7L98.9,251.1z"/>
		<path class="st7" d="M105.4,240.7l-0.1,1.7l0.9,3.9c0.2-0.2,0.5-0.4,0.9-0.7s0.8-0.4,1.3-0.6c0.9-0.3,1.8-0.4,2.6-0.3
			c0.8,0.1,1.5,0.4,2.1,1c0.6,0.5,1,1.2,1.3,2.1c0.3,0.8,0.3,1.7,0.1,2.5c-0.2,0.8-0.6,1.5-1.2,2.2c-0.6,0.6-1.5,1.1-2.6,1.5
			c-0.8,0.3-1.6,0.4-2.3,0.4s-1.3-0.1-1.7-0.3c-0.5-0.2-0.7-0.4-0.8-0.8c-0.1-0.3-0.1-0.5,0-0.8c0.1-0.3,0.2-0.5,0.4-0.6
			c0.4,0.2,1,0.3,1.6,0.4c0.6,0.1,1.4,0,2.2-0.2c0.9-0.3,1.6-0.8,1.9-1.4c0.3-0.7,0.4-1.4,0.1-2.1c-0.3-0.8-0.7-1.3-1.3-1.6
			c-0.6-0.3-1.4-0.3-2.3,0c-0.5,0.2-0.9,0.4-1.2,0.6c-0.3,0.3-0.7,0.6-1,0.9c-0.5,0.1-0.9,0.1-1.3-0.1s-0.6-0.4-0.8-0.9
			c0-0.1-0.1-0.2-0.1-0.3c0-0.1-0.1-0.3-0.1-0.4l-0.9-4.1c-0.1-0.4-0.1-0.7,0.1-1s0.4-0.5,0.8-0.6L105.4,240.7z M105,242.9l-0.6-1.8
			l6.3-2c0.1,0.1,0.2,0.2,0.3,0.3c0.1,0.1,0.2,0.3,0.2,0.5c0.1,0.3,0.1,0.6,0,0.8s-0.3,0.4-0.5,0.4L105,242.9z"/>
		<path class="st7" d="M131.8,240l1.5,4.7c0.1,0.3,0.1,0.6,0,0.8c-0.1,0.2-0.3,0.5-0.5,0.8c-0.3,0.3-0.8,0.7-1.4,1
			c-0.6,0.3-1.3,0.6-2,0.9c-1.4,0.4-2.7,0.6-3.9,0.4c-1.2-0.1-2.3-0.6-3.2-1.5c-0.9-0.8-1.6-2.1-2.2-3.6c-0.5-1.5-0.6-2.9-0.3-4.2
			c0.3-1.2,0.9-2.3,1.7-3.1c0.9-0.9,1.9-1.5,3.2-1.9c0.8-0.3,1.6-0.4,2.3-0.4c0.7,0,1.3,0.1,1.7,0.2c0.4,0.2,0.7,0.4,0.8,0.7
			c0.1,0.2,0.1,0.5,0,0.7c-0.1,0.2-0.2,0.4-0.3,0.6c-0.5-0.1-1-0.2-1.6-0.3c-0.6,0-1.3,0.1-2.1,0.3c-0.9,0.3-1.6,0.7-2.2,1.3
			s-1,1.4-1.1,2.3c-0.2,0.9-0.1,1.9,0.3,3c0.4,1.2,0.9,2.1,1.5,2.7s1.4,1,2.2,1.1c0.8,0.1,1.7,0,2.6-0.2c0.5-0.2,0.9-0.3,1.3-0.5
			c0.4-0.2,0.7-0.4,0.9-0.6l-1.1-3.6l-3.1,1c-0.1-0.1-0.2-0.2-0.3-0.3c-0.1-0.1-0.2-0.3-0.2-0.5c-0.1-0.3-0.1-0.6,0-0.8
			c0.1-0.2,0.3-0.4,0.5-0.4l3.7-1.2c0.3-0.1,0.6-0.1,0.8,0C131.5,239.4,131.7,239.7,131.8,240z"/>
		<path class="st7" d="M143.9,239.3c-0.1,0.1-0.2,0.3-0.4,0.4c-0.2,0.1-0.4,0.2-0.6,0.3c-0.3,0.1-0.6,0.1-0.8,0.1s-0.4-0.1-0.6-0.3
			c-1.2-1.3-2.2-2.5-3.1-3.6c-0.9-1.1-1.6-2-2.2-2.7l-0.1,0c0.3,1.1,0.5,2,0.8,2.9c0.2,0.9,0.5,1.8,0.7,2.6c0.2,0.8,0.5,1.7,0.7,2.6
			c0.2,0.9,0.5,1.8,0.7,2.9c-0.1,0.1-0.2,0.2-0.4,0.3c-0.2,0.1-0.4,0.2-0.5,0.2c-0.4,0.1-0.7,0.1-0.9,0c-0.2-0.1-0.4-0.3-0.5-0.6
			c-0.1-0.2-0.2-0.7-0.4-1.3c-0.2-0.6-0.4-1.4-0.6-2.3c-0.2-0.9-0.5-1.9-0.7-2.9c-0.2-1-0.5-2-0.7-3c-0.2-1-0.5-1.9-0.6-2.7
			c0.1-0.2,0.2-0.4,0.4-0.6c0.2-0.2,0.5-0.4,0.9-0.5c0.4-0.1,0.8-0.2,1.2-0.1c0.3,0.1,0.6,0.2,0.9,0.5c0.6,0.6,1.1,1.2,1.7,1.9
			c0.6,0.7,1.2,1.4,1.8,2.1c0.6,0.7,1.1,1.4,1.7,2l0.1,0c0.1-1.6,0.2-3.2,0.4-4.8s0.2-2.9,0.3-3.9c0.1-0.1,0.3-0.2,0.5-0.4
			c0.2-0.1,0.4-0.2,0.7-0.3c0.4-0.1,0.8-0.2,1.1-0.1c0.3,0.1,0.5,0.2,0.7,0.5c0.1,0.2,0.3,0.7,0.6,1.2c0.3,0.6,0.5,1.3,0.9,2
			c0.3,0.8,0.7,1.6,1,2.5c0.4,0.9,0.7,1.7,1,2.5c0.3,0.8,0.6,1.6,0.9,2.2c0.3,0.7,0.5,1.2,0.6,1.6c-0.1,0.2-0.3,0.3-0.4,0.4
			c-0.2,0.1-0.4,0.2-0.6,0.3c-0.3,0.1-0.6,0.1-0.8,0.1c-0.3-0.1-0.5-0.3-0.6-0.6c-0.5-1.3-1-2.6-1.5-3.8c-0.5-1.3-0.9-2.4-1.3-3.4
			c-0.4-1-0.7-1.9-1-2.6l-0.1,0c0,0.8-0.1,1.9-0.2,3.3C144.2,235.6,144.1,237.3,143.9,239.3z"/>
		<path class="st7" d="M157.5,237.1c0.9-0.3,1.5-0.7,1.9-1.2c0.3-0.5,0.4-1.1,0.2-1.7c-0.2-0.5-0.5-0.9-1-1.1
			c-0.5-0.2-1.1-0.3-1.9-0.3l-1.8,0c-0.7,0-1.4-0.1-2-0.2c-0.6-0.1-1.1-0.4-1.5-0.8s-0.7-0.9-0.9-1.6c-0.4-1.1-0.2-2.2,0.4-3.1
			s1.7-1.6,3.1-2.1c0.8-0.3,1.5-0.4,2.2-0.4s1.2,0,1.7,0.2c0.5,0.2,0.7,0.4,0.8,0.7c0.1,0.2,0.1,0.5,0,0.7c-0.1,0.2-0.2,0.4-0.3,0.6
			c-0.4-0.2-1-0.3-1.7-0.3c-0.7,0-1.4,0.1-2.1,0.3c-0.8,0.3-1.4,0.6-1.7,1.1c-0.3,0.5-0.4,1-0.3,1.5c0.1,0.5,0.4,0.8,0.8,0.9
			c0.4,0.2,1,0.3,1.8,0.2l1.4,0c1.3,0,2.4,0.2,3.3,0.6c0.9,0.4,1.5,1.2,1.9,2.3c0.4,1.2,0.2,2.3-0.4,3.3c-0.6,1-1.8,1.8-3.4,2.3
			c-0.9,0.3-1.7,0.4-2.5,0.5c-0.7,0-1.4-0.1-1.8-0.3c-0.5-0.2-0.8-0.5-0.9-0.8c-0.1-0.3-0.1-0.6,0-0.8c0.1-0.3,0.3-0.5,0.4-0.6
			c0.5,0.2,1,0.4,1.7,0.5C155.9,237.4,156.7,237.3,157.5,237.1z"/>
	</g>
</g>
</svg>
