<svg width="233" height="272" viewBox="0 0 233 272" fill="none" xmlns="http://www.w3.org/2000/svg">
<path d="M75.6773 204.408L75.0293 205.824L74.6213 210.36C74.8933 210.216 75.2693 210.08 75.7493 209.952C76.2453 209.808 76.7653 209.736 77.3093 209.736C78.2693 209.736 79.1333 209.92 79.9013 210.288C80.6693 210.64 81.2773 211.168 81.7253 211.872C82.1893 212.56 82.4213 213.416 82.4213 214.44C82.4213 215.368 82.2053 216.2 81.7733 216.936C81.3573 217.672 80.7413 218.256 79.9253 218.688C79.1253 219.104 78.1413 219.312 76.9733 219.312C76.0613 219.312 75.2613 219.208 74.5733 219C73.8853 218.792 73.3493 218.536 72.9653 218.232C72.5813 217.928 72.3893 217.632 72.3893 217.344C72.3893 217.088 72.4693 216.864 72.6293 216.672C72.8053 216.48 72.9813 216.352 73.1573 216.288C73.5093 216.592 74.0053 216.904 74.6453 217.224C75.2853 217.544 76.0613 217.704 76.9733 217.704C78.0773 217.704 78.9333 217.4 79.5413 216.792C80.1493 216.168 80.4533 215.384 80.4533 214.44C80.4533 213.464 80.1413 212.704 79.5173 212.16C78.8933 211.616 78.0773 211.344 77.0693 211.344C76.5093 211.344 75.9973 211.432 75.5333 211.608C75.0693 211.784 74.6373 211.984 74.2373 212.208C73.8053 212.176 73.4533 212.048 73.1813 211.824C72.9253 211.584 72.7973 211.28 72.7973 210.912C72.7973 210.816 72.7973 210.696 72.7973 210.552C72.8133 210.392 72.8293 210.24 72.8453 210.096L73.2533 205.512C73.2853 205.176 73.3893 204.912 73.5653 204.72C73.7413 204.512 73.9973 204.408 74.3333 204.408H75.6773ZM74.6693 206.04V204.408H81.6773C81.7253 204.472 81.7733 204.576 81.8213 204.72C81.8693 204.864 81.8933 205.016 81.8933 205.176C81.8933 205.432 81.8293 205.64 81.7013 205.8C81.5733 205.96 81.3893 206.04 81.1493 206.04H74.6693ZM90.7965 219.312C89.6765 219.312 88.6845 219.04 87.8205 218.496C86.9725 217.936 86.3085 217.096 85.8285 215.976C85.3485 214.84 85.1085 213.416 85.1085 211.704C85.1085 209.864 85.3805 208.392 85.9245 207.288C86.4685 206.184 87.1725 205.384 88.0365 204.888C88.9005 204.376 89.8205 204.12 90.7965 204.12C91.7885 204.12 92.7165 204.376 93.5805 204.888C94.4605 205.4 95.1645 206.216 95.6925 207.336C96.2365 208.44 96.5085 209.896 96.5085 211.704C96.5085 213.4 96.2685 214.816 95.7885 215.952C95.3085 217.072 94.6365 217.912 93.7725 218.472C92.9245 219.032 91.9325 219.312 90.7965 219.312ZM90.7965 217.68C91.9805 217.68 92.9005 217.168 93.5565 216.144C94.2125 215.104 94.5405 213.624 94.5405 211.704C94.5405 210.28 94.3645 209.136 94.0125 208.272C93.6765 207.392 93.2285 206.752 92.6685 206.352C92.1085 205.952 91.4845 205.752 90.7965 205.752C90.1245 205.752 89.5005 205.96 88.9245 206.376C88.3645 206.776 87.9165 207.416 87.5805 208.296C87.2445 209.176 87.0765 210.312 87.0765 211.704C87.0765 213.624 87.4045 215.104 88.0605 216.144C88.7165 217.168 89.6285 217.68 90.7965 217.68ZM104.789 219.312C103.669 219.312 102.677 219.04 101.813 218.496C100.965 217.936 100.301 217.096 99.8207 215.976C99.3407 214.84 99.1007 213.416 99.1007 211.704C99.1007 209.864 99.3727 208.392 99.9167 207.288C100.461 206.184 101.165 205.384 102.029 204.888C102.893 204.376 103.813 204.12 104.789 204.12C105.781 204.12 106.709 204.376 107.573 204.888C108.453 205.4 109.157 206.216 109.685 207.336C110.229 208.44 110.501 209.896 110.501 211.704C110.501 213.4 110.261 214.816 109.781 215.952C109.301 217.072 108.629 217.912 107.765 218.472C106.917 219.032 105.925 219.312 104.789 219.312ZM104.789 217.68C105.973 217.68 106.893 217.168 107.549 216.144C108.205 215.104 108.533 213.624 108.533 211.704C108.533 210.28 108.357 209.136 108.005 208.272C107.669 207.392 107.221 206.752 106.661 206.352C106.101 205.952 105.477 205.752 104.789 205.752C104.117 205.752 103.493 205.96 102.917 206.376C102.357 206.776 101.909 207.416 101.573 208.296C101.237 209.176 101.069 210.312 101.069 211.704C101.069 213.624 101.397 215.104 102.053 216.144C102.709 217.168 103.621 217.68 104.789 217.68ZM130.282 212.112V217.32C130.282 217.608 130.194 217.856 130.018 218.064C129.858 218.256 129.61 218.432 129.274 218.592C128.874 218.8 128.322 218.968 127.618 219.096C126.914 219.24 126.202 219.312 125.482 219.312C123.994 219.312 122.674 219.04 121.522 218.496C120.386 217.952 119.498 217.12 118.858 216C118.218 214.88 117.898 213.456 117.898 211.728C117.898 210.016 118.226 208.6 118.882 207.48C119.554 206.344 120.442 205.496 121.546 204.936C122.65 204.376 123.858 204.096 125.17 204.096C126.082 204.096 126.882 204.192 127.57 204.384C128.258 204.576 128.794 204.816 129.178 205.104C129.562 205.392 129.754 205.688 129.754 205.992C129.754 206.2 129.69 206.392 129.562 206.568C129.434 206.728 129.282 206.848 129.106 206.928C128.674 206.64 128.162 206.376 127.57 206.136C126.978 205.88 126.218 205.752 125.29 205.752C124.282 205.752 123.37 205.976 122.554 206.424C121.738 206.872 121.09 207.544 120.61 208.44C120.146 209.32 119.914 210.416 119.914 211.728C119.914 213.104 120.154 214.232 120.634 215.112C121.13 215.976 121.802 216.616 122.65 217.032C123.498 217.448 124.45 217.656 125.506 217.656C126.082 217.656 126.626 217.608 127.138 217.512C127.65 217.416 128.05 217.296 128.338 217.152V212.736H124.714C124.666 212.656 124.618 212.552 124.57 212.424C124.522 212.28 124.498 212.128 124.498 211.968C124.498 211.696 124.562 211.488 124.69 211.344C124.818 211.184 125.002 211.104 125.242 211.104H129.25C129.538 211.104 129.778 211.2 129.97 211.392C130.178 211.568 130.282 211.808 130.282 212.112ZM142.37 215.208C142.258 215.288 142.106 215.36 141.914 215.424C141.738 215.488 141.538 215.52 141.314 215.52C141.058 215.52 140.826 215.48 140.618 215.4C140.426 215.32 140.29 215.192 140.21 215.016C139.362 213.224 138.618 211.584 137.978 210.096C137.354 208.608 136.85 207.376 136.466 206.4H136.37C136.322 207.6 136.266 208.72 136.202 209.76C136.154 210.8 136.098 211.808 136.034 212.784C135.97 213.744 135.906 214.736 135.842 215.76C135.794 216.768 135.73 217.848 135.65 219C135.554 219.032 135.426 219.064 135.266 219.096C135.122 219.128 134.962 219.144 134.786 219.144C134.434 219.144 134.186 219.072 134.042 218.928C133.898 218.768 133.826 218.56 133.826 218.304C133.826 218.112 133.842 217.672 133.874 216.984C133.922 216.28 133.97 215.424 134.018 214.416C134.082 213.408 134.154 212.336 134.234 211.2C134.314 210.048 134.394 208.92 134.474 207.816C134.57 206.696 134.658 205.688 134.738 204.792C134.866 204.68 135.05 204.576 135.29 204.48C135.53 204.384 135.802 204.336 136.106 204.336C136.474 204.336 136.786 204.408 137.042 204.552C137.298 204.696 137.498 204.92 137.642 205.224C138.058 206.04 138.474 206.928 138.89 207.888C139.306 208.848 139.714 209.808 140.114 210.768C140.514 211.728 140.898 212.632 141.266 213.48H141.362C142.066 211.784 142.762 210.152 143.45 208.584C144.154 207.016 144.746 205.68 145.226 204.576C145.37 204.496 145.554 204.44 145.778 204.408C146.002 204.36 146.21 204.336 146.402 204.336C146.77 204.336 147.058 204.4 147.266 204.528C147.49 204.64 147.634 204.832 147.698 205.104C147.762 205.376 147.834 205.84 147.914 206.496C147.994 207.152 148.074 207.928 148.154 208.824C148.234 209.704 148.306 210.632 148.37 211.608C148.45 212.584 148.522 213.544 148.586 214.488C148.65 215.432 148.706 216.288 148.754 217.056C148.818 217.808 148.858 218.408 148.874 218.856C148.73 218.952 148.578 219.024 148.418 219.072C148.258 219.12 148.074 219.144 147.866 219.144C147.626 219.144 147.41 219.088 147.218 218.976C147.042 218.848 146.938 218.624 146.906 218.304C146.81 216.752 146.714 215.224 146.618 213.72C146.538 212.2 146.466 210.808 146.402 209.544C146.338 208.28 146.282 207.248 146.234 206.448H146.138C145.786 207.328 145.306 208.464 144.698 209.856C144.09 211.232 143.314 213.016 142.37 215.208ZM156.824 217.68C157.896 217.68 158.704 217.44 159.248 216.96C159.808 216.464 160.088 215.832 160.088 215.064C160.088 214.408 159.872 213.864 159.44 213.432C159.024 213 158.36 212.656 157.448 212.4L155.36 211.776C154.688 211.568 154.104 211.304 153.608 210.984C153.112 210.648 152.728 210.24 152.456 209.76C152.2 209.264 152.072 208.688 152.072 208.032C152.072 206.8 152.52 205.84 153.416 205.152C154.312 204.448 155.504 204.096 156.992 204.096C157.856 204.096 158.624 204.192 159.296 204.384C159.984 204.56 160.52 204.792 160.904 205.08C161.304 205.368 161.504 205.672 161.504 205.992C161.504 206.2 161.448 206.392 161.336 206.568C161.224 206.728 161.08 206.856 160.904 206.952C160.504 206.632 159.96 206.352 159.272 206.112C158.6 205.872 157.864 205.752 157.064 205.752C156.136 205.752 155.4 205.96 154.856 206.376C154.312 206.776 154.04 207.328 154.04 208.032C154.04 208.592 154.232 209.048 154.616 209.4C155.016 209.752 155.656 210.056 156.536 210.312L158 210.744C159.264 211.096 160.256 211.608 160.976 212.28C161.712 212.952 162.08 213.88 162.08 215.064C162.08 216.328 161.616 217.352 160.688 218.136C159.776 218.92 158.488 219.312 156.824 219.312C155.848 219.312 154.992 219.208 154.256 219C153.536 218.776 152.968 218.504 152.552 218.184C152.152 217.848 151.952 217.52 151.952 217.2C151.952 216.928 152.032 216.704 152.192 216.528C152.368 216.336 152.568 216.2 152.792 216.12C153.16 216.472 153.68 216.824 154.352 217.176C155.024 217.512 155.848 217.68 156.824 217.68Z" fill="#333333"/>
<path d="M13.5924 243.778C13.179 244.419 11.5253 243.649 10.5606 243.521C9.59593 243.393 8.76908 243.649 8.63127 244.676L9.04469 245.83L10.1472 245.445L10.285 246.344H11.3874L11.5253 246.985H12.4899C12.4899 246.985 12.6277 247.755 15.5217 248.011C18.4157 248.14 20.6206 248.396 20.6206 248.396C20.6206 248.396 21.9987 249.551 24.3415 249.551C30.2673 249.551 32.4722 250.064 35.504 250.064C38.5358 250.064 40.8786 249.936 48.0446 249.423C55.2107 248.909 68.4404 246.6 72.9881 246.857C77.5357 247.113 82.3591 244.676 84.4262 244.804C86.4933 244.932 91.4545 243.778 94.8997 244.419C98.3449 245.061 103.719 245.83 109.094 244.547C114.469 243.264 120.946 245.061 126.045 245.189C131.143 245.317 144.235 245.317 147.543 244.804C150.85 244.291 152.228 245.061 154.709 244.676C157.189 244.291 164.218 244.547 168.903 244.804C173.589 245.061 176.069 245.061 180.617 244.291C185.165 243.521 192.055 243.264 196.603 242.623C201.15 241.982 201.288 242.11 202.391 241.212C203.493 240.314 205.422 241.212 207.765 240.442C210.108 239.672 212.175 238.902 214.518 239.031C216.861 239.159 219.203 239.031 219.203 239.031C219.203 239.031 219.066 238.004 216.998 235.695C214.931 233.386 213.14 233.129 211.762 233.771C210.384 234.412 211.486 232.359 209.557 231.333C207.627 230.307 203.907 231.59 202.942 229.922C201.977 228.254 204.458 226.714 203.218 222.096C201.702 215.938 199.772 216.066 199.221 214.655C198.808 213.244 200.599 211.576 200.048 206.187C199.497 200.799 199.91 199.259 199.083 196.822C198.256 194.384 199.083 193.486 197.981 189.894C196.878 186.302 196.189 186.045 196.465 184.762C196.741 183.479 197.567 182.325 197.154 177.193C196.741 172.061 195.5 168.982 195.5 166.673C195.5 164.363 196.74 163.594 196.051 157.564C195.362 151.534 196.327 149.866 196.051 144.349C195.776 138.833 196.327 135.754 195.5 130.109C194.673 124.464 195.776 124.079 194.673 116.894C193.571 109.71 193.571 105.091 192.468 98.42C191.366 91.7486 190.953 88.2847 190.263 85.0773C189.574 81.87 184.889 77.1231 185.027 76.225C185.165 75.327 192.468 67.6293 196.051 62.3692C199.634 57.1091 200.461 55.6979 202.804 53.5169C205.147 51.3359 208.179 44.6646 210.659 41.8421C213.14 39.0196 216.034 30.8088 218.101 27.4731C220.168 24.1374 222.649 16.9529 223.062 15.0285C222.786 11.5646 221.546 10.4099 221.546 10.4099C220.857 10.2816 219.617 10.6665 219.617 10.6665L217.687 9.51187L215.896 9.64016L214.104 8.48551L212.313 8.6138L210.521 7.45915L208.73 7.58745L206.938 6.4328L205.009 6.68939L203.08 5.66303L201.15 6.04791L199.221 5.14985L197.292 5.66303L195.362 4.89326L193.433 5.53474L191.779 4.89326L190.126 5.53474L188.472 5.02156L186.818 5.79133L185.165 5.27815L183.511 6.17621L181.857 5.79133L180.203 6.68939L178.55 6.3045L176.896 7.20257L175.242 6.81768L173.589 7.58745L171.935 7.07427L170.281 7.71574L168.627 6.81768L165.871 6.94598L163.115 5.91962L160.359 6.17621L157.603 5.14985L154.847 5.53474L152.09 4.63668L149.334 5.02156L146.578 4.1235L143.822 4.50838L141.066 3.73861L138.31 4.25179L135.553 3.48202L132.797 3.9952L129.903 3.22544L127.009 3.86691L124.391 3.22544L121.772 3.86691L119.154 3.22544L116.536 3.86691L113.917 3.35373L111.299 4.1235L108.681 3.61032L106.062 4.25179L103.444 3.61032L100.825 4.25179L98.2071 3.61032L95.5887 4.25179L91.7301 3.86691L89.1117 4.38009L86.4933 3.61032L83.875 4.1235L81.2566 3.48202L78.6382 4.25179L76.0199 3.86691L73.4015 4.76497L70.7831 4.50838L68.1647 5.53474L65.5464 5.27815L62.928 6.3045L60.3096 6.04791L57.6913 6.94598L55.0729 6.4328L52.7301 6.94598L50.1118 6.17621L47.4934 6.56109L44.7372 5.53474L42.1188 5.66303L39.5005 4.38009H36.8821L34.2637 3.09714H31.6454L29.027 1.8142L26.2708 1.94249L23.5146 0.916134L20.7585 1.30102L18.0023 0.53125L15.2461 1.17272L12.4899 0.53125L9.73374 1.30102L6.97756 0.916134C6.97756 0.916134 6.97756 3.61032 6.42633 6.04791C4.91043 12.7192 5.18604 11.9495 7.11537 17.9793C9.0447 24.0091 10.285 27.2165 14.0058 39.7894C17.7267 52.2339 17.451 51.5925 20.0694 55.0564C22.6878 58.5204 22.1365 59.675 23.3768 64.1653C24.4793 68.7839 24.8927 70.5801 27.0977 74.9421C29.3026 79.3041 30.8185 80.4587 27.2355 87.2583C23.6524 94.058 21.9987 101.242 21.7231 102.782C21.4475 104.322 22.55 110.608 22.6878 117.536C22.8256 124.592 24.2037 125.234 23.7903 126.901C22.8256 131.777 24.2037 133.059 23.6524 137.037C22.9634 142.04 24.0659 146.017 23.6524 151.662C23.239 157.307 23.6524 162.054 24.0659 163.722C24.4793 165.518 23.6524 166.416 23.5146 170.906C23.3768 175.397 23.239 180.785 23.3768 185.275C23.5146 189.894 24.2037 192.075 24.7549 194.513C25.3062 196.95 24.6171 197.207 25.3061 199.259C25.9952 201.312 25.0305 206.829 24.4793 210.421C23.7903 214.013 21.7231 212.73 20.0694 220.428C17.3132 232.359 19.2426 230.692 18.5535 232.359C17.8645 234.027 17.3132 240.57 16.4864 241.597C15.7973 242.751 14.8327 241.597 13.5924 243.778Z" stroke="black" stroke-miterlimit="10"/>
<path d="M191.091 66.6035C191.091 66.6035 190.953 66.9884 190.677 67.5016C190.402 68.143 189.988 68.9128 189.437 69.8109C188.886 70.7089 188.197 71.8636 187.37 73.0182C186.956 73.5314 186.543 74.1729 186.13 74.8144C185.992 75.071 185.716 75.4558 185.578 75.7124C185.578 75.969 185.441 76.3539 185.441 76.7388C185.441 78.15 185.992 79.5613 186.543 80.8442C187.094 82.1272 187.508 83.2818 187.783 84.3082C188.059 85.3345 188.335 86.2326 188.472 86.874C188.61 87.5155 188.61 87.9004 188.61 87.9004C188.61 87.9004 188.197 86.4892 187.508 84.4365C187.094 83.4101 186.681 82.2554 186.13 80.9725C185.578 79.6896 185.027 78.2783 185.027 76.8671C185.027 76.4822 185.027 76.2256 185.165 75.7124C185.303 75.3275 185.578 75.0709 185.716 74.6861C186.13 74.0446 186.543 73.5314 186.956 72.8899C187.783 71.7353 188.472 70.7089 189.024 69.6826C189.575 68.7845 189.988 67.8865 190.402 67.3733C190.815 66.8601 191.091 66.6035 191.091 66.6035Z" fill="black"/>
<path d="M10.4231 244.805C10.4231 244.805 10.4231 244.677 10.4231 244.42C10.5609 244.292 10.6987 244.292 10.8365 244.42C10.9743 244.549 11.1121 244.549 11.25 244.677C11.939 245.19 12.628 245.96 13.4549 246.601C14.2817 247.243 15.3842 247.5 16.0733 247.756C16.9001 247.884 17.4514 248.013 17.4514 248.013V248.269C17.4514 248.269 16.9001 248.269 16.0733 248.141C15.2464 248.013 14.1439 247.628 13.3171 246.986C12.3524 246.345 11.6634 245.575 11.1121 245.062C10.8365 244.805 10.5609 244.549 10.4231 244.677C10.4231 244.677 10.4231 244.805 10.4231 244.805Z" fill="black"/>
<path d="M217.688 18.3633C217.688 18.3633 218.377 18.6199 219.066 18.7482C219.755 19.0048 220.444 19.2613 220.444 19.2613C220.582 19.2613 220.582 19.3896 220.582 19.5179C220.582 19.6462 220.444 19.6462 220.306 19.6462C220.306 19.6462 219.617 19.3896 218.928 19.0048C218.377 18.6199 217.688 18.3633 217.688 18.3633Z" fill="black"/>
<path d="M182.271 16.8246C182.271 16.8246 182.822 16.8246 183.787 16.6963C184.752 16.568 185.992 16.4397 187.646 16.4397C190.815 16.1831 195.087 16.0548 199.36 16.1831C203.632 16.3114 207.904 16.568 211.073 16.9529C212.589 17.2095 213.967 17.4661 214.932 17.7227C215.759 17.9793 216.31 18.1076 216.31 18.1076C216.31 18.1076 215.759 17.9793 214.932 17.851C214.519 17.7227 213.967 17.7227 213.278 17.5944C212.589 17.4661 211.9 17.4661 211.073 17.3378C207.904 16.9529 203.632 16.6963 199.36 16.568C195.087 16.4397 190.815 16.568 187.646 16.6963C184.338 16.6963 182.271 16.8246 182.271 16.8246Z" fill="black"/>
<path d="M125.769 16.3125C125.769 16.3125 129.077 16.4408 133.9 16.5691C138.723 16.8257 145.338 17.0823 151.815 17.3389C158.292 17.5954 164.907 17.7237 169.73 17.5954C172.211 17.5954 174.14 17.4671 175.656 17.3389C177.034 17.2106 177.861 17.2106 177.861 17.2106C177.861 17.2106 177.034 17.3389 175.656 17.4672C174.278 17.5954 172.211 17.852 169.73 17.9803C164.769 18.1086 158.292 17.9803 151.815 17.7237C145.338 17.4671 138.723 17.2106 133.9 16.8257C129.077 16.5691 125.769 16.3125 125.769 16.3125Z" fill="black"/>
<path d="M49.8369 16.8269C49.8369 16.8269 50.9394 16.6986 52.7309 16.5703C54.6602 16.442 57.2786 16.3137 60.586 16.0572C67.063 15.6723 75.6072 15.2874 84.2892 15.0308C92.9711 14.9025 101.515 15.0308 107.992 15.2874C109.646 15.2874 111.024 15.4157 112.402 15.544C113.78 15.6723 114.883 15.6723 115.847 15.6723C117.777 15.8006 118.741 15.9289 118.741 15.9289C118.741 15.9289 117.639 15.9289 115.847 15.9289C113.918 15.9289 111.3 15.8006 107.992 15.6723C101.515 15.4157 92.9711 15.2874 84.2892 15.4157C75.745 15.544 67.063 16.0572 60.586 16.3137C54.2468 16.5703 49.8369 16.8269 49.8369 16.8269Z" fill="black"/>
<path d="M14.833 12.8477C14.833 12.8477 16.9001 12.9759 19.7941 13.2325C22.8259 13.4891 26.6846 14.2589 30.681 14.9004C34.6775 15.5418 38.5362 16.1833 41.5679 16.4399C43.0838 16.5682 44.3241 16.6965 45.151 16.8248C45.9778 16.9531 46.5291 16.9531 46.5291 16.9531C46.5291 16.9531 45.9778 16.9531 45.151 16.9531C44.3241 16.9531 43.0838 16.9531 41.5679 16.8248C38.5362 16.5682 34.6775 15.9267 30.681 15.2853C26.6846 14.6438 22.8259 14.0023 19.7941 13.4891C18.2782 13.2325 17.038 13.1042 16.2111 12.976C15.3842 12.8477 14.833 12.8477 14.833 12.8477Z" fill="black"/>
<path d="M6.83996 12.3359C6.83996 12.3359 8.35586 12.3359 9.87176 12.4642C11.3877 12.4642 12.9036 12.5925 12.9036 12.5925C12.9036 12.5925 11.3877 12.5925 9.87176 12.5925C8.35586 12.5925 6.83996 12.7208 6.83996 12.7208C6.70215 12.7208 6.70215 12.5925 6.70215 12.5925C6.70215 12.4642 6.83996 12.3359 6.83996 12.3359Z" fill="black"/>
<path d="M218.515 17.7227C218.515 17.7227 219.066 17.851 219.618 18.1075C220.169 18.2358 220.72 18.4924 220.72 18.4924C220.858 18.4924 220.858 18.6207 220.858 18.749C220.858 18.8773 220.72 18.8773 220.582 18.8773C220.582 18.8773 220.031 18.6207 219.48 18.3641C218.929 17.9792 218.515 17.7227 218.515 17.7227Z" fill="black"/>
<path d="M180.893 15.9275C180.893 15.9275 181.444 15.7992 182.408 15.7992C183.373 15.6709 184.751 15.5426 186.405 15.4143C189.712 15.1578 194.26 15.0295 198.67 15.1578C200.875 15.1578 203.218 15.286 205.285 15.4143C207.352 15.5426 209.281 15.7992 210.935 16.0558C212.589 16.3124 213.967 16.569 214.931 16.8256C215.896 17.0822 216.447 17.2105 216.447 17.2105C216.447 17.2105 215.896 17.0822 214.931 16.9539C214.518 16.8256 213.829 16.8256 213.14 16.6973C212.451 16.569 211.762 16.4407 210.935 16.3124C209.281 16.0558 207.352 15.7992 205.285 15.6709C203.218 15.5426 201.013 15.4143 198.67 15.4143C194.26 15.286 189.712 15.5426 186.405 15.6709C183.098 15.6709 180.893 15.9275 180.893 15.9275Z" fill="black"/>
<path d="M127.423 15.0273C127.423 15.0273 130.454 15.1556 135.002 15.2839C139.55 15.4122 145.476 15.7971 151.539 16.0537C157.603 16.3103 163.529 16.5669 168.076 16.5669C170.281 16.5669 172.211 16.5669 173.589 16.5669C174.967 16.5669 175.656 16.4386 175.656 16.4386C175.656 16.4386 175.518 16.4386 175.105 16.5669C174.691 16.5669 174.278 16.6952 173.589 16.6952C172.211 16.8235 170.419 16.9518 168.076 16.9518C163.529 16.9518 157.465 16.6952 151.539 16.4386C145.476 16.182 139.55 15.9254 135.002 15.5405C130.317 15.2839 127.423 15.0273 127.423 15.0273Z" fill="black"/>
<path d="M48.0457 15.6705C48.0457 15.6705 52.7312 15.4139 59.6216 15.029C66.5121 14.6442 75.7453 14.131 84.9785 13.8744C87.3212 13.8744 89.664 13.7461 91.8689 13.7461C94.2117 13.7461 96.4166 13.8744 98.6215 13.8744C100.826 13.8744 102.894 14.0027 104.823 14.0027C106.752 14.0027 108.682 14.0027 110.473 14.131C113.918 14.2593 116.812 14.3876 118.879 14.5159C120.947 14.6442 122.049 14.7724 122.049 14.7724C122.049 14.7724 120.947 14.7724 118.879 14.7724C116.812 14.7724 113.918 14.6442 110.473 14.5159C108.682 14.3876 106.89 14.3876 104.823 14.3876C102.894 14.3876 100.689 14.2593 98.6215 14.2593C96.4166 14.2593 94.2117 14.131 92.0067 14.131C89.664 14.131 87.459 14.131 85.1163 14.2593C75.7453 14.5159 66.5121 15.029 59.6216 15.2856C56.1764 15.4139 53.2824 15.5422 51.2153 15.5422C49.1481 15.6705 48.0457 15.6705 48.0457 15.6705Z" fill="black"/>
<path d="M12.7668 11.4355C12.7668 11.4355 14.6962 11.4355 17.728 11.8204C20.7598 12.077 24.6184 12.7185 28.6149 13.36C32.4735 14.0014 36.47 14.7712 39.364 15.1561C42.258 15.541 44.3251 15.7976 44.3251 15.7976C44.3251 15.7976 43.7739 15.7976 42.947 15.7976C42.1202 15.7976 40.8799 15.6693 39.364 15.541C36.3322 15.1561 32.4735 14.5146 28.4771 13.8731C24.6184 13.2317 20.622 12.5902 17.728 12.2053C14.6962 11.6921 12.7668 11.4355 12.7668 11.4355Z" fill="black"/>
<path d="M7.11657 11.1816C7.11657 11.1816 8.08123 11.1816 8.90809 11.3099C9.87275 11.3099 10.6996 11.4382 10.6996 11.4382C10.6996 11.4382 9.73494 11.4382 8.90809 11.5665C7.94342 11.5665 7.11657 11.6948 7.11657 11.6948C6.97876 11.6948 6.97876 11.6948 6.97876 11.5665C6.97876 11.3099 6.97876 11.1816 7.11657 11.1816Z" fill="black"/>
<path d="M216.585 16.1875C216.585 16.1875 217.688 16.4441 218.652 16.829C219.755 17.2139 220.719 17.4704 220.719 17.4704C220.857 17.4704 220.857 17.5987 220.857 17.727C220.857 17.8553 220.719 17.8553 220.582 17.8553C220.582 17.8553 219.617 17.4704 218.515 16.9573C217.55 16.5724 216.585 16.1875 216.585 16.1875Z" fill="black"/>
<path d="M182.271 14.6404C182.271 14.6404 184.338 14.3838 187.37 14.1272C190.402 13.8706 194.536 13.7423 198.67 13.8706C202.805 13.9989 206.801 14.2555 209.833 14.7687C211.349 15.0253 212.589 15.2819 213.416 15.4102C214.243 15.6668 214.794 15.7951 214.794 15.7951C214.794 15.7951 214.243 15.6668 213.416 15.5385C212.589 15.4102 211.211 15.1536 209.833 15.0253C206.801 14.6404 202.805 14.2555 198.67 14.2555C194.536 14.1272 190.54 14.2555 187.508 14.3838C184.338 14.6404 182.271 14.6404 182.271 14.6404Z" fill="black"/>
<path d="M126.872 13.7461C126.872 13.7461 130.041 13.8744 135.003 14.0027C139.826 14.131 146.303 14.5159 152.78 14.9007C159.257 15.2856 165.734 15.6705 170.557 15.5422C173.038 15.5422 174.967 15.4139 176.345 15.2856C177.723 15.1573 178.55 15.1573 178.55 15.1573C178.55 15.1573 177.723 15.2856 176.345 15.4139C174.967 15.5422 172.9 15.7988 170.557 15.7988C165.734 15.7988 159.257 15.4139 152.78 15.029C146.303 14.6442 139.826 14.3876 135.003 14.131C130.041 14.0027 126.872 13.7461 126.872 13.7461Z" fill="black"/>
<path d="M52.4556 14.3876C52.4556 14.3876 56.7276 14.131 63.2047 13.8744C69.6817 13.4895 78.2258 12.9763 86.77 12.848C91.0421 12.7197 95.3142 12.848 99.4484 12.848C103.445 12.9763 107.166 12.9763 110.473 12.9763C113.643 13.1046 116.399 13.2329 118.19 13.2329C120.12 13.3612 121.084 13.3612 121.084 13.3612C121.084 13.3612 119.982 13.3612 118.19 13.3612C116.261 13.3612 113.643 13.2329 110.473 13.2329C107.304 13.1046 103.445 13.1046 99.4484 13.1046C95.452 12.9763 91.1799 12.9763 86.9078 13.1046C78.3637 13.2329 69.8195 13.8744 63.3425 14.131C60.1729 14.2593 57.4167 14.3876 55.6252 14.3876C53.558 14.3876 52.4556 14.3876 52.4556 14.3876Z" fill="black"/>
<path d="M13.8689 10.2852C13.8689 10.2852 16.2117 10.4135 19.5191 10.7983C22.9643 11.1832 27.3742 11.953 31.9219 12.7228C36.3318 13.4925 40.8795 14.2623 44.3247 14.3906C45.9784 14.5189 47.4943 14.5189 48.459 14.5189C49.4236 14.5189 49.9748 14.5189 49.9748 14.5189C49.9748 14.5189 49.4236 14.5189 48.459 14.6472C47.4943 14.6472 45.9784 14.7755 44.3247 14.6472C40.8795 14.3906 36.4696 13.7491 31.9219 12.9793C27.512 12.2096 22.9643 11.4398 19.6569 10.9266C18.0032 10.67 16.6251 10.5417 15.5226 10.4135C14.4201 10.4135 13.8689 10.2852 13.8689 10.2852Z" fill="black"/>
<path d="M7.25353 10.0254C7.25353 10.0254 8.49381 10.0254 9.73409 10.0254C10.9744 10.0254 12.2146 10.1537 12.2146 10.1537C12.2146 10.1537 10.9744 10.1537 9.73409 10.282C8.49381 10.282 7.25353 10.282 7.25353 10.282C7.11572 10.282 7.11572 10.282 7.11572 10.1537C7.11572 10.0254 7.11572 10.0254 7.25353 10.0254Z" fill="black"/>
<path d="M218.79 16.0508L220.857 16.6923C220.995 16.6923 220.995 16.8205 220.995 16.9488C220.995 17.0771 220.857 17.0771 220.72 17.0771L218.79 16.0508Z" fill="black"/>
<path d="M179.652 14.0035C179.652 14.0035 180.204 13.8752 181.168 13.747C182.133 13.6187 183.511 13.4904 185.302 13.2338C188.748 12.8489 193.295 12.7206 197.843 12.8489C202.391 12.9772 206.939 13.3621 210.384 13.8752C212.037 14.1318 213.416 14.5167 214.38 14.7733C215.345 15.0299 215.896 15.1582 215.896 15.1582C215.896 15.1582 215.345 15.0299 214.38 14.9016C213.829 14.7733 213.278 14.7733 212.589 14.645C211.9 14.5167 211.073 14.3884 210.246 14.2601C206.939 13.747 202.391 13.2338 197.843 13.2338C193.295 13.1055 188.748 13.3621 185.302 13.4904C183.649 13.6187 182.133 13.747 181.168 13.8752C180.204 13.8752 179.652 14.0035 179.652 14.0035Z" fill="black"/>
<path d="M128.663 12.4629C128.663 12.4629 131.695 12.4629 136.243 12.7195C138.448 12.8478 141.204 12.9761 143.96 13.1044C146.854 13.2327 149.748 13.361 152.78 13.6175C158.844 14.0024 164.769 14.5156 169.317 14.5156C171.522 14.5156 173.451 14.5156 174.829 14.5156C176.207 14.3873 176.896 14.3873 176.896 14.3873C176.896 14.3873 176.207 14.5156 174.829 14.6439C173.451 14.7722 171.66 14.9005 169.317 14.9005C164.769 14.7722 158.706 14.3873 152.78 14.0024C149.748 13.7458 146.716 13.6175 143.96 13.4892C141.066 13.361 138.448 13.2327 136.243 13.1044C131.695 12.7195 128.663 12.4629 128.663 12.4629Z" fill="black"/>
<path d="M48.0457 13.49C48.0457 13.49 49.2859 13.49 51.3531 13.3617C53.4202 13.3617 56.3142 13.2334 59.8972 12.9768C66.9255 12.5919 76.4343 11.9505 85.9431 11.6939C90.6286 11.5656 95.4519 11.5656 99.8618 11.6939C104.272 11.6939 108.406 11.6939 111.989 11.8222C115.572 11.9505 118.466 12.0788 120.533 12.0788C122.6 12.2071 123.841 12.2071 123.841 12.2071C123.841 12.2071 122.6 12.2071 120.533 12.2071C118.466 12.2071 115.572 12.0788 111.989 12.0788C108.406 11.9505 104.272 11.9505 99.8618 11.9505C95.4519 11.9505 90.6286 11.8222 85.9431 11.9505C76.4343 12.2071 67.0633 12.9768 59.8972 13.2334C56.3142 13.3617 53.4202 13.49 51.3531 13.49C49.1481 13.49 48.0457 13.49 48.0457 13.49Z" fill="black"/>
<path d="M13.0417 9.13086C13.0417 9.13086 14.9711 9.13086 18.0029 9.51574C21.0347 9.77233 24.8933 10.4138 28.8898 11.0553C32.7484 11.6967 36.7449 12.4665 39.6389 12.8514C42.5329 13.2363 44.6 13.4929 44.6 13.4929C44.6 13.4929 44.0488 13.4929 43.2219 13.4929C42.3951 13.4929 41.1548 13.3646 39.6389 13.108C36.7449 12.7231 32.7484 12.0816 28.8898 11.3119C25.0311 10.5421 21.0347 10.0289 18.1407 9.64404C16.6248 9.38745 15.3845 9.38745 14.5576 9.25915C13.4552 9.13086 13.0417 9.13086 13.0417 9.13086Z" fill="black"/>
<path d="M7.5301 8.87109C7.5301 8.87109 8.49476 8.87109 9.45942 8.99939C10.4241 8.99939 11.3887 8.99939 11.3887 8.99939C11.3887 8.99939 10.4241 8.99939 9.45942 8.99939C8.49476 8.99939 7.5301 9.12768 7.5301 9.12768C7.39229 9.12768 7.39229 9.12768 7.39229 8.99939C7.25448 8.87109 7.39229 8.87109 7.5301 8.87109Z" fill="black"/>
<path d="M216.035 14.3887C216.035 14.3887 216.31 14.517 216.862 14.6453C217.275 14.7736 217.964 14.9018 218.515 15.1584C219.756 15.5433 220.858 15.9282 220.858 15.9282C220.996 15.9282 220.996 16.0565 220.996 16.1848C220.996 16.3131 220.858 16.3131 220.72 16.3131C220.72 16.3131 219.48 15.7999 218.377 15.415C217.826 15.1584 217.137 14.9018 216.724 14.7736C216.31 14.517 216.035 14.3887 216.035 14.3887Z" fill="black"/>
<path d="M184.753 12.3299C184.753 12.3299 185.166 12.3299 185.993 12.2016C186.82 12.0733 187.922 12.0733 189.3 11.945C192.057 11.6884 195.64 11.6884 199.36 11.8167C203.081 11.945 206.664 12.3299 209.42 12.843C210.799 13.0996 211.901 13.3562 212.728 13.4845C213.555 13.7411 213.968 13.8694 213.968 13.8694C213.968 13.8694 212.177 13.6128 209.42 13.2279C208.042 12.9713 206.527 12.843 204.735 12.7148C203.081 12.5865 201.152 12.4582 199.36 12.3299C195.777 12.2016 192.057 12.2016 189.3 12.3299C186.544 12.3299 184.753 12.3299 184.753 12.3299Z" fill="black"/>
<path d="M128.801 11.0547C128.801 11.0547 132.109 11.183 136.932 11.3113C139.413 11.4396 142.169 11.5679 145.201 11.6962C148.232 11.8245 151.54 12.081 154.709 12.3376C161.186 12.8508 167.663 13.4923 172.487 13.364C174.967 13.364 176.897 13.1074 178.412 12.9791C179.791 12.8508 180.617 12.8508 180.617 12.8508C180.617 12.8508 179.791 12.9791 178.412 13.1074C177.034 13.2357 174.967 13.6206 172.487 13.6206C167.663 13.7489 161.186 13.1074 154.709 12.5942C151.54 12.3376 148.232 12.081 145.201 11.9527C142.169 11.8245 139.275 11.6962 136.932 11.5679C131.971 11.3113 128.801 11.0547 128.801 11.0547Z" fill="black"/>
<path d="M50.3889 12.2053C50.3889 12.2053 51.4914 12.2053 53.4207 12.077C55.35 11.9487 58.244 11.8204 61.5514 11.6921C68.3041 11.3073 77.2617 10.7941 86.2192 10.5375C90.7669 10.4092 95.1768 10.5375 99.4489 10.5375C103.721 10.5375 107.58 10.5375 111.025 10.6658C114.332 10.7941 117.226 10.7941 119.156 10.9224C121.085 11.0507 122.187 11.0507 122.187 11.0507C122.187 11.0507 121.085 11.0507 119.156 11.0507C117.226 11.0507 114.332 11.0507 111.025 11.0507C107.717 10.9224 103.721 11.0507 99.5867 10.9224C95.3146 10.9224 90.9048 10.7941 86.3571 10.9224C77.3995 11.0507 68.4419 11.6921 61.6892 11.9487C58.3818 12.077 55.4878 12.2053 53.5585 12.2053C51.4914 12.2053 50.3889 12.2053 50.3889 12.2053Z" fill="black"/>
<path d="M12.3528 7.84375C12.3528 7.84375 12.904 7.84375 13.8687 7.84375C14.8333 7.84375 16.2114 7.97204 17.8651 8.10034C21.1726 8.35693 25.5824 9.12669 29.9923 10.0248C34.4022 10.7945 38.6743 11.5643 41.9817 11.9492C43.6354 12.0775 45.0135 12.2058 45.9782 12.2058C46.9428 12.2058 47.4941 12.2058 47.4941 12.2058C47.4941 12.2058 46.9428 12.2058 45.9782 12.3341C45.0135 12.3341 43.6354 12.3341 41.9817 12.2058C38.6743 11.8209 34.2644 11.0511 29.8545 10.2813C25.4446 9.51158 21.1726 8.74181 17.8651 8.35693C16.2114 8.10034 14.8333 7.97204 13.8687 7.97204C12.904 7.84375 12.3528 7.84375 12.3528 7.84375Z" fill="black"/>
<path d="M7.6671 7.58984C7.6671 7.58984 8.21834 7.58984 8.90739 7.58984C9.45862 7.58984 10.1477 7.71814 10.1477 7.71814C10.1477 7.71814 9.59643 7.71814 8.90739 7.84643C8.35615 7.84643 7.6671 7.97473 7.6671 7.97473C7.52929 7.97473 7.5293 7.97473 7.5293 7.84643C7.5293 7.71814 7.52929 7.58984 7.6671 7.58984Z" fill="black"/>
<path d="M216.172 13.4902C216.172 13.4902 217.412 13.8751 218.514 14.1317C219.755 14.5166 220.857 14.9015 220.857 14.9015C220.995 14.9015 220.995 15.0298 220.995 15.1581C220.995 15.2864 220.857 15.2864 220.719 15.2864C220.719 15.2864 219.617 14.7732 218.377 14.3883C217.412 13.8751 216.172 13.4902 216.172 13.4902Z" fill="black"/>
<path d="M180.617 11.8219C180.617 11.8219 181.169 11.6936 181.996 11.5653C182.96 11.437 184.2 11.3087 185.716 11.0521C188.748 10.6673 193.02 10.539 197.155 10.6673C201.289 10.7955 205.423 11.1804 208.593 11.6936C210.109 11.9502 211.349 12.2068 212.313 12.4634C213.14 12.72 213.692 12.8483 213.692 12.8483C213.692 12.8483 213.14 12.72 212.313 12.5917C211.487 12.4634 210.109 12.2068 208.593 11.9502C205.561 11.437 201.427 11.0521 197.292 10.9238C193.158 10.7955 189.024 10.9238 185.854 11.1804C184.338 11.3087 182.96 11.437 182.133 11.5653C181.031 11.8219 180.617 11.8219 180.617 11.8219Z" fill="black"/>
<path d="M129.49 9.77148C129.49 9.77148 132.522 9.77148 136.932 10.0281C139.137 10.1564 141.755 10.1564 144.511 10.2847C145.889 10.2847 147.405 10.413 148.783 10.5413C150.299 10.6695 151.677 10.7978 153.193 10.9261C159.119 11.4393 165.045 12.2091 169.455 12.3374C171.66 12.4657 173.589 12.4657 174.829 12.3374C176.069 12.3374 176.896 12.2091 176.896 12.2091C176.896 12.2091 176.207 12.3374 174.829 12.4657C173.589 12.594 171.66 12.7223 169.455 12.594C164.907 12.4657 159.119 11.8242 153.193 11.1827C151.677 11.0544 150.161 10.9261 148.783 10.7978C147.267 10.6695 145.889 10.5413 144.511 10.5413C141.755 10.413 139.137 10.2847 136.932 10.1564C132.384 10.0281 129.49 9.77148 129.49 9.77148Z" fill="black"/>
<path d="M50.2505 11.3096C50.2505 11.3096 51.4908 11.3096 53.5579 11.1813C55.625 11.053 58.519 10.9247 62.1021 10.7964C69.1303 10.2832 78.6391 9.64173 88.0101 9.38514C92.6957 9.25685 97.519 9.38514 101.929 9.38514C106.339 9.38514 110.473 9.38515 114.056 9.51344C117.639 9.64173 120.533 9.64173 122.6 9.64173C124.667 9.77003 125.908 9.77003 125.908 9.77003C125.908 9.77003 124.667 9.77003 122.6 9.77003C120.533 9.77003 117.639 9.77003 114.056 9.77003C110.473 9.77003 106.339 9.64173 101.929 9.64173C97.519 9.64173 92.8335 9.64173 88.0101 9.64173C78.5013 9.77003 69.1303 10.6681 62.1021 10.9247C58.519 11.053 55.625 11.1813 53.5579 11.1813C51.4908 11.3096 50.2505 11.3096 50.2505 11.3096Z" fill="black"/>
<path d="M14.282 6.68945C14.282 6.68945 16.3491 6.68945 19.2431 7.07434C22.2749 7.33093 26.1336 7.9724 30.13 8.74217C33.9887 9.51193 37.9851 10.1534 40.8791 10.6666C42.395 10.9232 43.6353 11.0515 44.4621 11.1798C45.289 11.3081 45.8402 11.3081 45.8402 11.3081C45.8402 11.3081 45.289 11.3081 44.4621 11.3081C43.6353 11.3081 42.395 11.1798 40.8791 11.0515C37.8473 10.6666 33.9887 9.89682 29.9922 9.25534C26.1336 8.48558 22.1371 7.8441 19.1053 7.45922C17.5894 7.20263 16.3491 7.07434 15.5223 7.07434C14.8332 6.81775 14.282 6.68945 14.282 6.68945Z" fill="black"/>
<path d="M7.80505 6.43359C7.80505 6.43359 8.08066 6.43359 8.6319 6.43359C9.04533 6.43359 9.73437 6.43359 10.4234 6.56189C11.6637 6.56189 12.904 6.69018 12.904 6.69018C12.904 6.69018 11.6637 6.69018 10.4234 6.69018C9.73437 6.69018 9.18314 6.69018 8.6319 6.69018C8.21847 6.69018 7.80505 6.69018 7.80505 6.69018C7.66724 6.69018 7.66724 6.69018 7.66724 6.56189C7.66724 6.43359 7.80505 6.43359 7.80505 6.43359Z" fill="black"/>
<path d="M213.554 11.8203C213.554 11.8203 215.483 12.3335 217.412 12.8467C219.342 13.4881 221.133 14.0013 221.133 14.0013C221.271 14.0013 221.271 14.1296 221.271 14.2579C221.271 14.3862 221.133 14.3862 220.995 14.3862C220.995 14.3862 219.204 13.7447 217.275 13.1033C215.483 12.4618 213.554 11.8203 213.554 11.8203Z" fill="black"/>
<path d="M185.579 10.1562C185.579 10.1562 185.992 10.1562 186.681 10.0279C187.37 9.89957 188.335 9.89957 189.575 9.77128C192.056 9.64299 195.225 9.51469 198.533 9.64298C201.84 9.77128 205.01 10.1562 207.352 10.541C208.593 10.7976 209.557 10.9259 210.246 11.0542C210.935 11.1825 211.349 11.3108 211.349 11.3108C211.349 11.3108 210.935 11.3108 210.246 11.1825C209.557 11.0542 208.593 10.9259 207.352 10.7976C205.01 10.4128 201.702 10.1562 198.533 9.89957C195.363 9.77128 192.056 9.77128 189.713 9.89957C187.095 10.1562 185.579 10.1562 185.579 10.1562Z" fill="black"/>
<path d="M128.388 8.35742C128.388 8.35742 131.695 8.35742 136.519 8.61401C138.999 8.74231 141.893 8.8706 144.925 8.99889C147.957 9.12719 151.264 9.51207 154.434 9.76866C157.741 10.1535 160.911 10.5384 163.943 10.795C166.974 11.0516 169.868 11.3082 172.349 11.3082C174.83 11.3082 176.759 11.1799 178.275 11.0516C179.653 10.9233 180.48 10.9233 180.48 10.9233C180.48 10.9233 179.653 11.0516 178.275 11.1799C176.897 11.3082 174.83 11.5648 172.349 11.5648C169.868 11.5648 166.974 11.4365 163.943 11.0516C160.911 10.795 157.603 10.4101 154.434 10.0252C151.126 9.64037 147.957 9.25548 144.925 9.12719C141.893 8.99889 138.999 8.8706 136.519 8.74231C131.695 8.61401 128.388 8.35742 128.388 8.35742Z" fill="black"/>
<path d="M58.7949 9.90002C58.7949 9.90002 62.7914 9.64343 68.855 9.13025C74.9186 8.61707 82.9115 8.10389 91.0422 8.10389C99.0351 8.10389 107.166 7.9756 113.229 8.10389C116.261 8.10389 118.742 8.23219 120.533 8.23219C122.325 8.23219 123.29 8.36048 123.29 8.36048C123.29 8.36048 122.325 8.36048 120.533 8.36048C118.742 8.36048 116.261 8.36048 113.229 8.36048C107.166 8.36048 99.173 8.36048 91.0422 8.36048C83.0493 8.36048 74.9186 9.00196 68.9928 9.38684C65.961 9.51513 63.4804 9.77172 61.6889 9.77172C59.7596 9.90002 58.7949 9.90002 58.7949 9.90002Z" fill="black"/>
<path d="M12.0762 5.4082C12.0762 5.4082 12.7652 5.4082 13.8677 5.4082C14.9702 5.4082 16.6239 5.5365 18.5532 5.79309C22.4118 6.17797 27.6486 7.07603 32.7475 7.97409C37.8464 8.87215 42.9454 9.89851 46.9418 9.89851C48.8712 10.0268 50.5249 10.0268 51.6273 10.0268C52.7298 10.0268 53.4189 10.1551 53.4189 10.1551C53.4189 10.1551 52.7298 10.2834 51.6273 10.2834C50.5249 10.2834 48.8712 10.4117 46.9418 10.2834C42.9454 10.2834 37.8464 9.25704 32.7475 8.35898C27.6486 7.33262 22.5497 6.56285 18.691 6.04968C16.7617 5.79309 15.108 5.66479 14.0055 5.5365C12.7652 5.5365 12.0762 5.4082 12.0762 5.4082Z" fill="black"/>
<path d="M8.08068 5.27539C8.08068 5.27539 8.63192 5.27539 9.32096 5.27539C9.8722 5.27539 10.5612 5.40368 10.5612 5.40368C10.5612 5.40368 10.01 5.40368 9.32096 5.53198C8.76972 5.53198 8.08068 5.66027 8.08068 5.66027C7.94287 5.66027 7.94287 5.66027 7.94287 5.53198C7.94287 5.40368 7.94287 5.27539 8.08068 5.27539Z" fill="black"/>
<path d="M216.035 11.6934L221.134 13.2329C221.271 13.2329 221.271 13.3612 221.271 13.4895C221.271 13.6178 221.134 13.6178 220.996 13.6178L216.035 11.6934Z" fill="black"/>
<path d="M184.063 9.25699C184.063 9.25699 184.476 9.25699 185.165 9.1287C185.854 9.0004 186.957 8.87211 188.197 8.74382C190.678 8.48723 194.123 8.48723 197.43 8.61552C200.875 8.74382 204.183 9.1287 206.663 9.51358C207.904 9.77017 209.006 9.89847 209.695 10.1551C210.384 10.4116 210.798 10.4116 210.798 10.4116C210.798 10.4116 210.384 10.4116 209.695 10.2833C209.006 10.1551 207.904 10.0268 206.663 9.89847C204.183 9.51358 200.875 9.1287 197.43 9.0004C194.123 8.87211 190.678 8.87211 188.197 9.0004C186.957 9.0004 185.854 9.1287 185.165 9.25699C184.476 9.25699 184.063 9.25699 184.063 9.25699Z" fill="black"/>
<path d="M129.49 7.07617C129.49 7.07617 132.522 7.07617 136.932 7.33276C139.137 7.46106 141.755 7.46105 144.649 7.58935C146.027 7.58935 147.543 7.71765 148.921 7.84594C150.437 7.97423 151.815 8.10253 153.331 8.35912C159.257 9.12888 165.183 10.0269 169.73 10.1552C171.935 10.2835 173.864 10.2835 175.105 10.2835C176.345 10.2835 177.172 10.2835 177.172 10.2835C177.172 10.2835 176.483 10.4118 175.105 10.5401C173.864 10.6684 171.935 10.6684 169.73 10.5401C165.183 10.2835 159.257 9.38547 153.331 8.744C151.815 8.61571 150.299 8.35912 148.921 8.23082C147.405 8.10253 146.027 7.97423 144.649 7.97423C141.893 7.84594 139.274 7.71764 136.932 7.58935C132.384 7.20447 129.49 7.07617 129.49 7.07617Z" fill="black"/>
<path d="M52.5935 9.12827C52.5935 9.12827 53.696 8.99998 55.7631 8.99998C57.8302 8.87168 60.5864 8.74339 64.0316 8.4868C70.9221 7.97362 80.1553 7.20386 89.2507 7.07556C98.4839 6.94727 107.717 6.94727 114.608 6.94727C118.053 6.94727 120.947 7.07556 123.014 7.07556C125.081 7.07556 126.183 7.20386 126.183 7.20386C126.183 7.20386 125.081 7.20385 123.014 7.33215C120.947 7.33215 118.191 7.33215 114.608 7.46044C107.717 7.46044 98.4839 7.46044 89.2507 7.58874C80.0175 7.71703 70.9221 8.4868 64.0316 8.87168C60.5864 9.12827 57.6924 9.25657 55.7631 9.25657C53.8338 9.12827 52.5935 9.12827 52.5935 9.12827Z" fill="black"/>
<path d="M14.8328 4.38281C14.8328 4.38281 15.384 4.38281 16.3487 4.51111C17.3133 4.51111 18.6914 4.6394 20.3451 4.89599C23.6525 5.28087 27.9246 6.05064 32.1967 6.82041C36.4688 7.59018 40.7409 8.48824 44.0483 8.87312C45.702 9.12971 47.0801 9.12971 48.0447 9.25801C49.0094 9.3863 49.5606 9.3863 49.5606 9.3863C49.5606 9.3863 49.0094 9.3863 48.0447 9.3863C47.0801 9.3863 45.702 9.3863 44.0483 9.25801C40.7409 8.87312 36.4688 8.10335 32.1967 7.20529C27.9246 6.30723 23.5147 5.66576 20.3451 5.15258C18.6914 4.89599 17.3133 4.7677 16.3487 4.6394C15.384 4.38281 14.8328 4.38281 14.8328 4.38281Z" fill="black"/>
<path d="M8.21813 4.12305C8.21813 4.12305 8.49375 4.12305 8.90718 4.12305C9.32061 4.12305 9.87184 4.12305 10.4231 4.25134C11.5255 4.37964 12.628 4.37964 12.628 4.37964C12.628 4.37964 11.5255 4.37964 10.4231 4.37964C9.87184 4.37964 9.32061 4.37964 8.90718 4.37964C8.49375 4.37964 8.21813 4.37964 8.21813 4.37964C8.08033 4.37964 8.08032 4.37964 8.08032 4.25134C8.08032 4.12305 8.21813 4.12305 8.21813 4.12305Z" fill="black"/>
<path d="M212.313 9.77148C212.313 9.77148 214.518 10.413 216.861 11.0544C217.963 11.311 219.066 11.6959 219.893 11.9525C220.72 12.2091 221.271 12.3374 221.271 12.3374C221.409 12.3374 221.409 12.4657 221.409 12.594C221.409 12.7223 221.271 12.7223 221.133 12.7223C221.133 12.7223 220.582 12.4657 219.755 12.2091C218.928 11.9525 217.826 11.5676 216.723 11.1827C214.518 10.413 212.313 9.77148 212.313 9.77148Z" fill="black"/>
<path d="M183.511 8.22891C183.511 8.22891 185.027 7.97232 187.37 7.84403C189.713 7.58744 192.882 7.45915 196.052 7.58744C199.222 7.71573 202.253 7.97232 204.596 8.35721C206.939 8.74209 208.455 9.12697 208.455 9.12697C208.455 9.12697 206.939 8.99868 204.596 8.6138C202.253 8.22891 199.222 7.97232 196.052 7.84403C192.882 7.71574 189.851 7.84403 187.508 7.97232C185.027 8.22891 183.511 8.22891 183.511 8.22891Z" fill="black"/>
<path d="M128.801 5.66211C128.801 5.66211 132.109 5.66211 136.932 5.7904C139.413 5.7904 142.307 5.9187 145.338 6.17529C148.37 6.43188 151.678 6.81676 154.847 7.32994C158.017 7.84312 161.324 8.35629 164.356 8.61288C167.388 8.99777 170.282 9.25436 172.625 9.25436C175.105 9.25436 177.172 9.12606 178.55 9.12606C179.928 9.12606 180.755 8.99777 180.755 8.99777C180.755 8.99777 179.928 9.12606 178.55 9.25436C177.172 9.38265 175.105 9.63924 172.625 9.63924C170.144 9.63924 167.25 9.38265 164.218 8.99777C161.186 8.61288 158.017 8.09971 154.709 7.58653C151.54 7.07335 148.232 6.68847 145.201 6.43188C142.169 6.17529 139.275 6.04699 136.794 5.9187C131.971 5.7904 128.801 5.66211 128.801 5.66211Z" fill="black"/>
<path d="M59.4827 7.58921C59.4827 7.58921 63.4791 7.20433 69.5427 6.69115C75.6063 6.17797 83.737 5.66479 91.73 5.66479C99.8607 5.5365 107.991 5.5365 114.055 5.4082C117.087 5.4082 119.567 5.4082 121.359 5.4082C123.15 5.4082 124.115 5.4082 124.115 5.4082C124.115 5.4082 123.15 5.4082 121.359 5.5365C119.567 5.5365 117.087 5.66479 114.055 5.66479C107.991 5.66479 99.8607 5.79309 91.73 5.79309C87.7335 5.79309 83.5992 5.92138 79.8784 6.17797C76.1575 6.43456 72.5745 6.56285 69.5427 6.81944C66.5109 7.07603 64.0304 7.20433 62.2388 7.33262C60.5851 7.58921 59.4827 7.58921 59.4827 7.58921Z" fill="black"/>
<path d="M13.593 3.09961C13.593 3.09961 14.2821 3.09961 15.3845 3.09961C16.487 3.09961 18.1407 3.2279 20.2079 3.48449C24.2043 3.86938 29.441 4.89573 34.54 5.92209C37.1584 6.43527 39.7767 6.94845 42.1195 7.33333C43.3598 7.46162 44.6 7.71821 45.7025 7.71821C46.805 7.71821 47.9074 7.84651 48.8721 7.84651C52.8686 7.84651 55.4869 7.9748 55.4869 7.9748C55.4869 7.9748 52.8686 8.1031 48.8721 8.1031C47.9074 8.1031 46.805 7.9748 45.7025 7.9748C44.6 7.9748 43.3598 7.71821 42.1195 7.58992C39.6389 7.20503 37.0205 6.69186 34.4022 6.17868C31.7838 5.6655 29.1654 5.15232 26.8227 4.76744C24.3421 4.38255 22.1372 3.99767 20.07 3.74108C18.1407 3.48449 16.487 3.3562 15.2467 3.2279C14.2821 3.09961 13.593 3.09961 13.593 3.09961Z" fill="black"/>
<path d="M8.49426 2.96484C8.49426 2.96484 9.45892 2.96484 10.4236 2.96484C11.3882 2.96484 12.3529 3.09314 12.3529 3.09314C12.3529 3.09314 11.3882 3.09314 10.4236 3.09314C9.45892 3.09314 8.49426 3.22143 8.49426 3.22143C8.35645 3.22143 8.35645 3.22143 8.35645 3.09314C8.35645 2.96484 8.35645 2.96484 8.49426 2.96484Z" fill="black"/>
<path d="M10.561 16.4408C10.561 16.4408 10.4232 16.3125 10.2853 16.0559C10.1475 15.7993 10.0097 15.2861 10.2853 14.7729C10.4232 14.6446 10.4232 14.5164 10.6988 14.3881C10.8366 14.3881 10.8366 14.2598 10.9744 14.2598H11.1122C11.1122 14.2598 11.25 14.2598 11.3878 14.3881C11.5256 14.6446 11.6634 14.9012 11.8012 15.2861C12.0769 15.9276 12.2147 16.6974 12.2147 17.3388C12.3525 18.7501 12.2147 20.1613 12.4903 21.1877C12.6281 21.7008 12.7659 22.0857 12.7659 22.3423C12.9037 22.5989 12.9037 22.8555 12.9037 22.8555C12.9037 22.8555 12.7659 22.7272 12.6281 22.4706C12.4903 22.214 12.2147 21.8291 12.0769 21.316C11.8012 20.2896 11.8012 18.8784 11.8012 17.4671C11.8012 16.8257 11.6634 16.0559 11.3878 15.5427C11.25 15.2861 11.1122 14.9012 10.9744 14.7729C10.9744 14.7729 10.9744 14.7729 10.8366 14.7729H10.6988C10.561 14.7729 10.561 14.9012 10.4232 15.0295C10.1475 15.4144 10.2853 15.9276 10.2853 16.1842C10.4232 16.1842 10.561 16.4408 10.561 16.4408Z" fill="black"/>
<path d="M139.688 28.242C139.688 28.242 140.239 27.3439 141.066 26.061C142.031 24.778 143.271 23.2385 144.787 21.6989C145.476 20.9292 146.303 20.2877 147.13 19.6462C147.543 19.3896 147.957 19.1331 148.37 18.8765C148.784 18.6199 149.197 18.4916 149.61 18.3633C149.748 18.3633 150.162 18.3633 150.3 18.6199C150.3 18.8765 150.3 19.0048 150.3 19.133C150.3 19.3896 150.3 19.6462 150.162 19.9028C150.162 20.2877 150.024 20.5443 150.024 20.5443C150.024 20.5443 150.024 20.2877 150.024 19.9028C150.024 19.6462 150.024 19.3896 150.024 19.133C150.024 19.0048 150.024 18.7482 150.024 18.7482C150.024 18.6199 149.886 18.6199 149.748 18.6199C149.335 18.6199 149.059 18.8765 148.646 19.133C148.232 19.3896 147.819 19.6462 147.543 19.9028C146.716 20.5443 146.027 21.1858 145.201 21.9555C143.685 23.3668 142.307 25.0346 141.342 26.1892C140.377 27.4722 139.688 28.242 139.688 28.242Z" fill="black"/>
<path d="M164.218 32.9925C164.218 32.9925 164.493 32.7359 164.907 32.2228C165.32 31.7096 166.009 31.0681 166.836 30.17C168.352 28.5022 170.557 26.3212 172.762 24.2685C173.864 23.2421 174.967 22.0875 176.069 21.1894C176.621 20.6763 177.172 20.2914 177.585 19.7782C177.861 19.5216 177.999 19.3933 178.412 19.1367C178.55 19.1367 178.55 19.1367 178.688 19.1367C178.826 19.1367 178.963 19.265 178.963 19.265C179.101 19.3933 179.101 19.6499 179.101 19.7782C178.963 20.4197 178.826 20.8045 178.688 21.3177C178.55 21.7026 178.412 22.0875 178.274 22.3441C177.999 22.9856 177.861 23.2421 177.861 23.2421C177.861 23.2421 177.999 22.8573 178.136 22.2158C178.274 21.9592 178.412 21.5743 178.55 21.0611C178.688 20.6763 178.826 20.1631 178.963 19.6499C178.963 19.5216 178.963 19.3933 178.963 19.3933C178.963 19.3933 178.963 19.3933 178.826 19.3933H178.688C178.55 19.5216 178.274 19.7782 177.999 19.9065C177.447 20.2914 177.034 20.8045 176.483 21.3177C175.38 22.3441 174.278 23.3704 173.175 24.3968C170.97 26.5778 168.765 28.6305 167.112 30.2983C165.458 31.9662 164.218 32.9925 164.218 32.9925Z" fill="black"/>
<path d="M44.7386 31.5752C44.7386 31.5752 43.6361 30.5488 41.9824 28.881C40.3287 27.3415 38.1237 25.1604 35.9188 23.1077C34.8163 22.0814 33.7138 21.055 32.6114 20.0287C32.0601 19.5155 31.6467 19.0023 31.0955 18.6174L30.682 18.3608L30.5442 18.2325C30.5442 18.2325 30.5442 18.2325 30.4064 18.2325C30.2686 18.2325 30.1308 18.2325 30.1308 18.2325C30.1308 18.1042 30.1308 18.3608 30.2686 18.4891C30.9577 20.6701 31.0955 22.0814 31.0955 22.0814C31.0955 22.0814 30.5442 20.6701 29.8552 18.6174V18.3608C29.8552 18.3608 29.7174 18.1042 29.8552 17.976C30.1308 17.8477 30.2686 17.8477 30.4064 17.8477C30.5442 17.8477 30.682 17.8477 30.682 17.976L30.8199 18.1042L31.2333 18.4891C31.6467 19.0023 32.1979 19.3872 32.7492 19.9004C33.8517 20.9267 34.9541 21.9531 36.0566 22.9794C38.2615 25.0321 40.4665 27.2132 42.1202 28.881C43.7739 30.4205 44.7386 31.5752 44.7386 31.5752Z" fill="black"/>
<path d="M24.6174 193.1C24.6174 193.1 24.6174 193.228 24.7552 193.613C24.7552 193.741 24.7552 193.998 24.893 194.126C25.0308 194.383 25.0308 194.511 25.1686 194.767C25.4443 195.281 25.5821 195.794 25.9955 196.435C26.4089 197.077 26.8223 197.59 27.3736 198.103C28.3382 199.258 29.4407 200.284 29.9919 201.31C30.2676 201.824 30.4054 202.209 30.5432 202.593C30.5432 202.85 30.5432 203.107 30.5432 203.107C30.5432 203.107 30.5432 202.978 30.4054 202.593C30.2676 202.337 30.1298 201.824 29.7163 201.439C29.0273 200.541 27.9248 199.514 26.9601 198.36C26.4089 197.847 25.9955 197.205 25.5821 196.564C25.1686 195.922 24.893 195.409 24.6174 194.896C24.4796 194.639 24.4796 194.383 24.3418 194.126C24.204 193.869 24.204 193.741 24.204 193.613C24.204 193.356 24.0662 193.1 24.0662 193.1H24.6174Z" fill="black"/>
<path d="M197.43 182.455C197.43 182.455 197.43 182.583 197.292 182.968C197.292 183.225 197.155 183.738 196.879 184.251C196.466 185.278 195.501 186.56 194.536 187.843C194.123 188.485 193.572 188.998 193.158 189.64C192.745 190.153 192.469 190.794 192.193 191.307C192.056 191.564 192.056 191.821 192.056 192.077C192.056 192.334 191.918 192.462 191.918 192.59C191.918 192.975 191.918 193.104 191.918 193.104C191.918 193.104 191.918 192.975 191.78 192.59C191.78 192.462 191.78 192.205 191.78 191.949C191.78 191.692 191.918 191.436 191.918 191.179C192.193 190.024 193.158 188.742 194.123 187.587C195.087 186.432 195.914 185.149 196.328 184.123C196.466 183.866 196.466 183.61 196.603 183.481C196.741 183.225 196.741 183.097 196.741 182.968C196.879 182.712 196.879 182.455 196.879 182.455H197.43Z" fill="black"/>
<path d="M200.323 211.449C200.323 211.449 200.323 211.578 200.185 211.834C200.048 212.091 199.91 212.604 199.772 212.989C199.359 213.887 198.532 215.041 197.705 216.068C197.292 216.581 196.878 217.222 196.602 217.736C196.189 218.249 195.913 218.762 195.776 219.275C195.638 219.788 195.5 220.173 195.5 220.43C195.5 220.686 195.5 220.943 195.5 220.943C195.5 220.943 195.5 220.815 195.5 220.43C195.5 220.173 195.5 219.66 195.638 219.275C195.913 218.249 196.74 217.094 197.567 216.068C198.394 214.913 199.221 213.887 199.634 212.989C199.91 212.604 200.048 212.219 200.048 211.962C200.185 211.706 200.185 211.578 200.185 211.578L200.323 211.449Z" fill="black"/>
<path d="M197.43 30.2967C197.43 30.2967 197.43 30.1684 197.568 30.0402C197.705 29.9119 197.843 29.527 198.119 29.2704C198.394 29.0138 198.67 28.6289 199.083 28.3723C199.497 27.9874 200.048 27.7308 200.599 27.346C202.804 25.9347 206.112 24.2669 209.281 22.7274C210.108 22.3425 210.935 21.9576 211.624 21.5727C212.451 21.1878 213.278 20.8029 214.105 20.6747C214.38 20.6747 214.518 20.5464 214.794 20.8029C215.069 21.0595 215.069 21.3161 214.931 21.4444C214.794 21.8293 214.656 22.2142 214.518 22.5991C214.242 23.2405 213.829 23.882 213.553 24.3952C212.313 26.5762 211.211 27.9874 211.211 27.9874C211.211 27.9874 211.9 26.4479 213.278 24.2669C213.553 23.7537 213.967 23.1122 214.242 22.4708C214.518 21.9576 215.069 20.8029 214.105 21.0595C213.278 21.1878 212.589 21.5727 211.762 21.9576C210.935 22.3425 210.108 22.7274 209.419 23.1122C206.249 24.6518 203.08 26.3196 200.737 27.6026C199.635 28.244 198.67 28.8855 198.119 29.527C197.843 29.7836 197.705 30.0402 197.568 30.1684L197.43 30.2967Z" fill="black"/>
<path d="M23.3773 123.182C23.3773 123.182 23.5151 123.567 23.7907 124.208C24.0663 124.849 24.6176 125.619 25.031 126.389C25.3066 126.774 25.4444 127.159 25.5822 127.672C25.72 128.057 25.8579 128.442 25.8579 128.827C25.8579 129.211 25.8579 129.468 25.72 129.725C25.5822 129.853 25.5822 129.981 25.5822 129.981C25.5822 129.981 25.5822 129.853 25.5822 129.725C25.5822 129.468 25.5822 129.211 25.5822 128.955C25.4444 128.313 25.031 127.415 24.6176 126.646C24.2041 125.876 23.6529 125.106 23.3773 124.465C23.2395 124.208 23.1017 123.823 23.1017 123.695C23.1017 123.438 22.9639 123.438 22.9639 123.438L23.3773 123.182Z" fill="black"/>
<path d="M23.7905 167.058C23.7905 167.058 23.7905 166.929 23.9283 166.673C23.9283 166.416 24.0661 166.16 24.204 165.775C24.4796 165.005 24.893 164.107 25.3064 163.209C25.7199 162.311 26.2711 161.413 26.5467 160.771C26.6845 160.386 26.6845 160.13 26.6845 159.873C26.6845 159.617 26.5467 159.488 26.5467 159.488C26.5467 159.488 26.5467 159.617 26.6845 159.873C26.6845 160.13 26.8223 160.386 26.6845 160.771C26.5467 161.541 25.9955 162.439 25.582 163.337C25.1686 164.235 24.7552 165.133 24.4796 165.903C24.3418 166.288 24.3418 166.544 24.204 166.801C24.204 167.058 24.0661 167.186 24.0661 167.186L23.7905 167.058Z" fill="black"/>
<path d="M28.8897 78.1504C28.8897 78.1504 29.1654 78.6636 29.5788 79.5616C29.9922 80.3314 30.5434 81.486 30.8191 82.6407C31.2325 83.7953 31.3703 85.0783 31.2325 85.9764C31.2325 86.4895 31.0947 86.7461 30.9569 87.0027C30.8191 87.2593 30.8191 87.3876 30.8191 87.3876C30.8191 87.3876 30.9569 86.7461 30.9569 85.8481C30.9569 84.95 30.8191 83.7953 30.4056 82.6407C29.9922 81.486 29.5788 80.4597 29.1654 79.5616C28.7519 78.7919 28.4763 78.1504 28.4763 78.1504H28.8897Z" fill="black"/>
<path d="M24.4803 227.613C24.4803 227.613 24.6181 227.998 24.756 228.768C24.756 229.153 24.8938 229.538 25.1694 230.051C25.3072 230.564 25.5828 230.949 25.9962 231.462C26.4097 231.975 26.8231 232.488 27.5121 232.745L27.9256 233.002L28.4768 233.258C28.8902 233.387 29.1658 233.643 29.5793 233.771C31.0952 234.285 32.8867 234.669 34.5404 235.183C36.3319 235.568 37.9856 236.209 39.5015 236.722C40.3284 237.107 41.0174 237.364 41.7065 237.749C42.3955 238.133 43.0845 238.39 43.6358 238.775C44.187 239.16 44.7383 239.416 45.1517 239.801C45.5651 240.186 45.9785 240.443 46.2541 240.699C46.8054 241.213 47.081 241.469 47.081 241.469C47.081 241.469 46.6676 241.213 46.1163 240.828C45.8407 240.571 45.4273 240.314 45.0139 240.058C44.6004 239.801 44.0492 239.416 43.498 239.16C42.9467 238.775 42.2577 238.518 41.5686 238.133C40.8796 237.749 40.1906 237.492 39.3637 237.235C37.8478 236.594 36.1941 236.081 34.4026 235.696C32.7489 235.183 30.9574 234.798 29.3036 234.285C28.8902 234.156 28.4768 234.028 28.2012 233.771L27.6499 233.515L27.0987 233.258C26.4097 232.873 25.9962 232.36 25.445 231.847C25.1694 231.334 24.756 230.821 24.6181 230.307C24.4803 229.794 24.3425 229.409 24.3425 229.025C24.4803 228.126 24.4803 227.613 24.4803 227.613Z" fill="black"/>
<path d="M85.8042 242.754C85.8042 242.754 85.942 242.754 86.3554 242.625C86.6311 242.625 87.1823 242.497 87.7335 242.625C88.836 242.625 90.3519 242.882 91.73 243.267C93.1081 243.652 94.4862 244.037 95.5886 244.165C96.6911 244.421 97.3802 244.421 97.3802 244.421V244.678C97.3802 244.678 96.6911 244.678 95.5886 244.421C94.4862 244.165 93.1081 243.78 91.73 243.523C90.3519 243.139 88.9738 242.882 87.8713 242.754C86.6311 242.625 85.8042 242.754 85.8042 242.754Z" fill="black"/>
<path d="M118.879 242.62C118.879 242.62 118.19 242.62 117.363 242.62C116.398 242.62 115.158 242.876 114.055 243.261C112.953 243.646 111.713 244.159 110.886 244.288C109.921 244.544 109.37 244.544 109.37 244.544V244.288C109.37 244.288 109.921 244.159 110.886 243.903C111.713 243.646 112.953 243.261 114.055 242.876C115.296 242.492 116.536 242.363 117.501 242.363C117.914 242.363 118.327 242.492 118.603 242.492C118.741 242.62 118.879 242.62 118.879 242.62Z" fill="black"/>
<path d="M144.236 243.395C144.236 243.395 144.373 243.395 144.649 243.395C144.925 243.395 145.338 243.395 145.752 243.395C146.716 243.395 147.819 243.651 148.921 243.908C150.024 244.164 151.264 244.421 152.091 244.549C152.504 244.549 152.918 244.549 153.055 244.549C153.331 244.549 153.469 244.421 153.469 244.421L153.607 244.677C153.607 244.677 153.469 244.677 153.193 244.806C152.918 244.806 152.504 244.806 152.091 244.806C151.126 244.677 150.024 244.421 148.921 244.164C147.819 243.908 146.578 243.651 145.752 243.523C144.787 243.523 144.236 243.395 144.236 243.395Z" fill="black"/>
<path d="M65.6836 245.059C65.6836 245.059 65.8214 245.059 66.097 245.059C66.3726 245.059 66.6483 245.059 67.0617 245.059C67.4751 245.059 67.8885 245.059 68.4398 245.187C68.991 245.315 69.4044 245.443 69.9557 245.572C70.9203 245.957 72.0228 246.342 72.7118 246.47C73.5387 246.598 73.9521 246.598 73.9521 246.598V246.855C73.9521 246.855 73.4009 246.855 72.574 246.726C71.7472 246.598 70.7825 246.085 69.8179 245.828C69.2666 245.7 68.8532 245.443 68.302 245.443C67.8885 245.315 67.3373 245.315 66.9239 245.187C66.2348 245.059 65.6836 245.059 65.6836 245.059Z" fill="black"/>
<path d="M20.7588 248.137C20.7588 248.137 22.4125 248.137 24.204 247.88C25.0309 247.752 25.8577 247.624 26.5468 247.495C27.2358 247.367 27.6492 247.367 27.6492 247.367C27.6492 247.367 27.2358 247.495 26.6846 247.752C26.1333 247.88 25.1687 248.137 24.3418 248.265C23.515 248.394 22.6881 248.522 21.9991 248.522C21.31 248.522 20.8966 248.522 20.8966 248.522L20.7588 248.137Z" fill="black"/>
<path d="M123.15 24.2699C123.15 24.2699 123.288 24.0133 123.426 23.5001C123.563 22.9869 123.839 22.2172 124.252 21.3191C124.528 20.9342 124.666 20.4211 125.217 19.9079C125.493 19.6513 125.906 19.6513 126.182 19.7796C126.457 19.9079 126.733 20.1645 127.009 20.4211C127.835 21.4474 128.249 22.7304 128.387 24.0133C128.524 25.2962 128.524 26.5792 128.387 27.8621C128.249 29.0168 128.111 30.1714 127.973 31.0695C127.698 32.9939 127.284 34.1486 127.284 34.1486C127.284 34.1486 127.284 33.7637 127.284 33.2505C127.284 32.7373 127.422 31.8393 127.56 30.9412C127.835 29.0168 128.249 26.4509 127.973 24.0133C127.835 22.7304 127.422 21.5757 126.733 20.5494C126.32 20.1645 125.768 19.6513 125.355 20.0362C124.941 20.2928 124.666 20.8059 124.528 21.1908C124.115 22.0889 123.839 22.8587 123.563 23.3718C123.426 24.0133 123.15 24.2699 123.15 24.2699Z" fill="black"/>
<path d="M76.8472 24.5218C76.8472 24.5218 76.8472 24.2652 76.7094 23.8803C76.5716 23.4954 76.4338 22.9823 76.296 22.3408C76.296 21.9559 76.1582 21.6993 76.1582 21.3144C76.1582 20.9295 76.1582 20.5447 76.296 20.0315C76.4338 19.5183 77.1229 19.2617 77.5363 19.2617C78.0875 19.2617 78.6388 19.39 78.9144 19.7749C79.7412 20.4164 80.1547 21.1861 80.7059 21.9559C81.1193 22.7257 81.3949 23.4954 81.6706 24.0086C82.2218 25.2916 82.3596 26.1896 82.3596 26.1896C82.3596 26.1896 81.9462 25.4199 81.3949 24.1369C81.1193 23.4954 80.8437 22.854 80.4303 22.0842C80.0169 21.3144 79.4656 20.5447 78.7766 20.0315C78.3631 19.7749 78.0875 19.6466 77.5363 19.6466C77.1229 19.6466 76.7094 19.7749 76.5716 20.1598C76.4338 20.5447 76.4338 20.9295 76.4338 21.3144C76.4338 21.6993 76.4338 22.0842 76.5716 22.3408C76.7094 22.9823 76.7094 23.4954 76.8472 23.8803C76.8472 24.2652 76.8472 24.5218 76.8472 24.5218Z" fill="black"/>
<path d="M188.197 24.5235C188.197 24.5235 188.335 24.2669 188.611 23.7537C188.886 23.2406 189.3 22.5991 189.851 21.9576C190.127 21.5727 190.54 21.1879 190.816 20.803C191.229 20.4181 191.642 20.0332 192.469 20.0332C193.296 20.1615 193.572 20.803 193.847 21.3161C194.123 21.8293 194.261 22.4708 194.123 23.1123C194.123 23.7537 193.847 24.3952 193.71 24.9084C193.434 25.4216 193.158 25.9348 192.883 26.4479C192.332 27.4743 191.642 28.2441 191.091 29.0138C189.851 30.4251 189.024 31.3231 189.024 31.3231C189.024 31.3231 189.162 31.0665 189.438 30.5534C189.713 30.1685 190.127 29.527 190.816 28.7572C191.367 27.9875 192.056 27.2177 192.607 26.1913C192.883 25.6782 193.158 25.165 193.434 24.6518C193.71 24.1386 193.847 23.6254 193.847 22.984C193.847 22.4708 193.847 21.8293 193.572 21.3161C193.296 20.803 193.021 20.2898 192.469 20.1615C191.918 20.1615 191.505 20.5464 191.091 20.803C190.678 21.1879 190.402 21.4444 189.989 21.8293C189.438 22.4708 188.886 23.1123 188.611 23.6254C188.335 24.2669 188.197 24.5235 188.197 24.5235Z" fill="black"/>
<path d="M203.493 227.736C203.493 227.736 203.493 227.865 203.355 228.121C203.217 228.378 203.08 228.634 202.804 229.019C202.253 229.661 201.564 230.431 200.737 231.2C199.91 231.97 199.083 232.612 198.532 233.125C198.256 233.381 198.256 233.766 198.256 234.023C198.256 234.279 198.394 234.408 198.394 234.408C198.394 234.408 198.394 234.279 198.256 234.023C198.256 233.894 198.256 233.766 198.256 233.638C198.256 233.51 198.394 233.253 198.394 233.125C198.808 232.355 199.634 231.713 200.461 230.944C200.875 230.559 201.288 230.174 201.564 229.917C201.977 229.532 202.253 229.148 202.391 228.891C202.666 228.634 202.804 228.378 202.942 228.121C203.08 227.865 203.08 227.865 203.08 227.865L203.493 227.736Z" fill="black"/>
<path d="M210.797 232.1C210.797 232.1 210.935 232.356 210.935 232.869C210.935 233.383 210.659 234.024 210.384 234.537C210.108 235.05 209.695 235.564 209.419 236.077C209.144 236.462 209.281 236.847 209.281 236.847C209.281 236.847 209.281 236.847 209.144 236.59C209.144 236.462 209.006 236.205 209.144 235.948C209.281 235.435 209.695 234.922 209.97 234.409C210.246 233.896 210.384 233.254 210.384 232.869C210.384 232.485 210.384 232.1 210.384 232.1H210.797Z" fill="black"/>
<path d="M206.525 236.849C206.525 236.849 206.387 236.849 206.249 236.977C206.111 236.977 205.836 237.106 205.56 237.362C205.147 237.747 204.595 238.389 204.32 239.03C203.906 239.671 203.631 240.441 203.217 240.954C203.08 241.211 202.804 241.339 202.666 241.468C202.528 241.596 202.391 241.596 202.391 241.596L202.253 241.339C202.253 241.339 202.39 241.339 202.528 241.211C202.666 241.083 202.804 240.954 202.942 240.698C203.355 240.185 203.631 239.543 204.044 238.773C204.458 238.004 204.871 237.362 205.56 236.977C205.836 236.849 206.111 236.721 206.249 236.721C206.387 236.849 206.525 236.849 206.525 236.849Z" fill="black"/>
<path d="M18.6915 230.568C18.6915 230.568 18.6915 230.697 18.6915 230.825C18.6915 230.953 18.8293 231.082 18.9671 231.338C19.2427 231.851 19.6562 232.364 19.9318 233.006C20.3452 233.647 20.6208 234.289 20.7586 234.802C20.7586 235.315 20.6208 235.7 20.6208 235.7C20.6208 235.7 20.6208 235.315 20.483 234.802C20.3452 234.289 20.0696 233.647 19.6562 233.134C19.2427 232.493 18.8293 231.98 18.5537 231.466C18.4159 231.21 18.4159 230.953 18.2781 230.825C18.2781 230.697 18.2781 230.568 18.2781 230.568H18.6915Z" fill="black"/>
<path d="M17.1758 240.443C17.1758 240.443 17.1758 240.572 17.1758 240.7C17.1758 240.828 17.1758 241.085 17.1758 241.341C17.1758 241.598 17.3136 241.855 17.5892 242.111C17.727 242.368 18.1404 242.496 18.416 242.624C18.6917 242.753 19.1051 242.881 19.3807 243.138C19.6563 243.266 19.9319 243.522 20.0698 243.779C20.2076 244.036 20.2076 244.292 20.2076 244.42C20.2076 244.549 20.2076 244.677 20.2076 244.677C20.2076 244.677 20.2076 244.549 20.2076 244.42C20.2076 244.292 20.2076 244.292 20.0698 244.164C20.0698 244.036 19.9319 243.907 19.9319 243.907C19.6563 243.522 18.9673 243.266 18.2782 243.009C18.0026 242.881 17.5892 242.624 17.3136 242.368C17.038 242.111 16.9001 241.726 16.9001 241.47C16.9001 241.213 16.9001 240.957 16.9001 240.828C16.9001 240.7 16.9001 240.572 16.9001 240.572L17.1758 240.443Z" fill="black"/>
<line x1="85.7957" y1="261.818" x2="151.694" y2="261.818" stroke="black"/>
<line x1="0.0375977" y1="270.846" x2="95.7257" y2="270.846" stroke="black"/>
<line x1="137.251" y1="270.846" x2="232.939" y2="270.846" stroke="black"/>
</svg>
