<?xml version="1.0" encoding="utf-8"?>
<!-- Generator: Adobe Illustrator 23.1.0, SVG Export Plug-In . SVG Version: 6.00 Build 0)  -->
<svg version="1.1" xmlns="http://www.w3.org/2000/svg" xmlns:xlink="http://www.w3.org/1999/xlink" x="0px" y="0px"
	 viewBox="0 0 234 288" style="enable-background:new 0 0 234 288;" xml:space="preserve">
<style type="text/css">
	.st0{clip-path:url(#SVGID_2_);}
	.st1{fill:#FFFFFF;stroke:#333333;stroke-miterlimit:10;}
	.st2{fill:#333333;stroke:#333333;}
	.st3{fill:none;stroke:#333333;stroke-miterlimit:10;}
	.st4{stroke:#333333;}
	.st5{fill:none;stroke:#333333;stroke-width:0.25;stroke-miterlimit:10;}
	.st6{fill:none;stroke:#333333;}
	.st7{fill:#333333;}
</style>
<g id="Layer_1">
	<g>
		<g>
			<defs>
				<rect id="SVGID_1_" x="19" y="-44" width="196" height="330"/>
			</defs>
			<clipPath id="SVGID_2_">
				<use xlink:href="#SVGID_1_"  style="overflow:visible;"/>
			</clipPath>
			<g class="st0">
				<path class="st1" d="M34.6,65.4v199.7c0,0.6,0.3,1.1,0.9,1.4c5.8,2.9,11.5,4.9,16.8,7.2l0.9,0.9c6.9,2.9,13.7,5.8,22.5,9.3
					c0.3,0.2,0.8,0.2,1.1,0l114.9-38.7c0.3-0.2,0.5-0.5,0.5-0.8V55.3L208,42.9l5.3-6.1l-0.3-1.1l-7.8,1.2v-0.8L171,27.5l-18,16.2
					l-32.4-31.2l-99,15.3l-1.1,0.3l2.3,11.2l3.1,7.5l-2.1-0.5l-0.2,0.9l6.3,7.9c1.7,4.4,1.4,4.1,0.8,4.4L34.6,65.4z"/>
				<path class="st2" d="M76.1,73.5c0,0,0.2,0.8,0.2,2.4s0,3.8,0,6.8c0,5.8,0,14,0,23.9c0,19.8,0,46,0,72.4s0,52.6,0,72.4
					c0,9.9,0,18.1,0,23.9c0,2.8,0,5.2,0,6.8c0,1.6-0.2,2.4-0.2,2.4s-0.1-1-0.1-2.5c0-1.6,0-3.8,0-6.8c0-5.8,0-14,0-23.9
					c0-19.8,0-46,0-72.4s0-52.6,0-72.4c0-9.9,0-18.1,0-23.9c0-2.8,0-5.2,0-6.8S76.1,73.5,76.1,73.5z"/>
				<path class="st3" d="M25.6,46.6l33.2,7.6c0,0,6.1,8.9,8.4,11.8c2.4,3.1,5.3,3.1,5.3,3.1l3.5,5l13.9-13.3l8.6-6.3l36.7-5.8
					c2-0.3,4-0.8,5.8-1.5l5.5-2.1h0.2l28-4.4c0.2,0,0.3,0,0.3,0l1.2,0.5c0.6,0.3,1.4,0.5,2.1,0.3l27.3-4.4"/>
				<path class="st4" d="M75.2,75.3c0,0-0.6,0-1.7-0.3s-2.6-0.6-4.6-1.1c-3.7-0.9-8.7-2.1-13.7-3.4c-5-1.2-9.9-2.4-13.7-3.4
					c-1.8-0.5-3.4-0.9-4.6-1.1c-1.1-0.3-1.7-0.6-1.7-0.6s0.6,0,1.7,0.3c1.1,0.3,2.6,0.6,4.6,1.1c3.7,0.9,8.7,2.1,13.7,3.4
					s9.9,2.4,13.7,3.4c1.8,0.5,3.4,0.8,4.6,1.1C74.6,75,75.2,75.3,75.2,75.3z"/>
				<path class="st4" d="M76.9,75.2c0,0,1.7-0.5,4.9-1.1c3.1-0.6,7.6-1.4,13-2.3c10.7-1.8,24.9-4.3,39.3-6.7
					c14.2-2.4,28.6-4.9,39.3-6.7c5.3-0.9,9.8-1.7,13-2.3c3.8-0.8,6.1-0.8,6.1-0.8s-2.9,0.6-6.1,1.2c-3.1,0.6-7.6,1.4-13,2.3
					c-10.7,1.8-24.9,4.3-39.3,6.7c-14.2,2.4-28.6,4.9-39.3,6.7c-5.3,0.9-9.8,1.7-13,2.3C78.7,75,76.9,75.2,76.9,75.2z"/>
				<path class="st5" d="M52.2,272.1l1.2,1.2c0,0,13,6,22.2,8.9"/>
				<path class="st5" d="M52.5,273.8l-1.8-2.3"/>
				<path class="st5" d="M35.3,264.9l40.2,17.3"/>
				<line class="st6" x1="76.4" y1="295.9" x2="151.8" y2="271.1"/>
				<line class="st6" x1="116.8" y1="276.3" x2="192.2" y2="251.5"/>
				<line class="st6" x1="43.9" y1="283.2" x2="76.7" y2="295.9"/>
				<line class="st6" x1="34.4" y1="272.7" x2="59.9" y2="283.2"/>
			</g>
		</g>
	</g>
</g>
<g id="Layer_2">
	<g>
		<path class="st7" d="M92.1,260.3l-1.9,0.6l-1.8-5.7l-1.9,1.7c-0.2,0-0.4-0.1-0.5-0.2c-0.2-0.1-0.3-0.3-0.4-0.5
			c-0.1-0.4,0-0.9,0.5-1.2l2.1-1.8l0.4-0.1c0.3-0.1,0.6-0.1,0.8,0c0.2,0.1,0.4,0.3,0.5,0.7L92.1,260.3z M89.9,259.8l1.9-0.6l1.6,4.9
			c-0.1,0.1-0.2,0.1-0.3,0.2c-0.1,0.1-0.3,0.1-0.5,0.2c-0.3,0.1-0.6,0.1-0.8,0c-0.2-0.1-0.4-0.3-0.5-0.6L89.9,259.8z"/>
		<path class="st7" d="M92.7,251.9l6.6-2.1c0.2,0,0.3,0.1,0.5,0.2c0.1,0.1,0.3,0.3,0.3,0.5c0,0.1,0.1,0.3,0.1,0.4c0,0.2,0,0.3,0,0.5
			l-1.4,10.9c-0.1,0-0.2,0.1-0.3,0.1s-0.2,0.1-0.3,0.1c-0.3,0.1-0.6,0.1-0.8,0c-0.3-0.1-0.4-0.3-0.5-0.5c-0.1-0.2-0.1-0.4-0.1-0.6
			c0-0.2,0-0.4,0.1-0.7l1.3-9l-5.5,1.8c-0.1-0.1-0.2-0.1-0.2-0.3s-0.2-0.3-0.2-0.4c-0.1-0.3-0.1-0.5,0-0.7
			C92.3,252.1,92.4,252,92.7,251.9z"/>
		<path class="st7" d="M104,248.3l-0.1,1.4l0.8,3.3c0.2-0.2,0.4-0.3,0.7-0.5c0.3-0.2,0.7-0.4,1.1-0.5c0.8-0.2,1.5-0.3,2.2-0.2
			c0.7,0.1,1.3,0.4,1.8,0.8c0.5,0.4,0.9,1,1.1,1.8c0.2,0.7,0.3,1.4,0.1,2.1c-0.1,0.7-0.5,1.3-1,1.8c-0.5,0.5-1.3,1-2.2,1.3
			c-0.7,0.2-1.4,0.3-1.9,0.4c-0.6,0-1.1-0.1-1.4-0.2c-0.4-0.2-0.6-0.4-0.7-0.6c-0.1-0.2-0.1-0.5,0-0.7c0.1-0.2,0.2-0.4,0.3-0.5
			c0.4,0.2,0.8,0.3,1.4,0.4c0.5,0.1,1.1,0,1.8-0.2c0.8-0.3,1.3-0.7,1.6-1.2c0.3-0.6,0.3-1.2,0.1-1.8c-0.2-0.7-0.6-1.1-1.1-1.4
			c-0.5-0.2-1.2-0.2-1.9,0c-0.4,0.1-0.7,0.3-1,0.5c-0.3,0.2-0.5,0.5-0.8,0.7c-0.4,0.1-0.8,0.1-1.1,0c-0.3-0.1-0.5-0.4-0.6-0.7
			c0-0.1,0-0.1-0.1-0.3c0-0.1-0.1-0.2-0.1-0.3l-0.8-3.4c-0.1-0.3-0.1-0.6,0-0.9c0.1-0.2,0.3-0.4,0.6-0.5L104,248.3z M103.6,250.1
			l-0.5-1.5l5.3-1.7c0.1,0.1,0.2,0.1,0.2,0.3c0.1,0.1,0.2,0.3,0.2,0.4c0.1,0.3,0.1,0.5,0,0.7c-0.1,0.2-0.2,0.3-0.4,0.4L103.6,250.1z
			"/>
		<path class="st7" d="M120.4,250.2l-7.4,2.4c-0.1-0.1-0.2-0.2-0.2-0.3c-0.1-0.1-0.1-0.2-0.2-0.4c-0.1-0.3-0.1-0.5,0-0.7
			c0.1-0.2,0.3-0.3,0.5-0.4l7.4-2.4c0.1,0.1,0.1,0.2,0.2,0.3c0.1,0.1,0.1,0.2,0.2,0.4c0.1,0.3,0.1,0.5,0,0.6
			C120.8,250,120.6,250.1,120.4,250.2z M116.5,246.8l2.4,7.6c-0.1,0.1-0.2,0.1-0.3,0.2c-0.1,0.1-0.3,0.1-0.4,0.2
			c-0.3,0.1-0.5,0.1-0.7,0c-0.2-0.1-0.3-0.3-0.4-0.6l-2.4-7.6c0.1-0.1,0.2-0.1,0.3-0.2c0.1-0.1,0.3-0.1,0.4-0.2
			c0.3-0.1,0.5-0.1,0.7,0C116.3,246.3,116.4,246.5,116.5,246.8z"/>
		<path class="st7" d="M126.9,249.2l-1.9,0.6l-1.8-5.7l-1.9,1.7c-0.2,0-0.4-0.1-0.5-0.2c-0.2-0.1-0.3-0.3-0.4-0.5
			c-0.1-0.4,0-0.9,0.5-1.2l2.1-1.8l0.4-0.1c0.3-0.1,0.6-0.1,0.8,0c0.2,0.1,0.4,0.3,0.5,0.7L126.9,249.2z M124.7,248.6l1.9-0.6
			l1.6,4.9c-0.1,0.1-0.2,0.1-0.3,0.2c-0.1,0.1-0.3,0.1-0.5,0.2c-0.3,0.1-0.6,0.1-0.8,0c-0.2-0.1-0.4-0.3-0.5-0.6L124.7,248.6z"/>
		<path class="st7" d="M127.5,240.8l6.6-2.1c0.2,0,0.3,0.1,0.5,0.2c0.1,0.1,0.3,0.3,0.3,0.5c0,0.1,0.1,0.3,0.1,0.4
			c0,0.2,0,0.3,0,0.5l-1.4,10.9c-0.1,0-0.2,0.1-0.3,0.1c-0.1,0-0.2,0.1-0.3,0.1c-0.3,0.1-0.6,0.1-0.8,0c-0.3-0.1-0.4-0.3-0.5-0.5
			c-0.1-0.2-0.1-0.4-0.1-0.6c0-0.2,0-0.4,0.1-0.7l1.3-9l-5.5,1.8c-0.1-0.1-0.2-0.1-0.2-0.3c-0.1-0.1-0.2-0.3-0.2-0.4
			c-0.1-0.3-0.1-0.5,0-0.7S127.3,240.9,127.5,240.8z"/>
		<path class="st7" d="M138.8,237.2l-0.1,1.4l0.8,3.3c0.2-0.2,0.4-0.3,0.7-0.5s0.7-0.4,1.1-0.5c0.8-0.2,1.5-0.3,2.2-0.2
			c0.7,0.1,1.3,0.4,1.8,0.8s0.9,1,1.1,1.8c0.2,0.7,0.3,1.4,0.1,2.1c-0.1,0.7-0.5,1.3-1,1.8c-0.5,0.5-1.3,1-2.2,1.3
			c-0.7,0.2-1.4,0.3-1.9,0.4c-0.6,0-1.1-0.1-1.4-0.2c-0.4-0.2-0.6-0.4-0.7-0.6c-0.1-0.2-0.1-0.5,0-0.7c0.1-0.2,0.2-0.4,0.3-0.5
			c0.4,0.2,0.8,0.3,1.4,0.4s1.1,0,1.8-0.2c0.8-0.3,1.3-0.7,1.6-1.2c0.3-0.6,0.3-1.2,0.1-1.8c-0.2-0.7-0.6-1.1-1.1-1.4
			c-0.5-0.2-1.2-0.2-1.9,0c-0.4,0.1-0.7,0.3-1,0.5s-0.5,0.5-0.8,0.7c-0.4,0.1-0.8,0.1-1.1,0c-0.3-0.1-0.5-0.4-0.6-0.7
			c0-0.1,0-0.1-0.1-0.3s-0.1-0.2-0.1-0.3l-0.8-3.4c-0.1-0.3-0.1-0.6,0.1-0.9s0.3-0.4,0.6-0.5L138.8,237.2z M138.4,239l-0.5-1.5
			l5.3-1.7c0.1,0.1,0.2,0.1,0.2,0.3c0.1,0.1,0.2,0.3,0.2,0.4c0.1,0.3,0.1,0.5,0,0.7c-0.1,0.2-0.2,0.3-0.4,0.4L138.4,239z"/>
		<path class="st7" d="M160.9,236.5l1.3,4c0.1,0.3,0.1,0.5,0,0.7c-0.1,0.2-0.2,0.4-0.5,0.6c-0.3,0.3-0.6,0.5-1.2,0.8
			c-0.5,0.3-1.1,0.5-1.7,0.7c-1.1,0.4-2.2,0.5-3.3,0.4c-1-0.1-1.9-0.5-2.7-1.2c-0.8-0.7-1.4-1.7-1.8-3.1c-0.4-1.3-0.5-2.5-0.3-3.5
			c0.2-1,0.7-1.9,1.5-2.6c0.7-0.7,1.6-1.2,2.7-1.6c0.7-0.2,1.4-0.4,1.9-0.4c0.6,0,1.1,0,1.4,0.2c0.4,0.1,0.6,0.4,0.7,0.6
			c0.1,0.2,0.1,0.4,0,0.6c-0.1,0.2-0.2,0.3-0.3,0.5c-0.4-0.1-0.9-0.2-1.4-0.2c-0.5,0-1.1,0.1-1.8,0.3c-0.7,0.2-1.4,0.6-1.9,1.1
			c-0.5,0.5-0.8,1.1-0.9,1.9c-0.1,0.7-0.1,1.6,0.2,2.5c0.3,1,0.7,1.7,1.3,2.2c0.5,0.5,1.2,0.8,1.9,0.9c0.7,0.1,1.4,0,2.2-0.2
			c0.4-0.1,0.8-0.3,1.1-0.5c0.3-0.2,0.6-0.3,0.7-0.5l-1-3l-2.6,0.8c-0.1-0.1-0.1-0.2-0.2-0.3c-0.1-0.1-0.2-0.3-0.2-0.4
			c-0.1-0.3-0.1-0.5,0-0.7c0.1-0.2,0.2-0.3,0.4-0.4l3.1-1c0.2-0.1,0.5-0.1,0.7,0C160.7,236.1,160.8,236.3,160.9,236.5z"/>
		<path class="st7" d="M171.1,236c-0.1,0.1-0.2,0.2-0.3,0.3c-0.1,0.1-0.3,0.2-0.5,0.3c-0.3,0.1-0.5,0.1-0.7,0.1
			c-0.2,0-0.4-0.1-0.5-0.2c-1-1.1-1.9-2.1-2.6-3c-0.8-0.9-1.4-1.6-1.8-2.3l-0.1,0c0.2,0.9,0.5,1.7,0.7,2.5c0.2,0.8,0.4,1.5,0.6,2.2
			c0.2,0.7,0.4,1.4,0.6,2.2c0.2,0.7,0.4,1.5,0.6,2.4c-0.1,0.1-0.2,0.1-0.3,0.2s-0.3,0.1-0.5,0.2c-0.3,0.1-0.6,0.1-0.8,0
			c-0.2-0.1-0.3-0.2-0.4-0.5c-0.1-0.2-0.2-0.5-0.3-1.1c-0.1-0.5-0.3-1.2-0.5-2c-0.2-0.8-0.4-1.6-0.6-2.4c-0.2-0.9-0.4-1.7-0.6-2.5
			c-0.2-0.8-0.4-1.6-0.5-2.3c0.1-0.1,0.2-0.3,0.4-0.5c0.2-0.2,0.4-0.3,0.8-0.4c0.4-0.1,0.7-0.1,1-0.1c0.3,0.1,0.5,0.2,0.7,0.5
			c0.5,0.5,0.9,1,1.5,1.6c0.5,0.6,1,1.2,1.5,1.8c0.5,0.6,1,1.2,1.4,1.7l0.1,0c0.1-1.4,0.2-2.7,0.3-4c0.1-1.3,0.2-2.4,0.3-3.3
			c0.1-0.1,0.3-0.2,0.4-0.3c0.2-0.1,0.4-0.2,0.6-0.3c0.4-0.1,0.7-0.1,0.9-0.1c0.3,0,0.4,0.2,0.6,0.4c0.1,0.2,0.3,0.6,0.5,1
			c0.2,0.5,0.5,1.1,0.7,1.7c0.3,0.6,0.6,1.3,0.9,2.1c0.3,0.7,0.6,1.4,0.9,2.1c0.3,0.7,0.5,1.3,0.8,1.9c0.2,0.6,0.4,1,0.5,1.3
			c-0.1,0.1-0.2,0.2-0.4,0.3c-0.1,0.1-0.3,0.2-0.5,0.2c-0.2,0.1-0.5,0.1-0.7,0c-0.2,0-0.4-0.2-0.5-0.5c-0.4-1.1-0.8-2.2-1.2-3.2
			c-0.4-1-0.8-2-1.1-2.9c-0.3-0.9-0.6-1.6-0.8-2.2l-0.1,0c0,0.7-0.1,1.6-0.2,2.7C171.4,232.8,171.2,234.3,171.1,236z"/>
		<path class="st7" d="M182.5,234.1c0.8-0.2,1.3-0.6,1.6-1c0.3-0.5,0.3-0.9,0.2-1.5c-0.1-0.4-0.4-0.8-0.8-1
			c-0.4-0.2-0.9-0.3-1.6-0.3l-1.5,0c-0.6,0-1.2-0.1-1.7-0.2s-0.9-0.3-1.3-0.7c-0.4-0.3-0.6-0.8-0.8-1.3c-0.3-1-0.2-1.8,0.3-2.6
			c0.5-0.8,1.4-1.4,2.6-1.8c0.7-0.2,1.3-0.3,1.9-0.4c0.6,0,1,0,1.4,0.2c0.4,0.1,0.6,0.3,0.7,0.6c0.1,0.2,0.1,0.4,0,0.6
			c-0.1,0.2-0.1,0.4-0.3,0.5c-0.4-0.1-0.8-0.2-1.4-0.2c-0.6,0-1.1,0.1-1.7,0.3c-0.7,0.2-1.2,0.5-1.4,0.9c-0.3,0.4-0.4,0.8-0.2,1.3
			c0.1,0.4,0.4,0.6,0.7,0.8c0.3,0.1,0.8,0.2,1.5,0.2l1.2,0c1.1,0,2,0.1,2.8,0.5c0.7,0.3,1.3,1,1.6,1.9c0.3,1,0.2,1.9-0.3,2.7
			c-0.5,0.8-1.5,1.5-2.8,1.9c-0.7,0.2-1.4,0.4-2.1,0.4c-0.6,0-1.1-0.1-1.5-0.2c-0.4-0.2-0.7-0.4-0.7-0.7c-0.1-0.2-0.1-0.5,0-0.7
			c0.1-0.2,0.2-0.4,0.4-0.5c0.4,0.2,0.9,0.3,1.5,0.4C181.1,234.4,181.8,234.3,182.5,234.1z"/>
	</g>
</g>
</svg>
