<?xml version="1.0" encoding="utf-8"?>
<!-- Generator: Adobe Illustrator 23.1.0, SVG Export Plug-In . SVG Version: 6.00 Build 0)  -->
<svg version="1.1" xmlns="http://www.w3.org/2000/svg" xmlns:xlink="http://www.w3.org/1999/xlink" x="0px" y="0px"
	 viewBox="0 0 234 288" style="enable-background:new 0 0 234 288;" xml:space="preserve">
<style type="text/css">
	.st0{clip-path:url(#SVGID_2_);}
	.st1{fill:#FFFFFF;stroke:#333333;stroke-miterlimit:10;}
	.st2{fill:#333333;stroke:#333333;}
	.st3{fill:none;stroke:#333333;stroke-miterlimit:10;}
	.st4{stroke:#333333;}
	.st5{fill:none;stroke:#333333;stroke-width:0.25;stroke-miterlimit:10;}
	.st6{fill:none;stroke:#333333;}
	.st7{fill:#333333;}
</style>
<g id="Layer_1">
	<g>
		<g>
			<defs>
				<rect id="SVGID_1_" x="19" y="-44" width="196" height="330"/>
			</defs>
			<clipPath id="SVGID_2_">
				<use xlink:href="#SVGID_1_"  style="overflow:visible;"/>
			</clipPath>
			<g class="st0">
				<path class="st1" d="M34.6,65.4v199.7c0,0.6,0.3,1.1,0.9,1.4c5.8,2.9,11.5,4.9,16.8,7.2l0.9,0.9c6.9,2.9,13.7,5.8,22.5,9.3
					c0.3,0.2,0.8,0.2,1.1,0l114.9-38.7c0.3-0.2,0.5-0.5,0.5-0.8V55.3L208,42.9l5.3-6.1l-0.3-1.1l-7.8,1.2v-0.8L171,27.5l-18,16.2
					l-32.4-31.2l-99,15.3l-1.1,0.3l2.3,11.2l3.1,7.5l-2.1-0.5l-0.2,0.9l6.3,7.9c1.7,4.4,1.4,4.1,0.8,4.4L34.6,65.4z"/>
				<path class="st2" d="M76.1,73.5c0,0,0.2,0.8,0.2,2.4s0,3.8,0,6.8c0,5.8,0,14,0,23.9c0,19.8,0,46,0,72.4s0,52.6,0,72.4
					c0,9.9,0,18.1,0,23.9c0,2.8,0,5.2,0,6.8c0,1.6-0.2,2.4-0.2,2.4s-0.1-1-0.1-2.5c0-1.6,0-3.8,0-6.8c0-5.8,0-14,0-23.9
					c0-19.8,0-46,0-72.4s0-52.6,0-72.4c0-9.9,0-18.1,0-23.9c0-2.8,0-5.2,0-6.8S76.1,73.5,76.1,73.5z"/>
				<path class="st3" d="M25.6,46.6l33.2,7.6c0,0,6.1,8.9,8.4,11.8c2.4,3.1,5.3,3.1,5.3,3.1l3.5,5l13.9-13.3l8.6-6.3l36.7-5.8
					c2-0.3,4-0.8,5.8-1.5l5.5-2.1h0.2l28-4.4c0.2,0,0.3,0,0.3,0l1.2,0.5c0.6,0.3,1.4,0.5,2.1,0.3l27.3-4.4"/>
				<path class="st4" d="M75.2,75.3c0,0-0.6,0-1.7-0.3s-2.6-0.6-4.6-1.1c-3.7-0.9-8.7-2.1-13.7-3.4c-5-1.2-9.9-2.4-13.7-3.4
					c-1.8-0.5-3.4-0.9-4.6-1.1c-1.1-0.3-1.7-0.6-1.7-0.6s0.6,0,1.7,0.3c1.1,0.3,2.6,0.6,4.6,1.1c3.7,0.9,8.7,2.1,13.7,3.4
					s9.9,2.4,13.7,3.4c1.8,0.5,3.4,0.8,4.6,1.1C74.6,75,75.2,75.3,75.2,75.3z"/>
				<path class="st4" d="M76.9,75.2c0,0,1.7-0.5,4.9-1.1c3.1-0.6,7.6-1.4,13-2.3c10.7-1.8,24.9-4.3,39.3-6.7
					c14.2-2.4,28.6-4.9,39.3-6.7c5.3-0.9,9.8-1.7,13-2.3c3.8-0.8,6.1-0.8,6.1-0.8s-2.9,0.6-6.1,1.2c-3.1,0.6-7.6,1.4-13,2.3
					c-10.7,1.8-24.9,4.3-39.3,6.7c-14.2,2.4-28.6,4.9-39.3,6.7c-5.3,0.9-9.8,1.7-13,2.3C78.7,75,76.9,75.2,76.9,75.2z"/>
				<path class="st5" d="M52.2,272.1l1.2,1.2c0,0,13,6,22.2,8.9"/>
				<path class="st5" d="M52.5,273.8l-1.8-2.3"/>
				<path class="st5" d="M35.3,264.9l40.2,17.3"/>
				<line class="st6" x1="76.4" y1="295.9" x2="151.8" y2="271.1"/>
				<line class="st6" x1="116.8" y1="276.3" x2="192.2" y2="251.5"/>
				<line class="st6" x1="43.9" y1="283.2" x2="76.7" y2="295.9"/>
				<line class="st6" x1="34.4" y1="272.7" x2="59.9" y2="283.2"/>
			</g>
		</g>
	</g>
</g>
<g id="Layer_2">
	<g>
		<path class="st7" d="M91.4,259.1l3.5-10c0.2-0.1,0.3-0.2,0.5-0.3c0.2-0.1,0.4-0.2,0.5-0.2c0.3-0.1,0.5-0.1,0.8-0.1
			c0.3,0,0.5,0.1,0.7,0.2c0.2,0.1,0.4,0.4,0.5,0.7l2.3,7.2l2.1-0.7c0.1,0.1,0.2,0.2,0.3,0.3c0.1,0.1,0.2,0.3,0.3,0.5
			c0.1,0.3,0.1,0.6,0,0.8c-0.1,0.2-0.3,0.4-0.5,0.4l-1.5,0.5l1,3.1c-0.1,0.1-0.2,0.1-0.4,0.2c-0.2,0.1-0.4,0.2-0.6,0.2
			c-0.4,0.1-0.7,0.1-0.9,0.1c-0.2-0.1-0.4-0.3-0.5-0.6l-0.7-2.3l-6.1,1.9c-0.2,0-0.4-0.2-0.7-0.3c-0.2-0.2-0.4-0.4-0.5-0.7
			c-0.1-0.2-0.1-0.3-0.1-0.5C91.4,259.5,91.4,259.3,91.4,259.1z M98.2,257.4l-2-6.3l0,0l-2.4,7.6L98.2,257.4z"/>
		<path class="st7" d="M111.4,258.9c-1.1,0.3-2.1,0.4-3,0.1c-1-0.3-1.8-0.8-2.6-1.7c-0.8-0.9-1.4-2.1-1.9-3.7
			c-0.5-1.6-0.7-3-0.5-4.2c0.2-1.2,0.6-2.1,1.2-2.9c0.7-0.7,1.5-1.3,2.4-1.6c1-0.3,1.9-0.3,2.9-0.1c1,0.2,1.9,0.8,2.7,1.6
			s1.5,2.1,2,3.7c0.5,1.5,0.7,2.9,0.6,4.1c-0.1,1.2-0.5,2.2-1.2,2.9C113.3,258,112.4,258.6,111.4,258.9z M110.8,257.1
			c1-0.3,1.6-1,1.9-2c0.3-1.1,0.1-2.4-0.4-4.1c-0.4-1.2-0.8-2.1-1.4-2.8c-0.5-0.7-1.1-1.1-1.6-1.3c-0.6-0.2-1.2-0.2-1.7,0
			c-0.6,0.2-1.1,0.5-1.4,1c-0.4,0.5-0.5,1.2-0.6,2c0,0.8,0.1,1.9,0.5,3c0.5,1.7,1.2,2.8,2,3.5C108.9,257.2,109.8,257.4,110.8,257.1z
			"/>
		<path class="st7" d="M124.2,254.8c-1.1,0.3-2.1,0.4-3,0.1s-1.8-0.8-2.6-1.7c-0.8-0.9-1.4-2.1-1.9-3.7c-0.5-1.6-0.7-3-0.5-4.2
			c0.2-1.2,0.6-2.1,1.2-2.9c0.7-0.7,1.5-1.3,2.4-1.6c1-0.3,1.9-0.3,2.9-0.1c1,0.2,1.9,0.8,2.7,1.6c0.8,0.9,1.5,2.1,2,3.7
			c0.5,1.5,0.7,2.9,0.6,4.1c-0.1,1.2-0.5,2.2-1.2,2.9C126.1,253.9,125.3,254.5,124.2,254.8z M123.6,253c1-0.3,1.6-1,1.9-2
			c0.3-1.1,0.1-2.4-0.4-4.1c-0.4-1.2-0.8-2.1-1.4-2.8s-1.1-1.1-1.6-1.3c-0.6-0.2-1.2-0.2-1.7,0c-0.6,0.2-1.1,0.5-1.4,1
			c-0.4,0.5-0.5,1.2-0.6,2c0,0.8,0.1,1.9,0.5,3c0.5,1.7,1.2,2.8,2,3.5C121.8,253.1,122.7,253.3,123.6,253z"/>
		<path class="st7" d="M145.6,240.6l1.5,4.7c0.1,0.3,0.1,0.6,0,0.8c-0.1,0.2-0.3,0.5-0.5,0.8c-0.3,0.3-0.8,0.7-1.4,1
			c-0.6,0.3-1.3,0.6-2,0.9c-1.4,0.4-2.7,0.6-3.9,0.4c-1.2-0.1-2.3-0.6-3.2-1.5c-0.9-0.8-1.6-2.1-2.2-3.6c-0.5-1.5-0.6-2.9-0.3-4.2
			c0.3-1.2,0.9-2.3,1.7-3.1c0.9-0.9,1.9-1.5,3.2-1.9c0.8-0.3,1.6-0.4,2.3-0.4c0.7,0,1.3,0.1,1.7,0.2c0.4,0.2,0.7,0.4,0.8,0.7
			c0.1,0.2,0.1,0.5,0,0.7c-0.1,0.2-0.2,0.4-0.3,0.6c-0.5-0.1-1-0.2-1.6-0.3c-0.6,0-1.3,0.1-2.1,0.3c-0.9,0.3-1.6,0.7-2.2,1.3
			c-0.6,0.6-1,1.4-1.1,2.3c-0.2,0.9-0.1,1.9,0.3,3c0.4,1.2,0.9,2.1,1.5,2.7c0.7,0.6,1.4,1,2.2,1.1c0.8,0.1,1.7,0,2.6-0.2
			c0.5-0.2,0.9-0.3,1.3-0.5c0.4-0.2,0.7-0.4,0.9-0.6l-1.1-3.6l-3.1,1c-0.1-0.1-0.2-0.2-0.3-0.3c-0.1-0.1-0.2-0.3-0.2-0.5
			c-0.1-0.3-0.1-0.6,0-0.8c0.1-0.2,0.3-0.4,0.5-0.4l3.7-1.2c0.3-0.1,0.6-0.1,0.8,0C145.4,240.1,145.5,240.3,145.6,240.6z"/>
		<path class="st7" d="M157.8,240c-0.1,0.1-0.2,0.3-0.4,0.4c-0.2,0.1-0.4,0.2-0.6,0.3c-0.3,0.1-0.6,0.1-0.8,0.1s-0.4-0.1-0.6-0.3
			c-1.2-1.3-2.2-2.5-3.1-3.6c-0.9-1.1-1.6-2-2.2-2.7l-0.1,0c0.3,1.1,0.5,2,0.8,2.9c0.2,0.9,0.5,1.8,0.7,2.6c0.2,0.8,0.5,1.7,0.7,2.6
			c0.2,0.9,0.5,1.8,0.7,2.9c-0.1,0.1-0.2,0.2-0.4,0.3c-0.2,0.1-0.4,0.2-0.5,0.2c-0.4,0.1-0.7,0.1-0.9,0c-0.2-0.1-0.4-0.3-0.5-0.6
			c-0.1-0.2-0.2-0.7-0.4-1.3s-0.4-1.4-0.6-2.3c-0.2-0.9-0.5-1.9-0.7-2.9c-0.2-1-0.5-2-0.7-3c-0.2-1-0.5-1.9-0.6-2.7
			c0.1-0.2,0.2-0.4,0.4-0.6c0.2-0.2,0.5-0.4,0.9-0.5c0.4-0.1,0.8-0.2,1.2-0.1c0.3,0.1,0.6,0.2,0.9,0.5c0.6,0.6,1.1,1.2,1.7,1.9
			c0.6,0.7,1.2,1.4,1.8,2.1c0.6,0.7,1.1,1.4,1.7,2l0.1,0c0.1-1.6,0.2-3.2,0.4-4.8s0.2-2.9,0.3-3.9c0.1-0.1,0.3-0.2,0.5-0.4
			c0.2-0.1,0.4-0.2,0.7-0.3c0.4-0.1,0.8-0.2,1.1-0.1c0.3,0.1,0.5,0.2,0.7,0.5c0.1,0.2,0.3,0.7,0.6,1.2c0.3,0.6,0.5,1.3,0.9,2
			c0.3,0.8,0.7,1.6,1,2.4s0.7,1.7,1,2.5c0.3,0.8,0.6,1.6,0.9,2.2c0.3,0.7,0.5,1.2,0.6,1.6c-0.1,0.2-0.3,0.3-0.4,0.4
			c-0.2,0.1-0.4,0.2-0.6,0.3c-0.3,0.1-0.6,0.1-0.8,0.1c-0.3-0.1-0.5-0.3-0.6-0.6c-0.5-1.3-1-2.6-1.5-3.8c-0.5-1.3-0.9-2.4-1.3-3.4
			c-0.4-1-0.7-1.9-1-2.6l-0.1,0c0,0.8-0.1,1.9-0.2,3.3C158.1,236.2,157.9,237.9,157.8,240z"/>
		<path class="st7" d="M171.4,237.7c0.9-0.3,1.5-0.7,1.9-1.2c0.3-0.5,0.4-1.1,0.2-1.7c-0.2-0.5-0.5-0.9-1-1.1
			c-0.5-0.2-1.1-0.3-1.9-0.3l-1.8,0c-0.7,0-1.4-0.1-2-0.2s-1.1-0.4-1.5-0.8s-0.7-0.9-0.9-1.6c-0.4-1.1-0.2-2.2,0.4-3.1
			s1.7-1.6,3.1-2.1c0.8-0.3,1.5-0.4,2.2-0.4s1.3,0,1.7,0.2c0.5,0.2,0.7,0.4,0.8,0.7c0.1,0.2,0.1,0.5,0,0.7c-0.1,0.2-0.2,0.4-0.3,0.6
			c-0.4-0.2-1-0.3-1.7-0.3c-0.7,0-1.4,0.1-2.1,0.3c-0.8,0.3-1.4,0.6-1.7,1.1c-0.3,0.5-0.4,1-0.3,1.5c0.1,0.5,0.4,0.8,0.8,0.9
			c0.4,0.2,1,0.3,1.8,0.2l1.4,0c1.3,0,2.4,0.2,3.3,0.6c0.9,0.4,1.5,1.2,1.9,2.3c0.4,1.2,0.2,2.3-0.4,3.3c-0.6,1-1.8,1.8-3.4,2.3
			c-0.9,0.3-1.7,0.4-2.5,0.5s-1.4-0.1-1.8-0.3c-0.5-0.2-0.8-0.5-0.9-0.8c-0.1-0.3-0.1-0.6,0-0.8c0.1-0.3,0.3-0.5,0.4-0.6
			c0.5,0.2,1,0.4,1.7,0.5C169.8,238,170.5,237.9,171.4,237.7z"/>
	</g>
</g>
</svg>
